<svg width="27" height="26" viewBox="0 0 27 26" fill="none" xmlns="http://www.w3.org/2000/svg">
<g clip-path="url(#clip0_226_30888)">
<path d="M21.5524 10.9698C20.8276 7.29273 17.5982 4.53223 13.7185 4.53223C10.6383 4.53223 7.96307 6.28019 6.63078 8.83818C3.42263 9.17924 0.928589 11.8971 0.928589 15.1905C0.928589 18.7184 3.79567 21.5855 7.32357 21.5855H21.1794C24.121 21.5855 26.5085 19.198 26.5085 16.2564C26.5085 13.4426 24.3236 11.1617 21.5524 10.9698ZM21.1794 19.4538H7.32357C4.96808 19.4538 3.06025 17.546 3.06025 15.1905C3.06025 13.0056 4.69097 11.183 6.8546 10.9592L7.99504 10.8419L8.52796 9.8294C9.54049 7.87893 11.5229 6.66389 13.7185 6.66389C16.511 6.66389 18.9198 8.64633 19.4634 11.3855L19.7831 12.9843L21.4138 13.1015C23.0765 13.2081 24.3768 14.6043 24.3768 16.2564C24.3768 18.015 22.938 19.4538 21.1794 19.4538ZM9.45523 14.1247H12.1731V17.3222H15.264V14.1247H17.9819L13.7185 9.86138L9.45523 14.1247Z" fill="#EFA510"/>
</g>
<defs>
<clipPath id="clip0_226_30888">
<rect width="25.5799" height="25.5799" fill="white" transform="translate(0.928589 0.268799)"/>
</clipPath>
</defs>
</svg>
