<svg width="18" height="17" viewBox="0 0 18 17" fill="none" xmlns="http://www.w3.org/2000/svg">
<path fill-rule="evenodd" clip-rule="evenodd" d="M7.18441 0.0517578C7.95933 0.0525727 8.69758 0.422513 9.16041 1.04098L9.90274 2.02857C10.1382 2.34148 10.5122 2.52808 10.9034 2.52889H13.2086C16.3555 2.52889 17.8214 4.14147 17.8214 7.60375L17.7986 11.6511C17.7978 14.8844 15.7884 16.8938 12.5534 16.8938H6.2123C2.97084 16.8938 0.956543 14.8836 0.956543 11.6487V5.29366C0.956543 1.81509 2.50394 0.0517578 5.55472 0.0517578H7.18441ZM7.1836 1.27403H5.55472C3.18841 1.27403 2.17881 2.47674 2.17881 5.29366V11.6487C2.17881 14.2431 3.61131 15.6715 6.2123 15.6715H12.5534C15.1479 15.6715 16.5763 14.2431 16.5763 11.6487V11.6462L16.5991 7.60049C16.5991 4.83083 15.649 3.75116 13.2086 3.75116H10.9026C10.1293 3.75034 9.39102 3.38122 8.92655 2.76357L8.1826 1.77434C7.94874 1.46063 7.57472 1.27484 7.1836 1.27403ZM12.948 10.0033C13.2853 10.0033 13.5591 10.2771 13.5591 10.6144C13.5591 10.9518 13.2853 11.2256 12.948 11.2256H5.8303C5.49296 11.2256 5.21917 10.9518 5.21917 10.6144C5.21917 10.2771 5.49296 10.0033 5.8303 10.0033H12.948Z" fill="#56555C"/>
</svg>
