<svg width="21" height="21" viewBox="0 0 21 21" fill="none" xmlns="http://www.w3.org/2000/svg">
<path fill-rule="evenodd" clip-rule="evenodd" d="M10.5 1.33331C10.8172 1.33331 11.1069 1.51337 11.2473 1.79779L13.6286 6.62203L18.9539 7.40041C19.2677 7.44627 19.5282 7.66628 19.626 7.96795C19.7239 8.26963 19.642 8.60067 19.4148 8.82195L15.5621 12.5745L16.4713 17.8758C16.525 18.1884 16.3964 18.5044 16.1398 18.6909C15.8831 18.8773 15.5429 18.9019 15.2621 18.7542L10.5 16.2499L5.73788 18.7542C5.45712 18.9019 5.11687 18.8773 4.86023 18.6909C4.60358 18.5044 4.47504 18.1884 4.52866 17.8758L5.4379 12.5745L1.58523 8.82195C1.35804 8.60067 1.27615 8.26963 1.37397 7.96795C1.47178 7.66628 1.73235 7.44627 2.04615 7.40041L7.37145 6.62203L9.75275 1.79779C9.89314 1.51337 10.1828 1.33331 10.5 1.33331ZM10.5 4.04936L8.67226 7.75217C8.55098 7.99787 8.31666 8.16826 8.04553 8.20789L3.95701 8.80548L6.91478 11.6863C7.11134 11.8778 7.20106 12.1537 7.15468 12.4242L6.45682 16.493L10.1121 14.5708C10.3549 14.4431 10.6451 14.4431 10.8879 14.5708L14.5432 16.493L13.8453 12.4242C13.7989 12.1537 13.8887 11.8778 14.0852 11.6863L17.043 8.80548L12.9545 8.20789C12.6834 8.16826 12.449 7.99787 12.3277 7.75217L10.5 4.04936Z" fill="#333333"/>
</svg>
