<svg width="12" height="12" viewBox="0 0 12 12" fill="none" xmlns="http://www.w3.org/2000/svg">
<path fill-rule="evenodd" clip-rule="evenodd" d="M10.0619 2.69946C10.0619 2.47161 9.879 2.28691 9.65343 2.28691L8.01971 2.28691C7.79414 2.28691 7.61127 2.47161 7.61127 2.69946L7.61127 9.30037C7.61127 9.52822 7.79413 9.71293 8.0197 9.71293L9.65343 9.71293C9.879 9.71293 10.0619 9.52822 10.0619 9.30037L10.0619 2.69946ZM9.65343 1.46179C10.3301 1.46179 10.8787 2.01592 10.8787 2.69946L10.8787 9.30037C10.8787 9.98392 10.3301 10.538 9.65343 10.538L8.0197 10.538C7.34299 10.538 6.79441 9.98392 6.79441 9.30037L6.79441 2.69946C6.79441 2.01592 7.34299 1.46179 8.01971 1.46179L9.65343 1.46179Z" fill="white"/>
<path fill-rule="evenodd" clip-rule="evenodd" d="M5.06992 2.69946C5.06992 2.47161 4.88706 2.28691 4.66149 2.28691L3.02776 2.28691C2.80219 2.28691 2.61933 2.47161 2.61933 2.69946L2.61933 9.30037C2.61933 9.52822 2.80219 9.71293 3.02776 9.71293L4.66149 9.71293C4.88706 9.71293 5.06992 9.52822 5.06992 9.30037L5.06992 2.69946ZM4.66149 1.46179C5.3382 1.46179 5.88678 2.01592 5.88678 2.69946L5.88678 9.30037C5.88678 9.98392 5.3382 10.538 4.66149 10.538L3.02776 10.538C2.35105 10.538 1.80247 9.98392 1.80247 9.30037L1.80247 2.69946C1.80247 2.01592 2.35105 1.46179 3.02776 1.46179L4.66149 1.46179Z" fill="white"/>
<path fill-rule="evenodd" clip-rule="evenodd" d="M8.83654 3.27704C8.96186 3.27704 9.06345 3.37812 9.06345 3.50282L9.06345 3.50507C9.06345 3.62977 8.96186 3.73085 8.83654 3.73085C8.71122 3.73085 8.60963 3.62977 8.60963 3.50507L8.60963 3.50282C8.60963 3.37812 8.71122 3.27704 8.83654 3.27704Z" fill="white"/>
<path fill-rule="evenodd" clip-rule="evenodd" d="M3.84463 3.27704C3.96994 3.27704 4.07153 3.37812 4.07153 3.50282L4.07153 3.50507C4.07153 3.62977 3.96994 3.73085 3.84463 3.73085C3.71931 3.73085 3.61772 3.62977 3.61772 3.50507L3.61772 3.50282C3.61772 3.37812 3.71931 3.27704 3.84463 3.27704Z" fill="white"/>
</svg>
