<svg width="12" height="11" viewBox="0 0 12 11" fill="none" xmlns="http://www.w3.org/2000/svg">
<g clip-path="url(#clip0_11_10525)">
<path fill-rule="evenodd" clip-rule="evenodd" d="M2.71651 1.85379C2.59615 1.85379 2.48072 1.9016 2.39562 1.98671C2.31051 2.07182 2.2627 2.18725 2.2627 2.3076V8.473L3.30324 7.43246C3.38835 7.34735 3.50378 7.29954 3.62413 7.29954H9.06988C9.19024 7.29954 9.30567 7.25173 9.39078 7.16662C9.47588 7.08152 9.5237 6.96609 9.5237 6.84573V2.3076C9.5237 2.18725 9.47588 2.07182 9.39078 1.98671C9.30567 1.9016 9.19024 1.85379 9.06988 1.85379H2.71651ZM1.75383 1.34492C2.00915 1.0896 2.35543 0.946167 2.71651 0.946167H9.06988C9.43096 0.946167 9.77725 1.0896 10.0326 1.34492C10.2879 1.60024 10.4313 1.94653 10.4313 2.3076V6.84573C10.4313 7.2068 10.2879 7.55309 10.0326 7.80841C9.77725 8.06373 9.43096 8.20717 9.06988 8.20717H3.81211L2.12978 9.8895C1.99999 10.0193 1.8048 10.0581 1.63522 9.98787C1.46564 9.91763 1.35507 9.75215 1.35507 9.5686V2.3076C1.35507 1.94653 1.49851 1.60024 1.75383 1.34492Z" fill="#5A5A5A"/>
</g>
<defs>
<clipPath id="clip0_11_10525">
<rect width="10.8915" height="10.8915" fill="white" transform="translate(0.447449 0.0385742)"/>
</clipPath>
</defs>
</svg>
