<svg width="12" height="11" viewBox="0 0 12 11" fill="none" xmlns="http://www.w3.org/2000/svg">
<g clip-path="url(#clip0_11_10528)">
<path fill-rule="evenodd" clip-rule="evenodd" d="M3.95988 1.24514C3.73387 1.47114 3.6069 1.77768 3.6069 2.0973L3.6069 7.31436C3.6069 7.84702 3.81851 8.35787 4.19516 8.73452C4.57181 9.11118 5.08266 9.32278 5.61533 9.32278C6.14799 9.32278 6.65884 9.11118 7.03549 8.73452C7.41215 8.35787 7.62375 7.84702 7.62375 7.31436L7.62375 2.0973C7.62375 1.8756 7.80347 1.69588 8.02516 1.69588C8.24686 1.69588 8.42658 1.8756 8.42658 2.0973L8.42658 7.31436C8.42658 8.05995 8.1304 8.775 7.60318 9.30221C7.07597 9.82943 6.36092 10.1256 5.61533 10.1256C4.86973 10.1256 4.15468 9.82943 3.62747 9.30221C3.10026 8.775 2.80407 8.05995 2.80407 7.31436L2.80407 2.0973C2.80407 1.56475 3.01563 1.05402 3.39219 0.677447C3.76876 0.300879 4.2795 0.0893247 4.81205 0.0893241C5.34459 0.0893244 5.85533 0.300879 6.2319 0.677447C6.60847 1.05401 6.82002 1.56475 6.82002 2.0973L6.81718 7.31719C6.81718 7.6367 6.69026 7.94312 6.46434 8.16904C6.23841 8.39497 5.93199 8.52189 5.61249 8.52189C5.29298 8.52189 4.98656 8.39497 4.76064 8.16904C4.53472 7.94312 4.40779 7.6367 4.40779 7.31719L4.41063 2.50012C4.41076 2.27843 4.59059 2.09881 4.81228 2.09894C5.03398 2.09907 5.21359 2.2789 5.21346 2.50059L5.21062 7.31719C5.21069 7.42369 5.25302 7.52605 5.32833 7.60135C5.40369 7.67672 5.50591 7.71906 5.61249 7.71906C5.71907 7.71906 5.82128 7.67672 5.89665 7.60135C5.97201 7.52599 6.01435 7.42378 6.01435 7.31719L6.01719 2.0973C6.01713 1.77776 5.89017 1.47109 5.66421 1.24514C5.4382 1.01913 5.13167 0.892157 4.81205 0.892157C4.49242 0.892158 4.18589 1.01913 3.95988 1.24514Z" fill="#5A5A5A"/>
</g>
<defs>
<clipPath id="clip0_11_10528">
<rect width="10.8915" height="10.8915" fill="white" transform="translate(0.230438 0.0385742)"/>
</clipPath>
</defs>
</svg>
