<svg width="21" height="21" viewBox="0 0 21 21" fill="none" xmlns="http://www.w3.org/2000/svg">
<path fill-rule="evenodd" clip-rule="evenodd" d="M8.83331 10.5C8.83331 9.57951 9.57951 8.83331 10.5 8.83331C11.4205 8.83331 12.1666 9.57951 12.1666 10.5C12.1666 11.4205 11.4205 12.1666 10.5 12.1666C9.57951 12.1666 8.83331 11.4205 8.83331 10.5Z" fill="#333333"/>
<path fill-rule="evenodd" clip-rule="evenodd" d="M8.83331 4.66667C8.83331 3.74619 9.57951 3 10.5 3C11.4205 3 12.1666 3.74619 12.1666 4.66667C12.1666 5.58714 11.4205 6.33333 10.5 6.33333C9.57951 6.33333 8.83331 5.58714 8.83331 4.66667Z" fill="#333333"/>
<path fill-rule="evenodd" clip-rule="evenodd" d="M8.83331 16.3334C8.83331 15.4129 9.57951 14.6667 10.5 14.6667C11.4205 14.6667 12.1666 15.4129 12.1666 16.3334C12.1666 17.2538 11.4205 18 10.5 18C9.57951 18 8.83331 17.2538 8.83331 16.3334Z" fill="#333333"/>
</svg>
