<svg width="12" height="12" viewBox="0 0 12 12" fill="none" xmlns="http://www.w3.org/2000/svg">
<path fill-rule="evenodd" clip-rule="evenodd" d="M1.11061 6.90749C1.11061 6.65685 1.31379 6.45367 1.56442 6.45367H4.74111C4.99174 6.45367 5.19492 6.65685 5.19492 6.90749V10.0842C5.19492 10.3348 4.99174 10.538 4.74111 10.538H1.56442C1.31379 10.538 1.11061 10.3348 1.11061 10.0842V6.90749ZM2.01824 7.3613V9.63036H4.2873V7.3613H2.01824Z" fill="#333333"/>
<path fill-rule="evenodd" clip-rule="evenodd" d="M1.11061 1.9156C1.11061 1.66497 1.31379 1.46179 1.56442 1.46179H4.74111C4.99174 1.46179 5.19492 1.66497 5.19492 1.9156V5.09229C5.19492 5.34293 4.99174 5.5461 4.74111 5.5461H1.56442C1.31379 5.5461 1.11061 5.34293 1.11061 5.09229V1.9156ZM2.01824 2.36942V4.63848H4.2873V2.36942H2.01824Z" fill="#333333"/>
<path fill-rule="evenodd" clip-rule="evenodd" d="M6.10254 2.3694C6.10254 2.11877 6.30572 1.91559 6.55635 1.91559H9.73304C9.98367 1.91559 10.1869 2.11877 10.1869 2.3694C10.1869 2.62003 9.98367 2.82321 9.73304 2.82321H6.55635C6.30572 2.82321 6.10254 2.62003 6.10254 2.3694Z" fill="#333333"/>
<path fill-rule="evenodd" clip-rule="evenodd" d="M6.10254 4.63844C6.10254 4.38781 6.30572 4.18463 6.55635 4.18463H9.73304C9.98367 4.18463 10.1869 4.38781 10.1869 4.63844C10.1869 4.88908 9.98367 5.09226 9.73304 5.09226H6.55635C6.30572 5.09226 6.10254 4.88908 6.10254 4.63844Z" fill="#333333"/>
<path fill-rule="evenodd" clip-rule="evenodd" d="M6.10254 7.36134C6.10254 7.11071 6.30572 6.90753 6.55635 6.90753H9.73304C9.98367 6.90753 10.1869 7.11071 10.1869 7.36134C10.1869 7.61198 9.98367 7.81516 9.73304 7.81516H6.55635C6.30572 7.81516 6.10254 7.61198 6.10254 7.36134Z" fill="#333333"/>
<path fill-rule="evenodd" clip-rule="evenodd" d="M6.10254 9.63039C6.10254 9.37975 6.30572 9.17657 6.55635 9.17657H9.73304C9.98367 9.17657 10.1869 9.37975 10.1869 9.63039C10.1869 9.88102 9.98367 10.0842 9.73304 10.0842H6.55635C6.30572 10.0842 6.10254 9.88102 6.10254 9.63039Z" fill="#333333"/>
</svg>
