<svg width="12" height="12" viewBox="0 0 12 12" fill="none" xmlns="http://www.w3.org/2000/svg">
<g clip-path="url(#clip0_11_9915)">
<path fill-rule="evenodd" clip-rule="evenodd" d="M2.36116 6.45374C2.61179 6.45374 2.81497 6.65691 2.81497 6.90755V10.0842C2.81497 10.3349 2.61179 10.538 2.36116 10.538C2.11053 10.538 1.90735 10.3349 1.90735 10.0842V6.90755C1.90735 6.65691 2.11053 6.45374 2.36116 6.45374Z" fill="#333333"/>
<path fill-rule="evenodd" clip-rule="evenodd" d="M2.36116 1.46185C2.61179 1.46185 2.81497 1.66503 2.81497 1.91567V5.09235C2.81497 5.34299 2.61179 5.54616 2.36116 5.54616C2.11053 5.54616 1.90735 5.34299 1.90735 5.09235V1.91567C1.90735 1.66503 2.11053 1.46185 2.36116 1.46185Z" fill="#333333"/>
<path fill-rule="evenodd" clip-rule="evenodd" d="M5.99165 5.54614C6.24229 5.54614 6.44547 5.74932 6.44547 5.99995V10.0843C6.44547 10.3349 6.24229 10.5381 5.99165 10.5381C5.74102 10.5381 5.53784 10.3349 5.53784 10.0843V5.99995C5.53784 5.74932 5.74102 5.54614 5.99165 5.54614Z" fill="#333333"/>
<path fill-rule="evenodd" clip-rule="evenodd" d="M5.99165 1.46185C6.24229 1.46185 6.44547 1.66503 6.44547 1.91567V4.18473C6.44547 4.43536 6.24229 4.63854 5.99165 4.63854C5.74102 4.63854 5.53784 4.43536 5.53784 4.18473V1.91567C5.53784 1.66503 5.74102 1.46185 5.99165 1.46185Z" fill="#333333"/>
<path fill-rule="evenodd" clip-rule="evenodd" d="M9.62215 7.36139C9.87278 7.36139 10.076 7.56457 10.076 7.8152V10.0843C10.076 10.3349 9.87278 10.5381 9.62215 10.5381C9.37151 10.5381 9.16833 10.3349 9.16833 10.0843V7.8152C9.16833 7.56457 9.37151 7.36139 9.62215 7.36139Z" fill="#333333"/>
<path fill-rule="evenodd" clip-rule="evenodd" d="M9.62215 1.46185C9.87278 1.46185 10.076 1.66503 10.076 1.91567V5.99998C10.076 6.25061 9.87278 6.45379 9.62215 6.45379C9.37151 6.45379 9.16833 6.25061 9.16833 5.99998V1.91567C9.16833 1.66503 9.37151 1.46185 9.62215 1.46185Z" fill="#333333"/>
<path fill-rule="evenodd" clip-rule="evenodd" d="M0.545898 6.90755C0.545898 6.65691 0.749077 6.45374 0.999711 6.45374H3.72259C3.97322 6.45374 4.1764 6.65691 4.1764 6.90755C4.1764 7.15818 3.97322 7.36136 3.72259 7.36136H0.999711C0.749077 7.36136 0.545898 7.15818 0.545898 6.90755Z" fill="#333333"/>
<path fill-rule="evenodd" clip-rule="evenodd" d="M4.17639 4.18471C4.17639 3.93407 4.37957 3.7309 4.6302 3.7309H7.35308C7.60371 3.7309 7.80689 3.93407 7.80689 4.18471C7.80689 4.43534 7.60371 4.63852 7.35308 4.63852H4.6302C4.37957 4.63852 4.17639 4.43534 4.17639 4.18471Z" fill="#333333"/>
<path fill-rule="evenodd" clip-rule="evenodd" d="M7.80688 7.8152C7.80688 7.56457 8.01006 7.36139 8.2607 7.36139H10.9836C11.2342 7.36139 11.4374 7.56457 11.4374 7.8152C11.4374 8.06584 11.2342 8.26901 10.9836 8.26901H8.2607C8.01006 8.26901 7.80688 8.06584 7.80688 7.8152Z" fill="#333333"/>
</g>
<defs>
<clipPath id="clip0_11_9915">
<rect width="10.8915" height="10.8915" fill="white" transform="translate(0.545898 0.554199)"/>
</clipPath>
</defs>
</svg>
