<svg width="27" height="27" viewBox="0 0 27 27" fill="none" xmlns="http://www.w3.org/2000/svg">
<rect x="0.823727" y="0.686032" width="25.4739" height="25.4739" rx="12.737" fill="#ECEEFF"/>
<rect x="0.823727" y="0.686032" width="25.4739" height="25.4739" rx="12.737" stroke="#EFA510" stroke-width="0.878411" stroke-dasharray="2.64 2.64"/>
<path fill-rule="evenodd" clip-rule="evenodd" d="M13.5607 8.15253C13.9245 8.15253 14.2195 8.44749 14.2195 8.81134V18.0347C14.2195 18.3985 13.9245 18.6935 13.5607 18.6935C13.1968 18.6935 12.9019 18.3985 12.9019 18.0347V8.81134C12.9019 8.44749 13.1968 8.15253 13.5607 8.15253Z" fill="#EFA510"/>
<path fill-rule="evenodd" clip-rule="evenodd" d="M8.29028 13.423C8.29028 13.0591 8.58524 12.7642 8.94909 12.7642H18.1724C18.5363 12.7642 18.8312 13.0591 18.8312 13.423C18.8312 13.7868 18.5363 14.0818 18.1724 14.0818H8.94909C8.58524 14.0818 8.29028 13.7868 8.29028 13.423Z" fill="#EFA510"/>
</svg>
