<svg width="41" height="49" viewBox="0 0 41 49" fill="none" xmlns="http://www.w3.org/2000/svg">
<g opacity="0.3">
<path opacity="0.3" d="M28.434 10.6177C27.3404 10.6161 26.2921 10.1808 25.5189 9.40735C24.7458 8.6339 24.3111 7.58539 24.31 6.49183V0.768066H5.88198C4.45459 0.768066 3.08569 1.33506 2.07637 2.34434C1.06705 3.35362 0.5 4.72251 0.5 6.14985V38.5925C0.5 40.0198 1.06705 41.3887 2.07637 42.398C3.08569 43.4072 4.45459 43.9743 5.88198 43.9743H28.002C28.7089 43.9745 29.409 43.8355 30.0622 43.5652C30.7154 43.2948 31.309 42.8984 31.8089 42.3987C32.3089 41.8989 32.7055 41.3055 32.9761 40.6525C33.2467 39.9994 33.386 39.2994 33.386 38.5925V10.6177H28.434Z" fill="#FF9908"/>
</g>
<path d="M33.3858 10.6176H28.4338C27.3402 10.616 26.2919 10.1807 25.5188 9.40723C24.7456 8.63374 24.3109 7.58519 24.3098 6.49158V0.767578L33.3858 10.6176Z" fill="#FF9908"/>
<path d="M37.2878 34.8882H12.2798C10.5059 34.8882 9.06787 36.3262 9.06787 38.1V45.5557C9.06787 47.3296 10.5059 48.7676 12.2798 48.7676H37.2878C39.0618 48.7676 40.4999 47.3296 40.4999 45.5557V38.1C40.4999 36.3262 39.0618 34.8882 37.2878 34.8882Z" fill="#FF9908"/>
<path d="M21.2577 43.4424V44.8964H19.7517V43.4424H21.2577Z" fill="white"/>
<path d="M25.742 43.7978H23.486L23.1121 44.8958H21.582L23.782 38.9238H25.4581L27.6581 44.8958H26.1101L25.742 43.7978ZM25.3661 42.6918L24.6181 40.4798L23.8621 42.6918H25.3661Z" fill="white"/>
<path d="M29.6796 38.8818V44.8958H28.2256V38.8818H29.6796Z" fill="white"/>
<path d="M15.714 23.5836C15.7033 23.4966 15.7127 23.4082 15.7415 23.3253C15.7702 23.2425 15.8176 23.1673 15.8799 23.1056C15.9345 23.0509 15.9994 23.0076 16.0708 22.978C16.1422 22.9484 16.2187 22.9332 16.2959 22.9332C16.3732 22.9332 16.4497 22.9484 16.5211 22.978C16.5925 23.0076 16.6574 23.0509 16.712 23.1056C16.7666 23.1602 16.81 23.2251 16.8396 23.2965C16.8691 23.3678 16.8844 23.4444 16.8844 23.5216C16.8844 23.5989 16.8691 23.6754 16.8396 23.7468C16.81 23.8182 16.7666 23.883 16.712 23.9376C16.6503 24 16.5751 24.0474 16.4922 24.0761C16.4094 24.1049 16.321 24.1143 16.2339 24.1036L9.40195 30.9356L19.602 25.9356C19.602 25.9356 20.7479 21.6676 22.0479 20.3656L19.4479 17.7656C18.1459 19.0656 13.8779 20.2116 13.8779 20.2116L8.87793 30.4116L15.714 23.5836Z" fill="#FF9908"/>
<path d="M25.0033 18.8481L20.9685 14.8135L18.99 16.7919L23.0248 20.8266L25.0033 18.8481Z" fill="#FF9908"/>
</svg>
