<svg width="23" height="22" viewBox="0 0 23 22" fill="none" xmlns="http://www.w3.org/2000/svg">
<path fill-rule="evenodd" clip-rule="evenodd" d="M1.5 20.75C1.5 20.3358 1.83579 20 2.25 20H20.25C20.6642 20 21 20.3358 21 20.75C21 21.1642 20.6642 21.5 20.25 21.5H2.25C1.83579 21.5 1.5 21.1642 1.5 20.75Z" fill="white"/>
<path fill-rule="evenodd" clip-rule="evenodd" d="M1.5 8.13086C1.5 7.16665 2.28579 6.38086 3.25 6.38086H4.84998C5.81419 6.38086 6.59998 7.16665 6.59998 8.13086V16.7509C6.59998 17.7151 5.81419 18.5009 4.84998 18.5009H3.25C2.28579 18.5009 1.5 17.7151 1.5 16.7509V8.13086ZM3.25 7.88086C3.11421 7.88086 3 7.99507 3 8.13086V16.7509C3 16.8866 3.11421 17.0009 3.25 17.0009H4.84998C4.98576 17.0009 5.09998 16.8866 5.09998 16.7509V8.13086C5.09998 7.99507 4.98576 7.88086 4.84998 7.88086H3.25Z" fill="white"/>
<path fill-rule="evenodd" clip-rule="evenodd" d="M8.69922 4.93945C8.69922 3.97524 9.48501 3.18945 10.4492 3.18945H12.0492C13.0134 3.18945 13.7992 3.97524 13.7992 4.93945V16.7495C13.7992 17.7137 13.0134 18.4995 12.0492 18.4995H10.4492C9.48501 18.4995 8.69922 17.7137 8.69922 16.7495V4.93945ZM10.4492 4.68945C10.3134 4.68945 10.1992 4.80367 10.1992 4.93945V16.7495C10.1992 16.8852 10.3134 16.9995 10.4492 16.9995H12.0492C12.185 16.9995 12.2992 16.8852 12.2992 16.7495V4.93945C12.2992 4.80367 12.185 4.68945 12.0492 4.68945H10.4492Z" fill="white"/>
<path fill-rule="evenodd" clip-rule="evenodd" d="M15.8984 1.75C15.8984 0.785786 16.6842 0 17.6484 0H19.2484C20.2126 0 20.9984 0.785786 20.9984 1.75V16.75C20.9984 17.7142 20.2126 18.5 19.2484 18.5H17.6484C16.6842 18.5 15.8984 17.7142 15.8984 16.75V1.75ZM17.6484 1.5C17.5127 1.5 17.3984 1.61421 17.3984 1.75V16.75C17.3984 16.8858 17.5127 17 17.6484 17H19.2484C19.3842 17 19.4984 16.8858 19.4984 16.75V1.75C19.4984 1.61421 19.3842 1.5 19.2484 1.5H17.6484Z" fill="white"/>
</svg>
