<svg width="18" height="18" viewBox="0 0 18 18" fill="none" xmlns="http://www.w3.org/2000/svg">
<path d="M14.2983 0.624502C14.162 0.617134 14.0247 0.637758 13.892 0.686175L13.6939 0.752782L0.789338 5.30838C0.595668 5.37575 0.435942 5.49807 0.322266 5.64964H3.62713L12.9234 2.36533C13.1086 2.88319 13.5928 3.20738 14.1149 3.20738C14.2538 3.20738 14.397 3.18636 14.5359 3.13584L15.424 5.64964H16.7627L15.3064 1.52329L15.2349 1.32593C15.1422 1.06069 14.9523 0.85021 14.6954 0.728113C14.5691 0.667065 14.4346 0.63187 14.2983 0.624502ZM13.0335 4.85282C12.9239 4.84618 12.811 4.86157 12.7005 4.90052C12.3721 5.0184 12.1615 5.32124 12.1446 5.64964H13.8197C13.8197 5.56965 13.8072 5.49363 13.7777 5.41364C13.6609 5.08524 13.3623 4.87276 13.0335 4.85282ZM8.68763 4.87091C8.47291 4.87091 8.25428 4.90871 8.04376 4.98028C7.67326 5.1108 7.36154 5.34651 7.1384 5.64964H10.3216C9.90054 5.15705 9.29812 4.87091 8.68763 4.87091ZM1.69881 6.91271C1.1178 6.91271 0.646256 7.38426 0.646256 7.96527V14.7016C0.646256 15.2827 1.1178 15.7542 1.69881 15.7542H10.435C10.1908 15.3879 9.97994 14.9669 9.81995 14.4911H3.17239C3.17239 13.7935 2.60696 13.2281 1.90933 13.2281V9.43885C2.60696 9.43885 3.17239 8.87342 3.17239 8.17578H12.1989C12.5231 8.00316 12.8473 7.75884 13.1084 7.40939C13.3399 7.09783 13.719 6.91271 14.119 6.91271H1.69881ZM14.119 7.75476C13.9903 7.75476 13.8612 7.80819 13.7818 7.91429C12.6657 9.40218 10.7685 9.42981 10.7508 9.42981C10.5184 9.42981 10.3298 9.61842 10.3298 9.85083V12.386C10.3298 16.4569 13.9804 17.4167 14.017 17.426C14.0507 17.4344 14.0845 17.4383 14.119 17.4383C14.1535 17.4383 14.1873 17.4344 14.221 17.426C14.2576 17.4167 17.9082 16.4569 17.9082 12.386V9.85083C17.9082 9.61927 17.7204 9.43107 17.4888 9.42981C17.4699 9.42981 15.5723 9.40218 14.4561 7.91429C14.3768 7.80819 14.2477 7.75476 14.119 7.75476ZM8.64569 9.01783C7.48367 9.01783 6.54058 10.0535 6.54058 11.3335C6.54058 12.6134 7.48367 13.6491 8.64569 13.6491C8.97409 13.6491 9.28552 13.5646 9.56339 13.4131C9.51287 13.0931 9.48774 12.7481 9.48774 12.386V11.3335C9.48774 11.9018 9.1004 12.386 8.64569 12.386C8.19099 12.386 7.80365 11.9018 7.80365 11.3335C7.80365 10.7651 8.19099 10.2809 8.64569 10.2809C9.1004 10.2809 9.48774 10.7651 9.48774 11.3335V9.85165C9.48774 9.64956 9.5384 9.45595 9.6226 9.28755C9.33209 9.11493 8.99935 9.01783 8.64569 9.01783ZM4.22495 10.4914C4.00163 10.4914 3.78745 10.5801 3.62954 10.738C3.47162 10.896 3.38291 11.1101 3.38291 11.3335C3.38291 11.5568 3.47162 11.771 3.62954 11.9289C3.78745 12.0868 4.00163 12.1755 4.22495 12.1755C4.44828 12.1755 4.66245 12.0868 4.82037 11.9289C4.97828 11.771 5.067 11.5568 5.067 11.3335C5.067 11.1101 4.97828 10.896 4.82037 10.738C4.66245 10.5801 4.44828 10.4914 4.22495 10.4914Z" fill="#5A5A5A"/>
</svg>
