<svg width="20" height="20" viewBox="0 0 20 20" fill="none" xmlns="http://www.w3.org/2000/svg">
<path fill-rule="evenodd" clip-rule="evenodd" d="M6.73868 13.5199C4.82477 12.4128 3.53711 10.3435 3.53711 7.97346C3.53711 4.4371 6.40389 1.57031 9.94025 1.57031C13.4766 1.57031 16.3434 4.4371 16.3434 7.97346C16.3434 10.3435 15.0557 12.4128 13.1418 13.5199V13.5761C13.1418 15.3444 11.7084 16.7777 9.94025 16.7777C8.17207 16.7777 6.73868 15.3444 6.73868 13.5761V13.5199ZM14.7426 7.97814C14.7426 9.40044 14.1243 10.6783 13.1418 11.5577L11.541 11.5569V13.5808C11.541 14.4649 10.8242 15.1816 9.94021 15.1816C9.0561 15.1816 8.33943 14.4649 8.33943 13.5809V11.5569L6.73864 11.5577C5.75616 10.6783 5.13786 9.40044 5.13786 7.97814C5.13786 5.32587 7.28794 3.17578 9.94021 3.17578C12.5925 3.17578 14.7426 5.32587 14.7426 7.97814ZM8.33947 17.5781V17.5832C8.33947 18.4674 9.05614 19.184 9.94026 19.184C10.8244 19.184 11.541 18.4674 11.541 17.5832V17.5781C11.0702 17.8505 10.5234 18.0064 9.94026 18.0064C9.35709 18.0064 8.81034 17.8505 8.33947 17.5781Z" fill="#FFC50C"/>
</svg>
