<svg width="17" height="17" viewBox="0 0 17 17" fill="none" xmlns="http://www.w3.org/2000/svg">
<path opacity="0.4" d="M11.4177 1.82257H13.7523C14.7191 1.82257 15.5026 2.61261 15.5026 3.58762V5.94189C15.5026 6.9169 14.7191 7.70694 13.7523 7.70694H11.4177C10.4509 7.70694 9.66748 6.9169 9.66748 5.94189V3.58762C9.66748 2.61261 10.4509 1.82257 11.4177 1.82257Z" fill="#56555C"/>
<path d="M5.79772 9.72783C6.76455 9.72783 7.54798 10.5179 7.54798 11.4929V13.8471C7.54798 14.8215 6.76455 15.6122 5.79772 15.6122H3.46316C2.49632 15.6122 1.71289 14.8215 1.71289 13.8471V11.4929C1.71289 10.5179 2.49632 9.72783 3.46316 9.72783H5.79772ZM13.7522 9.72783C14.7191 9.72783 15.5025 10.5179 15.5025 11.4929V13.8471C15.5025 14.8215 14.7191 15.6122 13.7522 15.6122H11.4177C10.4509 15.6122 9.66743 14.8215 9.66743 13.8471V11.4929C9.66743 10.5179 10.4509 9.72783 11.4177 9.72783H13.7522ZM5.79772 1.82257C6.76455 1.82257 7.54798 2.61261 7.54798 3.58762V5.94189C7.54798 6.9169 6.76455 7.70694 5.79772 7.70694H3.46316C2.49632 7.70694 1.71289 6.9169 1.71289 5.94189V3.58762C1.71289 2.61261 2.49632 1.82257 3.46316 1.82257H5.79772Z" fill="#56555C"/>
</svg>
