<svg width="14" height="15" viewBox="0 0 14 15" fill="none" xmlns="http://www.w3.org/2000/svg">
<path opacity="0.4" d="M9.8705 0.244781H12.2051C13.1719 0.244781 13.9553 1.03482 13.9553 2.00983V4.3641C13.9553 5.33911 13.1719 6.12915 12.2051 6.12915H9.8705C8.90367 6.12915 8.12024 5.33911 8.12024 4.3641V2.00983C8.12024 1.03482 8.90367 0.244781 9.8705 0.244781Z" fill="#56555C"/>
<path d="M4.2506 8.15004C5.21743 8.15004 6.00086 8.94008 6.00086 9.91508V12.2694C6.00086 13.2437 5.21743 14.0344 4.2506 14.0344H1.91604C0.949198 14.0344 0.165771 13.2437 0.165771 12.2694V9.91508C0.165771 8.94008 0.949198 8.15004 1.91604 8.15004H4.2506ZM12.2051 8.15004C13.172 8.15004 13.9554 8.94008 13.9554 9.91508V12.2694C13.9554 13.2437 13.172 14.0344 12.2051 14.0344H9.87057C8.90373 14.0344 8.12031 13.2437 8.12031 12.2694V9.91508C8.12031 8.94008 8.90373 8.15004 9.87057 8.15004H12.2051ZM4.2506 0.244781C5.21743 0.244781 6.00086 1.03482 6.00086 2.00983V4.3641C6.00086 5.33911 5.21743 6.12915 4.2506 6.12915H1.91604C0.949198 6.12915 0.165771 5.33911 0.165771 4.3641V2.00983C0.165771 1.03482 0.949198 0.244781 1.91604 0.244781H4.2506Z" fill="#56555C"/>
</svg>
