<svg width="23" height="22" viewBox="0 0 23 22" fill="none" xmlns="http://www.w3.org/2000/svg">
<path fill-rule="evenodd" clip-rule="evenodd" d="M11.5007 2.52051C6.82035 2.52051 3.02148 6.31937 3.02148 10.9997C3.02148 15.68 6.82035 19.4788 11.5007 19.4788C16.181 19.4788 19.9798 15.68 19.9798 10.9997C19.9798 6.31937 16.181 2.52051 11.5007 2.52051ZM1.64648 10.9997C1.64648 5.55998 6.06096 1.14551 11.5007 1.14551C16.9403 1.14551 21.3548 5.55998 21.3548 10.9997C21.3548 16.4394 16.9403 20.8538 11.5007 20.8538C6.06096 20.8538 1.64648 16.4394 1.64648 10.9997Z" fill="#F1F1F1"/>
<path fill-rule="evenodd" clip-rule="evenodd" d="M11.1621 6.19629C11.5418 6.19629 11.8496 6.50409 11.8496 6.88379V10.6421C11.8496 10.7829 11.9034 10.9869 12.0229 11.1964C12.1424 11.406 12.2905 11.556 12.4109 11.6273L12.4128 11.6284L12.4128 11.6284L15.2544 13.3243C15.5805 13.5188 15.6871 13.9409 15.4925 14.2669C15.2979 14.593 14.8758 14.6996 14.5498 14.505L11.71 12.8102C11.7096 12.8101 11.7093 12.8099 11.709 12.8097C11.3348 12.5877 11.0341 12.2383 10.8284 11.8776C10.6225 11.5165 10.4746 11.0789 10.4746 10.6421V6.88379C10.4746 6.50409 10.7824 6.19629 11.1621 6.19629Z" fill="#F1F1F1"/>
</svg>
