<svg width="9" height="9" viewBox="0 0 9 9" fill="none" xmlns="http://www.w3.org/2000/svg">
<path d="M0.388184 4.67058C0.388184 3.85168 0.631009 3.05117 1.08597 2.37028C1.54092 1.68939 2.18758 1.15871 2.94414 0.845326C3.7007 0.531947 4.5332 0.44995 5.33637 0.60971C6.13953 0.769469 6.87729 1.1638 7.45634 1.74285C8.03539 2.3219 8.42972 3.05966 8.58948 3.86282C8.74924 4.66599 8.66724 5.49849 8.35387 6.25505C8.04049 7.01162 7.5098 7.65827 6.82891 8.11323C6.14802 8.56818 5.34751 8.81101 4.52861 8.81101C3.4305 8.81101 2.37737 8.37479 1.60089 7.5983C0.824407 6.82182 0.388184 5.76869 0.388184 4.67058ZM1.14077 4.67058C1.14077 5.34054 1.33943 5.99545 1.71163 6.55249C2.08384 7.10954 2.61289 7.54371 3.23184 7.80009C3.8508 8.05647 4.53188 8.12355 5.18896 7.99285C5.84605 7.86214 6.44962 7.53953 6.92335 7.0658C7.39708 6.59207 7.71969 5.9885 7.85039 5.33142C7.98109 4.67434 7.91401 3.99325 7.65763 3.37429C7.40125 2.75533 6.96708 2.2263 6.41004 1.85409C5.85299 1.48188 5.19808 1.28322 4.52812 1.28322C3.62982 1.28335 2.76837 1.64029 2.13322 2.27553C1.49807 2.91076 1.14125 3.77228 1.14125 4.67058H1.14077ZM5.39128 6.06614L4.26217 4.93703C4.19152 4.86653 4.15175 4.77087 4.1516 4.67107V2.41282C4.1516 2.31296 4.19125 2.2172 4.26187 2.14658C4.33248 2.07597 4.42826 2.0363 4.52812 2.0363C4.62799 2.0363 4.72376 2.07597 4.79438 2.14658C4.86499 2.2172 4.90466 2.31296 4.90466 2.41282V4.5147L5.9237 5.53374C5.99216 5.60478 6.02999 5.69985 6.02908 5.79851C6.02817 5.89716 5.98857 5.99151 5.91881 6.06127C5.84905 6.13103 5.7547 6.17063 5.65605 6.17154C5.5574 6.17245 5.46232 6.1346 5.39128 6.06614Z" fill="#809FB8"/>
</svg>
