<svg width="24" height="25" viewBox="0 0 24 25" fill="none" xmlns="http://www.w3.org/2000/svg">
<path fill-rule="evenodd" clip-rule="evenodd" d="M13.4142 12.2502L17.7072 7.95725C18.0982 7.56625 18.0982 6.93425 17.7072 6.54325C17.3162 6.15225 16.6842 6.15225 16.2933 6.54325L12.0002 10.8362L7.70725 6.54325C7.31625 6.15225 6.68425 6.15225 6.29325 6.54325C5.90225 6.93425 5.90225 7.56625 6.29325 7.95725L10.5862 12.2502L6.29325 16.5433C5.90225 16.9342 5.90225 17.5662 6.29325 17.9572C6.48825 18.1522 6.74425 18.2502 7.00025 18.2502C7.25625 18.2502 7.51225 18.1522 7.70725 17.9572L12.0002 13.6642L16.2933 17.9572C16.4882 18.1522 16.7443 18.2502 17.0002 18.2502C17.2562 18.2502 17.5122 18.1522 17.7072 17.9572C18.0982 17.5662 18.0982 16.9342 17.7072 16.5433L13.4142 12.2502Z" fill="#18203A"/>
<mask id="mask0_468_53495" style="mask-type:alpha" maskUnits="userSpaceOnUse" x="6" y="6" width="13" height="13">
<path fill-rule="evenodd" clip-rule="evenodd" d="M13.4142 12.2502L17.7072 7.95725C18.0982 7.56625 18.0982 6.93425 17.7072 6.54325C17.3162 6.15225 16.6842 6.15225 16.2933 6.54325L12.0002 10.8362L7.70725 6.54325C7.31625 6.15225 6.68425 6.15225 6.29325 6.54325C5.90225 6.93425 5.90225 7.56625 6.29325 7.95725L10.5862 12.2502L6.29325 16.5433C5.90225 16.9342 5.90225 17.5662 6.29325 17.9572C6.48825 18.1522 6.74425 18.2502 7.00025 18.2502C7.25625 18.2502 7.51225 18.1522 7.70725 17.9572L12.0002 13.6642L16.2933 17.9572C16.4882 18.1522 16.7443 18.2502 17.0002 18.2502C17.2562 18.2502 17.5122 18.1522 17.7072 17.9572C18.0982 17.5662 18.0982 16.9342 17.7072 16.5433L13.4142 12.2502Z" fill="white"/>
</mask>
<g mask="url(#mask0_468_53495)">
</g>
</svg>
