<svg width="18" height="18" viewBox="0 0 18 18" fill="none" xmlns="http://www.w3.org/2000/svg">
<path d="M2.98696 0.0908203C1.39599 0.0908203 0.0917969 1.39501 0.0917969 2.98599V10.1125V12.7633C0.0917969 13.6481 1.17507 14.199 1.89084 13.6793L3.69684 12.3657C3.92304 13.7382 5.11473 14.7894 6.55024 14.7894H12.1231L16.1092 17.688C16.3074 17.8319 16.5399 17.9055 16.7747 17.9055C16.9502 17.9055 17.1267 17.8644 17.2897 17.7811C17.6714 17.5869 17.9082 17.2 17.9082 16.772V6.99468C17.9082 5.39833 16.6094 4.09951 15.013 4.09951H14.3449V2.98599C14.3449 1.39501 13.0407 0.0908203 11.4498 0.0908203H2.98696ZM2.98696 1.42705H11.4498C12.3183 1.42705 13.0087 2.11741 13.0087 2.98599V7.8855C13.0087 8.75408 12.3183 9.44443 11.4498 9.44443H5.65942C5.51813 9.44441 5.38046 9.48919 5.26621 9.57232L1.42803 12.364V10.1125V2.98599C1.42803 2.11741 2.11839 1.42705 2.98696 1.42705ZM4.32319 3.20869C4.23466 3.20744 4.14676 3.2238 4.0646 3.25681C3.98245 3.28982 3.90767 3.33884 3.84462 3.401C3.78157 3.46317 3.73151 3.53724 3.69733 3.61892C3.66316 3.70061 3.64556 3.78826 3.64556 3.87681C3.64556 3.96535 3.66316 4.05301 3.69733 4.13469C3.73151 4.21637 3.78157 4.29045 3.84462 4.35261C3.90767 4.41478 3.98245 4.46379 4.0646 4.4968C4.14676 4.52982 4.23466 4.54617 4.32319 4.54492H10.1135C10.2021 4.54617 10.29 4.52982 10.3721 4.4968C10.4543 4.46379 10.529 4.41478 10.5921 4.35261C10.6551 4.29045 10.7052 4.21637 10.7394 4.13469C10.7736 4.05301 10.7912 3.96535 10.7912 3.87681C10.7912 3.78826 10.7736 3.70061 10.7394 3.61892C10.7052 3.53724 10.6551 3.46317 10.5921 3.401C10.529 3.33884 10.4543 3.28982 10.3721 3.25681C10.29 3.2238 10.2021 3.20744 10.1135 3.20869H4.32319ZM14.3449 5.43574H15.013C15.8727 5.43574 16.572 6.13504 16.572 6.99468V16.3727L12.7338 13.581C12.6198 13.4982 12.4818 13.4531 12.3406 13.4531H6.55024C5.6906 13.4531 4.99131 12.7538 4.99131 11.8942V11.4244L5.87691 10.7807H11.4498C13.0407 10.7807 14.3449 9.47648 14.3449 7.8855V5.43574ZM4.32319 6.32656C4.23466 6.32531 4.14676 6.34167 4.0646 6.37468C3.98245 6.4077 3.90767 6.45671 3.84462 6.51887C3.78157 6.58104 3.73151 6.65511 3.69733 6.73679C3.66316 6.81848 3.64556 6.90614 3.64556 6.99468C3.64556 7.08322 3.66316 7.17088 3.69733 7.25256C3.73151 7.33424 3.78157 7.40832 3.84462 7.47048C3.90767 7.53265 3.98245 7.58166 4.0646 7.61467C4.14676 7.64769 4.23466 7.66405 4.32319 7.66279H8.7773C8.86583 7.66405 8.95373 7.64769 9.03588 7.61467C9.11804 7.58166 9.19282 7.53265 9.25587 7.47048C9.31892 7.40832 9.36898 7.33424 9.40316 7.25256C9.43733 7.17088 9.45493 7.08322 9.45493 6.99468C9.45493 6.90614 9.43733 6.81848 9.40316 6.73679C9.36898 6.65511 9.31892 6.58104 9.25587 6.51887C9.19282 6.45671 9.11804 6.4077 9.03588 6.37468C8.95373 6.34167 8.86583 6.32531 8.7773 6.32656H4.32319Z" fill="#5A5A5A"/>
</svg>
