<svg width="41" height="49" viewBox="0 0 41 49" fill="none" xmlns="http://www.w3.org/2000/svg">
<g opacity="0.3">
<path opacity="0.3" d="M28.4341 10.6171C27.3406 10.6161 26.2923 10.1812 25.5191 9.40811C24.7459 8.63497 24.3111 7.58668 24.31 6.4933V0.767578H5.88201C4.45461 0.767578 3.08568 1.3346 2.07635 2.34387C1.06703 3.35315 0.5 4.72199 0.5 6.14932V38.5919C0.50212 40.0178 1.07009 41.3846 2.07918 42.3922C3.08827 43.3997 4.456 43.9656 5.88201 43.9656H28.0021C28.709 43.9659 29.4091 43.8269 30.0623 43.5566C30.7155 43.2862 31.309 42.8898 31.809 42.3901C32.309 41.8903 32.7056 41.2969 32.9762 40.6439C33.2468 39.9908 33.3861 39.2908 33.3861 38.5839V10.6091L28.4341 10.6171Z" fill="#00C650"/>
</g>
<path d="M33.3861 10.6181H28.4341C27.3406 10.6171 26.2923 10.1822 25.5191 9.40908C24.746 8.63595 24.3111 7.58765 24.3101 6.49427V0.768555L33.3861 10.6181Z" fill="#00C650"/>
<path d="M37.2879 34.8882H12.2799C10.5059 34.8882 9.06787 36.3262 9.06787 38.1V45.5557C9.06787 47.3296 10.5059 48.7676 12.2799 48.7676H37.2879C39.0619 48.7676 40.4999 47.3296 40.4999 45.5557V38.1C40.4999 36.3262 39.0619 34.8882 37.2879 34.8882Z" fill="#00C650"/>
<path d="M16.5979 43.3896V44.8396H15.0999V43.3896H16.5979Z" fill="white"/>
<path d="M21.9798 39.3939C22.486 39.8035 22.8298 40.3799 22.9498 41.0198H21.4178C21.3157 40.7543 21.135 40.5261 20.8998 40.3659C20.6525 40.2037 20.3616 40.1207 20.0658 40.1279C19.8709 40.122 19.6772 40.1609 19.4996 40.2417C19.3221 40.3225 19.1655 40.443 19.0418 40.5938C18.767 40.9491 18.6286 41.3912 18.6518 41.8398C18.6285 42.2866 18.7669 42.7268 19.0418 43.0798C19.166 43.2298 19.3228 43.3494 19.5003 43.4295C19.6778 43.5096 19.8712 43.5479 20.0658 43.5417C20.3616 43.5489 20.6525 43.4659 20.8998 43.3037C21.1349 43.1467 21.3168 42.9222 21.4218 42.6598H22.9538C22.8313 43.2976 22.4879 43.8719 21.9838 44.2817C21.4431 44.6974 20.7734 44.9098 20.0918 44.8817C19.5551 44.8934 19.0251 44.7601 18.5578 44.4957C18.12 44.2425 17.7656 43.8672 17.5378 43.4157C17.2913 42.9254 17.1678 42.3825 17.1778 41.8338C17.1675 41.2845 17.2911 40.7408 17.5378 40.2499C17.7656 39.7983 18.12 39.4231 18.5578 39.1699C19.0251 38.9055 19.5551 38.7722 20.0918 38.784C20.7731 38.7605 21.4411 38.9763 21.9798 39.3939Z" fill="white"/>
<path d="M27.8261 44.0262C27.6537 44.3013 27.4068 44.5218 27.1141 44.6622C26.7578 44.8289 26.3673 44.9098 25.9741 44.8981C25.3819 44.9221 24.7983 44.7499 24.3141 44.4082C24.1002 44.2474 23.9252 44.0407 23.802 43.8032C23.6787 43.5658 23.6104 43.3037 23.6021 43.0363H25.1441C25.1548 43.2378 25.2412 43.4278 25.3861 43.5682C25.5294 43.7024 25.7199 43.7743 25.9161 43.7682C26.0769 43.7764 26.2346 43.7219 26.3561 43.6162C26.4088 43.5641 26.4502 43.5017 26.4777 43.4329C26.5052 43.3641 26.5183 43.2903 26.5161 43.2162C26.518 43.1462 26.5058 43.0766 26.4804 43.0113C26.455 42.9461 26.4168 42.8866 26.3681 42.8363C26.263 42.7296 26.138 42.6446 26.0001 42.5863C25.8521 42.5203 25.6501 42.4423 25.3901 42.3523C25.0727 42.2479 24.7627 42.1223 24.4621 41.9763C24.2151 41.8486 24.003 41.6626 23.8441 41.4343C23.6614 41.1574 23.571 40.8298 23.5861 40.4983C23.5779 40.1698 23.6723 39.8469 23.8561 39.5744C24.0451 39.3082 24.3049 39.1004 24.6061 38.9744C24.9546 38.8334 25.3283 38.7654 25.7041 38.7744C26.2723 38.7444 26.8334 38.9118 27.2921 39.2484C27.4879 39.4071 27.6482 39.6052 27.7626 39.8299C27.877 40.0545 27.9429 40.3006 27.9561 40.5523H26.3901C26.3708 40.3764 26.295 40.2116 26.1741 40.0824C26.1116 40.0232 26.0377 39.9772 25.9569 39.9473C25.8761 39.9174 25.7901 39.9042 25.7041 39.9084C25.5546 39.9007 25.4077 39.9492 25.2921 40.0444C25.238 40.0953 25.196 40.1576 25.169 40.2268C25.142 40.296 25.1308 40.3703 25.1361 40.4443C25.1344 40.5106 25.1459 40.5766 25.1699 40.6384C25.194 40.7002 25.2301 40.7566 25.2761 40.8043C25.3752 40.9087 25.4951 40.9911 25.6281 41.0463C25.7681 41.1083 25.9721 41.1883 26.2281 41.2843C26.5514 41.3883 26.8663 41.5167 27.1701 41.6683C27.4193 41.8023 27.6336 41.9927 27.7961 42.2243C27.9816 42.5046 28.0733 42.8365 28.0581 43.1722C28.0596 43.4727 27.9794 43.7678 27.8261 44.0262Z" fill="white"/>
<path d="M29.9882 38.8525L31.4542 43.3583L32.9202 38.8525H34.4702L32.3862 44.8403H30.5142L28.4382 38.8525H29.9882Z" fill="white"/>
<path d="M24.2782 30.9267H9.60816C8.33815 30.9267 7.30615 29.6627 7.30615 28.1068V17.4693C7.30615 15.9153 8.33815 14.6514 9.60816 14.6514H24.2782C25.5482 14.6514 26.5802 15.9153 26.5802 17.4693V28.1068C26.5802 29.6627 25.5482 30.9267 24.2782 30.9267ZM9.60816 16.0913C8.98815 16.0913 8.48216 16.7093 8.48216 17.4693V28.1068C8.48216 28.8667 8.98815 29.4847 9.60816 29.4847H24.2782C24.8982 29.4847 25.4022 28.8667 25.4022 28.1068V17.4693C25.4022 16.7093 24.8982 16.0913 24.2782 16.0913H9.60816Z" fill="#00C650"/>
<path d="M25.9923 24.521H7.89429V25.9629H25.9923V24.521Z" fill="#00C650"/>
<path d="M25.9923 19.5771H7.89429V21.0191H25.9923V19.5771Z" fill="#00C650"/>
<path d="M21.358 15.3716H19.916V30.2049H21.358V15.3716Z" fill="#00C650"/>
<path d="M13.9698 15.3716H12.5278V30.2049H13.9698V15.3716Z" fill="#00C650"/>
</svg>
