<svg width="65" height="65" viewBox="0 0 65 65" fill="none" xmlns="http://www.w3.org/2000/svg">
<g clip-path="url(#clip0_559_47061)">
<path d="M29.2891 0.4375C14.5703 0.4375 4.28906 9.48438 4.28906 22.4375C4.28906 29.6328 6.02734 36.9922 9.3125 43.7188C9.875 44.875 10.1016 46.1758 9.96484 47.4727L8.52734 61.125C8.4375 61.9688 8.71484 62.8125 9.28125 63.4453C9.84766 64.0781 10.6641 64.4375 11.5117 64.4375H38.0078C38.8711 64.4375 39.6953 64.0625 40.2617 63.4141C40.832 62.7656 41.0938 61.9023 40.9805 61.0469L40.4492 57.0156L45.8359 57.6172H45.8398L48.7383 57.9375C50.1445 58.0938 51.5664 57.6445 52.625 56.6953C53.6836 55.7461 54.2891 54.3906 54.2891 52.9688V43.8945C54.2891 43.3828 54.6719 42.957 55.1797 42.9023L58.168 42.5664C58.7734 42.5 59.3086 42.168 59.6328 41.6562C59.9609 41.1445 60.0391 40.5234 59.8477 39.9492L54.4297 23.6875C54.3398 23.4219 54.2891 23.125 54.2812 22.8125C53.9609 9.84766 43.4492 0.4375 29.2891 0.4375ZM30.2812 2.47656C30.9609 2.5 31.6328 2.54297 32.2891 2.61328V21.2031C31.0469 20.7148 29.6992 20.4375 28.2891 20.4375C26.8789 20.4375 25.5312 20.7148 24.2891 21.2031V2.80469C24.9453 2.70703 25.6211 2.62109 26.3164 2.5625C26.3789 3.05469 26.7812 3.4375 27.2891 3.4375H29.2891C29.8281 3.4375 30.2578 3.01172 30.2812 2.47656ZM34.2891 2.89062C44.7188 4.78906 52.0273 12.6016 52.2812 22.8594C52.293 23.375 52.3789 23.8672 52.5273 24.3203L57.9492 40.5781L54.9609 40.9102C53.4375 41.082 52.2891 42.3633 52.2891 43.8945V52.9688C52.2891 53.8203 51.9258 54.6367 51.2891 55.2031C50.6562 55.7695 49.8125 56.043 48.9609 55.9531L38.1328 54.75L35.3984 54.4453C34.8633 54.3828 34.3555 54.7812 34.2969 55.3281C34.2344 55.8789 34.6289 56.3711 35.1797 56.4336L38.3984 56.7891L39 61.3086C39.0391 61.5938 38.9531 61.8789 38.7578 62.0977C38.5664 62.3164 38.3008 62.4375 38.0078 62.4375H11.5117C11.2266 62.4375 10.9609 62.3203 10.7695 62.1094C10.5742 61.8945 10.4883 61.6172 10.5156 61.332L11.9531 47.6836C12.1289 46.0117 11.8359 44.3359 11.1055 42.8438C7.95703 36.3828 6.28906 29.3281 6.28906 22.4375C6.28906 14.0859 11.2969 5.67578 22.2891 3.17969V22.2305C19.2812 24.1953 17.2891 27.5859 17.2891 31.4375C17.2891 37.5039 22.2227 42.4375 28.2891 42.4375C29.043 42.4375 29.7812 42.3594 30.4922 42.2148L31.5273 45.3242C32.1445 47.168 33.7891 48.4961 35.7227 48.7148L41.4023 49.3438C41.8164 51.1133 43.3945 52.4375 45.2891 52.4375C47.4961 52.4375 49.2891 50.6445 49.2891 48.4375C49.2891 46.2305 47.4961 44.4375 45.2891 44.4375C43.4648 44.4375 41.9414 45.668 41.4609 47.3398L35.9453 46.7266C34.7852 46.5977 33.7969 45.8008 33.4297 44.6914L32.4062 41.6289C36.4375 39.9961 39.2891 36.0469 39.2891 31.4375C39.2891 27.5859 37.2969 24.1953 34.2891 22.2305V2.89062ZM27.2891 6.4375C26.7344 6.4375 26.2891 6.88672 26.2891 7.4375C26.2891 7.98828 26.7344 8.4375 27.2891 8.4375H29.2891C29.8438 8.4375 30.2891 7.98828 30.2891 7.4375C30.2891 6.88672 29.8438 6.4375 29.2891 6.4375H27.2891ZM27.2891 11.4375C26.7344 11.4375 26.2891 11.8867 26.2891 12.4375C26.2891 12.9883 26.7344 13.4375 27.2891 13.4375H29.2891C29.8438 13.4375 30.2891 12.9883 30.2891 12.4375C30.2891 11.8867 29.8438 11.4375 29.2891 11.4375H27.2891ZM27.2891 16.4375C26.7344 16.4375 26.2891 16.8867 26.2891 17.4375C26.2891 17.9883 26.7344 18.4375 27.2891 18.4375H29.2891C29.8438 18.4375 30.2891 17.9883 30.2891 17.4375C30.2891 16.8867 29.8438 16.4375 29.2891 16.4375H27.2891ZM28.2891 22.4375C33.2539 22.4375 37.2891 26.4766 37.2891 31.4375C37.2891 36.3984 33.2539 40.4375 28.2891 40.4375C23.3242 40.4375 19.2891 36.3984 19.2891 31.4375C19.2891 26.4766 23.3242 22.4375 28.2891 22.4375ZM28.2891 26.4375C25.5312 26.4375 23.2891 28.6797 23.2891 31.4375C23.2891 34.1953 25.5312 36.4375 28.2891 36.4375C31.0469 36.4375 33.2891 34.1953 33.2891 31.4375C33.2891 28.6797 31.0469 26.4375 28.2891 26.4375ZM28.2891 28.4375C29.9414 28.4375 31.2891 29.7852 31.2891 31.4375C31.2891 33.0898 29.9414 34.4375 28.2891 34.4375C26.6367 34.4375 25.2891 33.0898 25.2891 31.4375C25.2891 29.7852 26.6367 28.4375 28.2891 28.4375ZM45.2891 46.4375C46.3906 46.4375 47.2891 47.3359 47.2891 48.4375C47.2891 49.5391 46.3906 50.4375 45.2891 50.4375C44.1875 50.4375 43.2891 49.5391 43.2891 48.4375C43.2891 47.3359 44.1875 46.4375 45.2891 46.4375Z" fill="#252525"/>
</g>
<defs>
<clipPath id="clip0_559_47061">
<rect width="64" height="64" fill="white" transform="translate(0.289062 0.4375)"/>
</clipPath>
</defs>
</svg>
