<svg width="20" height="20" viewBox="0 0 20 20" fill="none" xmlns="http://www.w3.org/2000/svg">
<path fill-rule="evenodd" clip-rule="evenodd" d="M8.33366 13.3337C8.33366 13.792 7.95866 14.167 7.50033 14.167C7.04199 14.167 6.66699 13.792 6.66699 13.3337V10.0003C6.66699 9.54199 7.04199 9.16699 7.50033 9.16699C7.95866 9.16699 8.33366 9.54199 8.33366 10.0003V13.3337ZM13.3337 13.3337C13.3337 13.792 12.9587 14.167 12.5003 14.167C12.042 14.167 11.667 13.792 11.667 13.3337V10.0003C11.667 9.54199 12.042 9.16699 12.5003 9.16699C12.9587 9.16699 13.3337 9.54199 13.3337 10.0003V13.3337ZM15.0003 15.8337C15.0003 16.2928 14.627 16.667 14.167 16.667H5.83366C5.37366 16.667 5.00033 16.2928 5.00033 15.8337V6.66699H15.0003V15.8337ZM8.33366 3.60699C8.33366 3.47783 8.51199 3.33366 8.75033 3.33366H11.2503C11.4887 3.33366 11.667 3.47783 11.667 3.60699V5.00033H8.33366V3.60699ZM17.5003 5.00033H16.667H13.3337V3.60699C13.3337 2.53699 12.3995 1.66699 11.2503 1.66699H8.75033C7.60116 1.66699 6.66699 2.53699 6.66699 3.60699V5.00033H3.33366H2.50033C2.04199 5.00033 1.66699 5.37533 1.66699 5.83366C1.66699 6.29199 2.04199 6.66699 2.50033 6.66699H3.33366V15.8337C3.33366 17.212 4.45533 18.3337 5.83366 18.3337H14.167C15.5453 18.3337 16.667 17.212 16.667 15.8337V6.66699H17.5003C17.9587 6.66699 18.3337 6.29199 18.3337 5.83366C18.3337 5.37533 17.9587 5.00033 17.5003 5.00033Z" fill="#004F71"/>
<mask id="mask0_468_50673" style="mask-type:alpha" maskUnits="userSpaceOnUse" x="1" y="1" width="18" height="18">
<path fill-rule="evenodd" clip-rule="evenodd" d="M8.33366 13.3337C8.33366 13.792 7.95866 14.167 7.50033 14.167C7.04199 14.167 6.66699 13.792 6.66699 13.3337V10.0003C6.66699 9.54199 7.04199 9.16699 7.50033 9.16699C7.95866 9.16699 8.33366 9.54199 8.33366 10.0003V13.3337ZM13.3337 13.3337C13.3337 13.792 12.9587 14.167 12.5003 14.167C12.042 14.167 11.667 13.792 11.667 13.3337V10.0003C11.667 9.54199 12.042 9.16699 12.5003 9.16699C12.9587 9.16699 13.3337 9.54199 13.3337 10.0003V13.3337ZM15.0003 15.8337C15.0003 16.2928 14.627 16.667 14.167 16.667H5.83366C5.37366 16.667 5.00033 16.2928 5.00033 15.8337V6.66699H15.0003V15.8337ZM8.33366 3.60699C8.33366 3.47783 8.51199 3.33366 8.75033 3.33366H11.2503C11.4887 3.33366 11.667 3.47783 11.667 3.60699V5.00033H8.33366V3.60699ZM17.5003 5.00033H16.667H13.3337V3.60699C13.3337 2.53699 12.3995 1.66699 11.2503 1.66699H8.75033C7.60116 1.66699 6.66699 2.53699 6.66699 3.60699V5.00033H3.33366H2.50033C2.04199 5.00033 1.66699 5.37533 1.66699 5.83366C1.66699 6.29199 2.04199 6.66699 2.50033 6.66699H3.33366V15.8337C3.33366 17.212 4.45533 18.3337 5.83366 18.3337H14.167C15.5453 18.3337 16.667 17.212 16.667 15.8337V6.66699H17.5003C17.9587 6.66699 18.3337 6.29199 18.3337 5.83366C18.3337 5.37533 17.9587 5.00033 17.5003 5.00033Z" fill="white"/>
</mask>
<g mask="url(#mask0_468_50673)">
</g>
</svg>
