<svg width="41" height="49" viewBox="0 0 41 49" fill="none" xmlns="http://www.w3.org/2000/svg">
<g opacity="0.3">
<path opacity="0.3" d="M28.434 10.6177C27.34 10.6166 26.2912 10.1816 25.5176 9.40806C24.7441 8.63455 24.309 7.58574 24.308 6.49183V0.768066H5.88198C4.45459 0.768066 3.08564 1.33506 2.07632 2.34434C1.067 3.35362 0.5 4.72251 0.5 6.14985V38.5925C0.5 40.0198 1.067 41.3887 2.07632 42.398C3.08564 43.4072 4.45459 43.9743 5.88198 43.9743H28.002C29.4294 43.9743 30.7983 43.4072 31.8076 42.398C32.8169 41.3887 33.384 40.0198 33.384 38.5925V10.6177H28.434Z" fill="#A140FF"/>
</g>
<path d="M33.3839 10.6176H28.4339C27.3399 10.6165 26.2911 10.1815 25.5175 9.40793C24.744 8.63439 24.3089 7.58554 24.3079 6.49158V0.767578L33.3839 10.6176Z" fill="#A140FF"/>
<path d="M37.2879 34.8882H12.2799C10.5059 34.8882 9.06787 36.3262 9.06787 38.1V45.5557C9.06787 47.3296 10.5059 48.7676 12.2799 48.7676H37.2879C39.0618 48.7676 40.4999 47.3296 40.4999 45.5557V38.1C40.4999 36.3262 39.0618 34.8882 37.2879 34.8882Z" fill="#A140FF"/>
<path d="M18.3278 43.4424V44.8964H16.8218V43.4424H18.3278Z" fill="white"/>
<path d="M24.1276 43.4461C23.8778 43.9008 23.4993 44.2716 23.0396 44.5121C22.5233 44.7783 21.9483 44.9103 21.3676 44.8961H19.0876V38.8821H21.3576C21.9386 38.8667 22.5143 38.9952 23.0336 39.2561C23.4906 39.4934 23.8676 39.8599 24.1176 40.3101C24.3769 40.7907 24.5078 41.3301 24.4977 41.8761C24.5104 42.4225 24.383 42.963 24.1276 43.4461ZM22.5636 43.1441C22.7261 42.9772 22.852 42.7782 22.9333 42.5598C23.0145 42.3415 23.0494 42.1087 23.0356 41.8761C23.0494 41.6436 23.0145 41.4107 22.9333 41.1923C22.852 40.974 22.7261 40.775 22.5636 40.6081C22.1985 40.2901 21.7229 40.1284 21.2396 40.1581H20.5517V43.5941H21.2396C21.7196 43.6211 22.191 43.4596 22.5536 43.1441H22.5636Z" fill="white"/>
<path d="M26.7757 43.7818H28.7157V44.8958H25.3157V38.8818H26.7697L26.7757 43.7818Z" fill="white"/>
<path d="M30.8418 43.7818H32.7818V44.8958H29.3818V38.8818H30.8358L30.8418 43.7818Z" fill="white"/>
<path d="M14.1757 32.6465C13.9476 32.6465 13.7289 32.5558 13.5676 32.3946C13.4063 32.2333 13.3157 32.0145 13.3157 31.7865V30.4645C13.3157 30.3516 13.338 30.2399 13.3812 30.1356C13.4244 30.0314 13.4878 29.9368 13.5677 29.8571C13.6476 29.7774 13.7424 29.7142 13.8467 29.6712C13.9511 29.6282 14.0628 29.6062 14.1757 29.6064C14.4032 29.6064 14.6215 29.6969 14.7824 29.8578C14.9433 30.0187 15.0337 30.2369 15.0337 30.4645V31.7865C15.0337 32.0142 14.9434 32.2327 14.7825 32.3939C14.6217 32.5551 14.4034 32.6459 14.1757 32.6465Z" fill="#A140FF"/>
<path d="M14.1757 21.9875C14.0628 21.9877 13.9511 21.9657 13.8467 21.9227C13.7424 21.8797 13.6476 21.8166 13.5677 21.7369C13.4878 21.6572 13.4244 21.5625 13.3812 21.4583C13.338 21.354 13.3157 21.2423 13.3157 21.1295V19.5915C13.3157 19.3634 13.4063 19.1446 13.5676 18.9833C13.7289 18.8221 13.9476 18.7314 14.1757 18.7314C14.4034 18.732 14.6217 18.8228 14.7825 18.9841C14.9434 19.1453 15.0337 19.3637 15.0337 19.5915V21.1295C15.0337 21.357 14.9433 21.5753 14.7824 21.7362C14.6215 21.8971 14.4032 21.9875 14.1757 21.9875Z" fill="#A140FF"/>
<path d="M17.2257 31.8306C17.0746 31.8304 16.9262 31.7906 16.7953 31.7151C16.6644 31.6397 16.5556 31.5312 16.4797 31.4006L15.8397 30.2886C15.7258 30.0912 15.6949 29.8567 15.7538 29.6366C15.8127 29.4165 15.9565 29.2287 16.1537 29.1146C16.3513 29.0009 16.586 28.9703 16.8061 29.0296C17.0262 29.0888 17.2139 29.233 17.3277 29.4306L17.9697 30.5406C18.0834 30.7382 18.1139 30.9728 18.0547 31.193C17.9954 31.4131 17.8512 31.6007 17.6537 31.7146C17.5238 31.7904 17.3761 31.8304 17.2257 31.8306Z" fill="#A140FF"/>
<path d="M11.916 22.6316C11.7648 22.6318 11.6163 22.5922 11.4853 22.5167C11.3543 22.4412 11.2455 22.3325 11.17 22.2016L10.384 20.8376C10.3274 20.7401 10.2906 20.6324 10.2758 20.5206C10.2609 20.4089 10.2683 20.2953 10.2975 20.1864C10.3266 20.0775 10.377 19.9754 10.4457 19.886C10.5145 19.7967 10.6002 19.7218 10.698 19.6656C10.7956 19.609 10.9035 19.5722 11.0154 19.5573C11.1273 19.5424 11.2411 19.5498 11.3501 19.5789C11.4592 19.6081 11.5614 19.6585 11.651 19.7273C11.7405 19.796 11.8156 19.8818 11.872 19.9796L12.658 21.3436C12.7146 21.4413 12.7514 21.5492 12.7663 21.6611C12.7812 21.773 12.7738 21.8867 12.7446 21.9958C12.7154 22.1048 12.6651 22.2071 12.5963 22.2966C12.5276 22.3862 12.4418 22.4613 12.344 22.5176C12.2138 22.5926 12.0662 22.6319 11.916 22.6316Z" fill="#A140FF"/>
<path d="M19.4577 29.5969C19.3067 29.5966 19.1585 29.5566 19.0278 29.4809L17.9157 28.8389C17.7187 28.7251 17.5749 28.5377 17.516 28.3179C17.4572 28.0981 17.488 27.864 17.6018 27.6669C17.7156 27.4694 17.9032 27.3251 18.1234 27.2659C18.3435 27.2066 18.5782 27.2372 18.7758 27.3509L19.8878 27.9929C20.085 28.1071 20.2287 28.2948 20.2876 28.515C20.3465 28.7351 20.3156 28.9695 20.2018 29.1669C20.1267 29.2978 20.0183 29.4065 19.8876 29.482C19.757 29.5575 19.6086 29.5972 19.4577 29.5969Z" fill="#A140FF"/>
<path d="M10.2557 24.2869C10.1054 24.2862 9.95785 24.2462 9.82774 24.1709L8.46372 23.3849C8.26654 23.2707 8.12274 23.0829 8.06387 22.8628C8.005 22.6427 8.0359 22.4082 8.14976 22.2109C8.26359 22.0133 8.4512 21.8691 8.67134 21.8098C8.89148 21.7506 9.12613 21.7812 9.32373 21.8949L10.6877 22.6829C10.8849 22.797 11.0287 22.9848 11.0876 23.2049C11.1465 23.425 11.1156 23.6595 11.0018 23.8568C10.9262 23.9878 10.8174 24.0964 10.6864 24.1719C10.5555 24.2474 10.4069 24.2871 10.2557 24.2869Z" fill="#A140FF"/>
<path d="M20.2736 26.5491H18.9496C18.7217 26.5485 18.5032 26.4577 18.342 26.2966C18.1809 26.1354 18.0901 25.917 18.0896 25.6891C18.0901 25.4613 18.181 25.2431 18.3422 25.0823C18.5034 24.9214 18.7219 24.8311 18.9496 24.8311H20.2736C20.5013 24.8311 20.7198 24.9214 20.881 25.0823C21.0422 25.2431 21.1331 25.4613 21.1336 25.6891C21.1331 25.917 21.0423 26.1354 20.8811 26.2966C20.7199 26.4577 20.5015 26.5485 20.2736 26.5491Z" fill="#A140FF"/>
<path d="M9.61353 26.5491H8.07754C7.84962 26.5485 7.63119 26.4577 7.47002 26.2966C7.30885 26.1354 7.21806 25.917 7.21753 25.6891C7.21806 25.4613 7.30889 25.2431 7.47012 25.0823C7.63134 24.9214 7.8498 24.8311 8.07754 24.8311H9.61353C9.84108 24.8311 10.0593 24.9215 10.2202 25.0824C10.3811 25.2433 10.4715 25.4615 10.4715 25.6891C10.4715 25.9168 10.3812 26.1352 10.2204 26.2965C10.0595 26.4577 9.84127 26.5485 9.61353 26.5491Z" fill="#A140FF"/>
<path d="M18.2518 24.1949C18.1006 24.1951 17.9521 24.1554 17.8211 24.0799C17.6901 24.0045 17.5814 23.8958 17.5058 23.7649C17.4495 23.6672 17.4131 23.5594 17.3985 23.4476C17.384 23.3358 17.3916 23.2222 17.421 23.1134C17.4503 23.0045 17.5008 22.9025 17.5696 22.8132C17.6384 22.7239 17.724 22.649 17.8218 22.5929L19.0218 21.8949C19.2194 21.7812 19.4541 21.7506 19.6742 21.8098C19.8944 21.8691 20.082 22.0133 20.1958 22.2109C20.3097 22.4082 20.3405 22.6427 20.2816 22.8628C20.2228 23.0829 20.079 23.2707 19.8818 23.3849L18.6818 24.0808C18.5512 24.1564 18.4027 24.1958 18.2518 24.1949Z" fill="#A140FF"/>
<path d="M8.89375 29.5969C8.74292 29.5967 8.59475 29.5569 8.46416 29.4815C8.33357 29.406 8.22517 29.2975 8.14976 29.1669C8.0359 28.9695 8.005 28.735 8.06387 28.5149C8.12274 28.2948 8.26654 28.107 8.46372 27.9929L9.73574 27.2589C9.93323 27.1455 10.1675 27.115 10.3875 27.1738C10.6075 27.2326 10.7952 27.3761 10.9097 27.5729C11.0236 27.7702 11.0545 28.0047 10.9956 28.2248C10.9367 28.4449 10.7929 28.6327 10.5958 28.7469L9.32373 29.4809C9.19303 29.5565 9.04477 29.5965 8.89375 29.5969Z" fill="#A140FF"/>
<path d="M14.2817 31.3255H14.1437C13.1607 31.3042 12.2017 31.0181 11.3677 30.4975C10.5432 29.9863 9.86735 29.2677 9.40767 28.4135C8.97801 27.6091 8.75278 26.7114 8.75171 25.7995C8.75171 25.7515 8.75171 25.7075 8.75171 25.6615C8.77536 24.7216 9.03828 23.8034 9.51567 22.9935C9.99244 22.1847 10.6669 21.5102 11.4757 21.0335C12.289 20.5557 13.2107 20.2935 14.1537 20.2715H14.2797C15.1928 20.2704 16.0918 20.4965 16.8957 20.9295C17.7493 21.3876 18.4673 22.0621 18.9777 22.8855C19.4995 23.7234 19.7855 24.6866 19.8057 25.6735C19.8057 25.7075 19.8057 25.7515 19.8057 25.7995C19.8059 26.7543 19.5585 27.6928 19.0877 28.5235C18.5955 29.3953 17.875 30.1165 17.0037 30.6095C16.1734 31.0792 15.2356 31.3259 14.2817 31.3255ZM14.2597 21.9875H14.2057C13.553 22.0007 12.9147 22.1811 12.3517 22.5115C11.7933 22.8403 11.3274 23.3055 10.9977 23.8635C10.6679 24.4239 10.4868 25.0594 10.4717 25.7095C10.4717 25.7455 10.4717 25.7715 10.4717 25.7975C10.4719 26.4253 10.6264 27.0434 10.9217 27.5975C11.2389 28.1879 11.7059 28.6845 12.2757 29.0375C12.8526 29.3954 13.5149 29.5922 14.1937 29.6075H14.2817C14.9399 29.6082 15.587 29.438 16.1597 29.1135C16.761 28.7731 17.2582 28.2753 17.5977 27.6735C17.9219 27.1014 18.0921 26.455 18.0917 25.7975V25.7215C18.0769 25.0383 17.8801 24.3713 17.5217 23.7895C17.1683 23.2218 16.6726 22.7564 16.0837 22.4395C15.5221 22.1412 14.8956 21.9859 14.2597 21.9875Z" fill="#A140FF"/>
<path d="M16.4877 22.5416C16.3375 22.5419 16.1898 22.5026 16.0597 22.4276C15.9618 22.3713 15.8761 22.2962 15.8073 22.2066C15.7386 22.1171 15.6882 22.0149 15.659 21.9058C15.6299 21.7967 15.6225 21.683 15.6374 21.5711C15.6522 21.4591 15.6891 21.3513 15.7457 21.2536L16.4797 19.9796C16.536 19.8818 16.6111 19.796 16.7007 19.7273C16.7902 19.6585 16.8925 19.6081 17.0015 19.5789C17.1106 19.5498 17.2243 19.5424 17.3362 19.5573C17.4481 19.5722 17.556 19.609 17.6537 19.6656C17.7514 19.7218 17.8371 19.7967 17.9059 19.886C17.9747 19.9753 18.0252 20.0773 18.0545 20.1861C18.0839 20.295 18.0915 20.4085 18.077 20.5203C18.0624 20.6321 18.0259 20.7399 17.9697 20.8376L17.2337 22.1116C17.1581 22.2425 17.0493 22.3512 16.9184 22.4267C16.7874 22.5022 16.6389 22.5418 16.4877 22.5416Z" fill="#A140FF"/>
<path d="M11.1278 31.8309C10.9774 31.8308 10.8297 31.7908 10.6999 31.7149C10.602 31.6586 10.5163 31.5835 10.4475 31.494C10.3788 31.4044 10.3283 31.3022 10.2992 31.1931C10.27 31.0841 10.2626 30.9703 10.2775 30.8584C10.2924 30.7465 10.3292 30.6386 10.3858 30.541L11.0798 29.341C11.1362 29.2431 11.2113 29.1574 11.3008 29.0886C11.3904 29.0199 11.4926 28.9694 11.6017 28.9403C11.7107 28.9111 11.8245 28.9037 11.9364 28.9186C12.0483 28.9335 12.1562 28.9703 12.2538 29.027C12.451 29.1411 12.5948 29.3289 12.6537 29.549C12.7126 29.7691 12.6817 30.0036 12.5678 30.201L11.8738 31.401C11.7982 31.5319 11.6895 31.6406 11.5585 31.716C11.4276 31.7915 11.279 31.8312 11.1278 31.8309Z" fill="#A140FF"/>
<path d="M22.0958 20.8987C21.9568 20.8987 21.8235 20.8435 21.7252 20.7452C21.627 20.647 21.5718 20.5137 21.5718 20.3747V19.5747C21.5718 19.506 21.5854 19.438 21.6117 19.3745C21.6381 19.3111 21.6767 19.2534 21.7254 19.2049C21.7741 19.1564 21.8318 19.118 21.8954 19.0919C21.959 19.0658 22.0271 19.0525 22.0958 19.0527C22.2342 19.0527 22.367 19.1077 22.4649 19.2056C22.5628 19.3035 22.6178 19.4363 22.6178 19.5747V20.3747C22.618 20.4435 22.6047 20.5115 22.5786 20.5751C22.5525 20.6387 22.5141 20.6964 22.4656 20.7451C22.4171 20.7938 22.3595 20.8324 22.296 20.8588C22.2325 20.8852 22.1645 20.8987 22.0958 20.8987Z" fill="#A140FF"/>
<path d="M22.0958 14.4136C22.0271 14.4139 21.959 14.4006 21.8954 14.3745C21.8318 14.3484 21.7741 14.31 21.7254 14.2615C21.6767 14.213 21.6381 14.1553 21.6117 14.0919C21.5854 14.0284 21.5718 13.9604 21.5718 13.8917V12.9556C21.5718 12.8167 21.627 12.6834 21.7252 12.5851C21.8235 12.4869 21.9568 12.4316 22.0958 12.4316C22.1645 12.4316 22.2325 12.4452 22.296 12.4716C22.3595 12.4979 22.4171 12.5366 22.4656 12.5853C22.5141 12.6339 22.5525 12.6917 22.5786 12.7553C22.6047 12.8188 22.618 12.8869 22.6178 12.9556V13.8917C22.6178 14.0301 22.5628 14.1629 22.4649 14.2608C22.367 14.3587 22.2342 14.4136 22.0958 14.4136Z" fill="#A140FF"/>
<path d="M23.9519 20.4011C23.86 20.4013 23.7697 20.3774 23.6901 20.3318C23.6104 20.2862 23.5441 20.2204 23.4979 20.1411L23.1078 19.4651C23.0395 19.3436 23.0222 19.1999 23.0597 19.0657C23.0972 18.9314 23.1864 18.8176 23.3078 18.7491C23.3678 18.7153 23.4339 18.6936 23.5023 18.6854C23.5707 18.6772 23.64 18.6825 23.7063 18.7011C23.7726 18.7196 23.8346 18.7511 23.8887 18.7937C23.9429 18.8362 23.9881 18.889 24.0218 18.9491L24.4218 19.6251C24.4556 19.6851 24.4773 19.7511 24.4855 19.8195C24.4937 19.8879 24.4884 19.9572 24.4698 20.0235C24.4513 20.0898 24.4198 20.1518 24.3773 20.206C24.3347 20.2601 24.2819 20.3053 24.2218 20.3391C24.1392 20.384 24.0458 20.4055 23.9519 20.4011Z" fill="#A140FF"/>
<path d="M20.7279 14.8053C20.636 14.8051 20.5456 14.7808 20.466 14.7349C20.3863 14.6889 20.3201 14.6228 20.2739 14.5433L19.7959 13.7133C19.7622 13.6533 19.7405 13.5872 19.7323 13.5188C19.724 13.4505 19.7294 13.3811 19.7479 13.3148C19.7665 13.2485 19.798 13.1865 19.8405 13.1324C19.8831 13.0782 19.9359 13.033 19.9959 12.9993C20.0559 12.9652 20.122 12.9434 20.1904 12.935C20.2588 12.9266 20.3282 12.9319 20.3946 12.9505C20.461 12.9691 20.523 13.0006 20.5771 13.0433C20.6313 13.086 20.6764 13.1391 20.7099 13.1993L21.1879 14.0293C21.2217 14.0893 21.2434 14.1554 21.2516 14.2237C21.2598 14.2921 21.2545 14.3614 21.2359 14.4277C21.2174 14.4941 21.1859 14.5561 21.1434 14.6102C21.1008 14.6644 21.048 14.7096 20.9879 14.7433C20.9079 14.7857 20.8184 14.807 20.7279 14.8053Z" fill="#A140FF"/>
<path d="M25.3099 19.043C25.2179 19.0434 25.1275 19.0193 25.0479 18.973L24.3719 18.573C24.3119 18.5393 24.2591 18.494 24.2165 18.4399C24.1739 18.3857 24.1425 18.3237 24.1239 18.2574C24.1053 18.1911 24.1 18.1218 24.1083 18.0534C24.1165 17.9851 24.1381 17.919 24.1719 17.859C24.2054 17.7987 24.2506 17.7457 24.3047 17.703C24.3588 17.6603 24.4209 17.6288 24.4873 17.6102C24.5536 17.5916 24.623 17.5863 24.6915 17.5947C24.7599 17.6031 24.826 17.6249 24.8859 17.659L25.5619 18.059C25.6222 18.0925 25.6752 18.1376 25.7179 18.1918C25.7606 18.2459 25.7921 18.3079 25.8107 18.3743C25.8293 18.4407 25.8346 18.5101 25.8262 18.5785C25.8178 18.647 25.796 18.713 25.7619 18.773C25.7174 18.8541 25.6521 18.922 25.5726 18.9694C25.4931 19.0169 25.4025 19.0423 25.3099 19.043Z" fill="#A140FF"/>
<path d="M19.7115 15.8113C19.6195 15.8117 19.529 15.7876 19.4495 15.7413L18.6195 15.2633C18.5594 15.2296 18.5066 15.1843 18.4641 15.1302C18.4215 15.0761 18.3901 15.014 18.3715 14.9477C18.3529 14.8814 18.3476 14.8121 18.3558 14.7437C18.364 14.6754 18.3857 14.6093 18.4195 14.5493C18.488 14.4279 18.6018 14.3386 18.7361 14.3011C18.8703 14.2636 19.014 14.281 19.1355 14.3493L19.9635 14.8273C20.0849 14.8958 20.1742 15.0097 20.2117 15.1439C20.2492 15.2782 20.2318 15.4218 20.1635 15.5433C20.1186 15.6239 20.0531 15.6912 19.9737 15.7383C19.8943 15.7854 19.8038 15.8106 19.7115 15.8113Z" fill="#A140FF"/>
<path d="M25.8056 17.1896H25.0056C24.9369 17.1896 24.8689 17.176 24.8054 17.1496C24.742 17.1233 24.6843 17.0847 24.6358 17.036C24.5873 16.9873 24.5489 16.9295 24.5228 16.8659C24.4967 16.8024 24.4834 16.7343 24.4836 16.6656C24.4836 16.5271 24.5386 16.3943 24.6365 16.2964C24.7344 16.1985 24.8672 16.1436 25.0056 16.1436H25.8056C25.8743 16.1433 25.9424 16.1566 26.006 16.1827C26.0696 16.2088 26.1273 16.2472 26.176 16.2957C26.2247 16.3442 26.2633 16.4019 26.2897 16.4653C26.3161 16.5288 26.3296 16.5968 26.3296 16.6656C26.3296 16.8045 26.2744 16.9378 26.1762 17.0361C26.0779 17.1344 25.9446 17.1896 25.8056 17.1896Z" fill="#A140FF"/>
<path d="M19.3281 17.1896H18.3921C18.3234 17.1896 18.2554 17.176 18.1919 17.1496C18.1284 17.1233 18.0708 17.0846 18.0223 17.036C17.9738 16.9873 17.9354 16.9295 17.9093 16.8659C17.8832 16.8024 17.8699 16.7343 17.8701 16.6656C17.8701 16.597 17.8836 16.5291 17.9099 16.4658C17.9361 16.4025 17.9745 16.3449 18.023 16.2964C18.0715 16.248 18.1291 16.2095 18.1924 16.1833C18.2557 16.1571 18.3236 16.1436 18.3921 16.1436H19.3281C19.4666 16.1436 19.5993 16.1985 19.6972 16.2964C19.7951 16.3943 19.8502 16.5271 19.8502 16.6656C19.8504 16.7343 19.8371 16.8024 19.811 16.8659C19.7849 16.9295 19.7465 16.9873 19.698 17.036C19.6495 17.0846 19.5918 17.1233 19.5284 17.1496C19.4649 17.176 19.3968 17.1896 19.3281 17.1896Z" fill="#A140FF"/>
<path d="M24.5756 15.7677C24.4837 15.7675 24.3933 15.7433 24.3137 15.6973C24.234 15.6513 24.1678 15.5852 24.1216 15.5057C24.0878 15.4457 24.0662 15.3796 24.058 15.3113C24.0497 15.2429 24.0551 15.1736 24.0736 15.1073C24.0922 15.0409 24.1237 14.9789 24.1662 14.9248C24.2088 14.8706 24.2616 14.8254 24.3216 14.7917L25.0556 14.3677C25.1156 14.3339 25.1817 14.3123 25.2501 14.3041C25.3185 14.2958 25.3878 14.3011 25.4541 14.3197C25.5204 14.3383 25.5824 14.3698 25.6366 14.4123C25.6907 14.4549 25.7359 14.5077 25.7696 14.5677C25.8037 14.6276 25.8256 14.6937 25.8339 14.7622C25.8423 14.8306 25.837 14.9 25.8185 14.9664C25.7999 15.0328 25.7683 15.0948 25.7256 15.1489C25.6829 15.203 25.6299 15.2482 25.5696 15.2817L24.8356 15.7057C24.7556 15.7481 24.6662 15.7694 24.5756 15.7677Z" fill="#A140FF"/>
<path d="M18.8815 19.0429C18.7897 19.043 18.6996 19.0188 18.6202 18.9728C18.5408 18.9267 18.475 18.8605 18.4295 18.7809C18.3948 18.7216 18.3721 18.656 18.3629 18.588C18.3536 18.5199 18.358 18.4507 18.3756 18.3843C18.3933 18.3179 18.424 18.2557 18.4658 18.2012C18.5077 18.1467 18.5599 18.1011 18.6195 18.0669L19.3935 17.6209C19.4534 17.5868 19.5195 17.565 19.5879 17.5566C19.6564 17.5482 19.7258 17.5535 19.7922 17.5721C19.8586 17.5907 19.9206 17.6222 19.9747 17.6649C20.0288 17.7076 20.0739 17.7606 20.1075 17.8209C20.1413 17.8809 20.1629 17.947 20.1711 18.0153C20.1794 18.0837 20.174 18.153 20.1555 18.2193C20.1369 18.2857 20.1054 18.3476 20.0629 18.4018C20.0203 18.4559 19.9675 18.5012 19.9075 18.5349L19.1355 18.9829C19.0572 19.0239 18.9699 19.0445 18.8815 19.0429Z" fill="#A140FF"/>
<path d="M22.1596 20.0956H22.0736C21.4764 20.0826 20.8939 19.9084 20.3876 19.5916C19.883 19.2818 19.4691 18.8444 19.1876 18.3236C18.9245 17.8313 18.7871 17.2817 18.7876 16.7236V16.6376C18.8021 16.066 18.9625 15.5077 19.2536 15.0156C19.5447 14.5198 19.9578 14.1067 20.4536 13.8156C20.9487 13.525 21.5097 13.3653 22.0836 13.3516H22.1596C22.7179 13.3498 23.2678 13.4873 23.7596 13.7516C24.2804 14.0332 24.7177 14.4471 25.0276 14.9516C25.3436 15.4619 25.5176 16.0474 25.5316 16.6476V16.7256C25.532 17.306 25.3818 17.8766 25.0956 18.3816C24.7957 18.9125 24.3566 19.3517 23.8256 19.6516C23.3184 19.9421 22.7441 20.0952 22.1596 20.0956ZM22.1456 14.4136H22.1156C21.7178 14.4202 21.3285 14.5298 20.9856 14.7316C20.6454 14.9318 20.3618 15.2154 20.1616 15.5556C19.9612 15.8962 19.851 16.2824 19.8416 16.6776V16.7316C19.8414 17.1139 19.9355 17.4903 20.1156 17.8276C20.3087 18.1856 20.5921 18.4869 20.9376 18.7016C21.289 18.9195 21.6922 19.0396 22.1056 19.0496H22.1596C22.5598 19.0498 22.9532 18.9465 23.3016 18.7496C23.6677 18.5425 23.9705 18.2396 24.1776 17.8736C24.374 17.525 24.4773 17.1317 24.4776 16.7316V16.6836C24.4685 16.2684 24.3491 15.8632 24.1316 15.5096C23.9162 15.1639 23.6142 14.8805 23.2556 14.6876C22.9139 14.5058 22.5326 14.4116 22.1456 14.4136Z" fill="#A140FF"/>
<path d="M23.502 14.7492C23.4107 14.7494 23.3209 14.7253 23.242 14.6793C23.182 14.6455 23.1292 14.6003 23.0866 14.5461C23.0441 14.492 23.0126 14.43 22.994 14.3637C22.9755 14.2974 22.9701 14.2281 22.9784 14.1597C22.9866 14.0913 23.0082 14.0252 23.042 13.9652L23.49 13.1912C23.5238 13.1312 23.569 13.0784 23.6231 13.0358C23.6772 12.9933 23.7393 12.9618 23.8056 12.9432C23.8719 12.9247 23.9412 12.9194 24.0096 12.9276C24.0779 12.9358 24.144 12.9574 24.204 12.9912C24.264 13.025 24.3169 13.0702 24.3594 13.1243C24.402 13.1785 24.4334 13.2405 24.452 13.3068C24.4706 13.3731 24.4759 13.4424 24.4677 13.5108C24.4594 13.5792 24.4378 13.6452 24.404 13.7052L23.956 14.4812C23.9111 14.5623 23.8453 14.6299 23.7655 14.677C23.6857 14.7241 23.5947 14.7491 23.502 14.7492Z" fill="#A140FF"/>
<path d="M20.2396 20.4006C20.1483 20.4008 20.0585 20.3766 19.9796 20.3306C19.9195 20.2969 19.8667 20.2517 19.8242 20.1975C19.7816 20.1434 19.7502 20.0814 19.7316 20.0151C19.713 19.9488 19.7077 19.8794 19.7159 19.8111C19.7242 19.7427 19.7458 19.6766 19.7796 19.6166L20.2016 18.8846C20.2353 18.8246 20.2805 18.7718 20.3347 18.7292C20.3888 18.6866 20.4508 18.6552 20.5171 18.6366C20.5834 18.618 20.6528 18.6127 20.7211 18.621C20.7895 18.6292 20.8556 18.6508 20.9156 18.6846C20.9756 18.7183 21.0284 18.7636 21.071 18.8177C21.1135 18.8718 21.145 18.9338 21.1636 19.0002C21.1821 19.0665 21.1875 19.1358 21.1792 19.2042C21.171 19.2725 21.1494 19.3386 21.1156 19.3986L20.6936 20.1326C20.648 20.2131 20.5821 20.2803 20.5024 20.3273C20.4228 20.3744 20.3321 20.3996 20.2396 20.4006Z" fill="#A140FF"/>
</svg>
