<svg width="41" height="49" viewBox="0 0 41 49" fill="none" xmlns="http://www.w3.org/2000/svg">
<g opacity="0.3">
<path opacity="0.3" d="M28.4326 10.6171C27.3392 10.616 26.2909 10.1812 25.5178 9.40806C24.7447 8.63493 24.3099 7.58664 24.3088 6.49327V0.767578H5.88374C5.17683 0.767316 4.47679 0.9063 3.82361 1.17664C3.17044 1.44698 2.57692 1.84337 2.07697 2.34313C1.57702 2.8429 1.18043 3.43626 0.909843 4.08934C0.63926 4.74241 0.5 5.44238 0.5 6.14929V38.5917C0.5 39.2986 0.63926 39.9986 0.909843 40.6517C1.18043 41.3047 1.57702 41.8981 2.07697 42.3979C2.57692 42.8976 3.17044 43.294 3.82361 43.5643C4.47679 43.8347 5.17683 43.9737 5.88374 43.9734H28.0026C29.4299 43.9734 30.7988 43.4064 31.8081 42.3971C32.8173 41.3879 33.3843 40.019 33.3843 38.5917V10.6171H28.4326Z" fill="#0072FF"/>
</g>
<path d="M33.3846 10.6176H28.4329C27.3395 10.6165 26.2912 10.1817 25.5181 9.40855C24.745 8.63542 24.3101 7.58713 24.3091 6.49376V0.768066L33.3846 10.6176Z" fill="#0072FF"/>
<path d="M26.6188 17.5131H5.97184C5.77347 17.5131 5.58323 17.4342 5.44296 17.294C5.30269 17.1537 5.22388 16.9635 5.22388 16.7651C5.22362 16.6667 5.24278 16.5692 5.28025 16.4782C5.31772 16.3873 5.37277 16.3046 5.44225 16.2349C5.51173 16.1652 5.59426 16.11 5.68514 16.0723C5.77601 16.0345 5.87345 16.0151 5.97184 16.0151H26.6188C26.8177 16.0151 27.0085 16.0942 27.1491 16.2348C27.2897 16.3754 27.3688 16.5662 27.3688 16.7651C27.3682 16.9637 27.289 17.1539 27.1484 17.2941C27.0078 17.4343 26.8174 17.5131 26.6188 17.5131Z" fill="#0072FF"/>
<path d="M26.6188 21.9867H5.97184C5.77347 21.9867 5.58323 21.9079 5.44296 21.7676C5.30269 21.6273 5.22388 21.4371 5.22388 21.2387C5.22362 21.1403 5.24278 21.0429 5.28025 20.9519C5.31772 20.8609 5.37277 20.7782 5.44225 20.7085C5.51173 20.6389 5.59426 20.5836 5.68514 20.5459C5.77601 20.5082 5.87345 20.4888 5.97184 20.4888H26.6188C26.8177 20.4888 27.0085 20.5677 27.1491 20.7084C27.2897 20.849 27.3688 21.0398 27.3688 21.2387C27.3682 21.4373 27.289 21.6275 27.1484 21.7677C27.0078 21.9079 26.8174 21.9867 26.6188 21.9867Z" fill="#0072FF"/>
<path d="M26.6188 26.4608H5.97184C5.87345 26.4608 5.77601 26.4414 5.68514 26.4037C5.59426 26.366 5.51173 26.3107 5.44225 26.241C5.37277 26.1714 5.31772 26.0887 5.28025 25.9977C5.24278 25.9067 5.22362 25.8092 5.22388 25.7109C5.22388 25.5125 5.30269 25.3222 5.44296 25.182C5.58323 25.0417 5.77347 24.9629 5.97184 24.9629H26.6188C26.8174 24.9629 27.0078 25.0416 27.1484 25.1818C27.289 25.322 27.3682 25.5123 27.3688 25.7109C27.3688 25.9098 27.2897 26.1005 27.1491 26.2411C27.0085 26.3818 26.8177 26.4608 26.6188 26.4608Z" fill="#0072FF"/>
<path d="M18.4712 30.9344H5.97184C5.87345 30.9344 5.77601 30.915 5.68514 30.8773C5.59426 30.8396 5.51173 30.7843 5.44225 30.7146C5.37277 30.645 5.31772 30.5623 5.28025 30.4713C5.24278 30.3804 5.22362 30.2829 5.22388 30.1845C5.22388 29.9861 5.30269 29.7958 5.44296 29.6556C5.58323 29.5153 5.77347 29.4365 5.97184 29.4365H18.4712C18.6696 29.4365 18.8598 29.5153 19.0001 29.6556C19.1404 29.7958 19.2192 29.9861 19.2192 30.1845C19.2194 30.2829 19.2003 30.3804 19.1628 30.4713C19.1253 30.5623 19.0703 30.645 19.0008 30.7146C18.9313 30.7843 18.8488 30.8396 18.7579 30.8773C18.667 30.915 18.5696 30.9344 18.4712 30.9344Z" fill="#0072FF"/>
<path d="M37.2882 34.8882H12.2814C10.5076 34.8882 9.06958 36.3262 9.06958 38.1V45.5556C9.06958 47.3295 10.5076 48.7675 12.2814 48.7675H37.2882C39.062 48.7675 40.5 47.3295 40.5 45.5556V38.1C40.5 36.3262 39.062 34.8882 37.2882 34.8882Z" fill="#0072FF"/>
<path d="M12.7354 43.4419V44.8958H11.2295V43.4419H12.7354Z" fill="white"/>
<path d="M18.5232 43.4456C18.2722 43.8999 17.8941 44.2711 17.4353 44.5136C16.9184 44.7779 16.3437 44.9092 15.7633 44.8956H13.4915V38.8819H15.7633C16.3441 38.8678 16.9196 38.9962 17.4393 39.2559C17.8967 39.4934 18.2738 39.8607 18.5232 40.3118C18.7818 40.7919 18.912 41.3306 18.9012 41.8758C18.9115 42.4228 18.7813 42.9633 18.5232 43.4456ZM16.9593 43.1437C17.1218 42.9768 17.2478 42.7778 17.3291 42.5595C17.4104 42.3412 17.4452 42.1083 17.4313 41.8758C17.4453 41.6435 17.4105 41.4109 17.3292 41.1928C17.2479 40.9748 17.1219 40.7762 16.9593 40.6098C16.5949 40.2903 16.119 40.1278 15.6353 40.1578H14.9474V43.5936H15.6353C16.1186 43.6233 16.5942 43.4617 16.9593 43.1437Z" fill="white"/>
<path d="M24.1292 39.1838C24.5867 39.4437 24.9649 39.8232 25.2231 40.2817C25.4938 40.7659 25.6317 41.313 25.6231 41.8677C25.6332 42.4237 25.4952 42.9725 25.2231 43.4576C24.9654 43.9182 24.5864 44.2993 24.1272 44.5595C23.6597 44.8265 23.1296 44.9645 22.5912 44.9595C22.0529 44.9645 21.5228 44.8265 21.0553 44.5595C20.5961 44.2993 20.217 43.9182 19.9594 43.4576C19.6873 42.9725 19.5493 42.4237 19.5594 41.8677C19.549 41.3128 19.6871 40.7653 19.9594 40.2817C20.2184 39.8232 20.5972 39.4436 21.0553 39.1838C21.5228 38.9168 22.0529 38.7788 22.5912 38.7838C23.1302 38.7791 23.6608 38.9171 24.1292 39.1838ZM21.4493 40.6037C21.1543 40.9566 21.0042 41.4084 21.0293 41.8677C21.0041 42.3251 21.1543 42.775 21.4493 43.1256C21.593 43.2818 21.7692 43.4046 21.9654 43.4854C22.1617 43.5663 22.3732 43.6032 22.5852 43.5935C22.7966 43.6023 23.0073 43.565 23.2028 43.4842C23.3982 43.4034 23.5737 43.281 23.7172 43.1256C24.0136 42.7756 24.1653 42.3257 24.1412 41.8677C24.1652 41.4103 24.0151 40.9609 23.7212 40.6097C23.5776 40.4534 23.4014 40.3305 23.2051 40.2497C23.0089 40.1688 22.7973 40.1319 22.5852 40.1417C22.3737 40.132 22.1627 40.1683 21.9666 40.2481C21.7704 40.3278 21.594 40.4491 21.4493 40.6037Z" fill="white"/>
<path d="M31.0867 39.426C31.5939 39.8387 31.9389 40.4174 32.0607 41.0599H30.5207C30.4168 40.7936 30.2349 40.5649 29.9988 40.4039C29.7499 40.2418 29.4577 40.1589 29.1608 40.1659C28.9647 40.1596 28.7698 40.1986 28.5912 40.2797C28.4126 40.3609 28.2551 40.4821 28.1309 40.6339C27.8525 40.9902 27.7107 41.4342 27.7309 41.8858C27.7105 42.3357 27.8525 42.7778 28.1309 43.1318C28.2561 43.282 28.414 43.4017 28.5924 43.4818C28.7709 43.5619 28.9653 43.6001 29.1608 43.5937C29.4578 43.6016 29.7502 43.5186 29.9988 43.3557C30.2336 43.1976 30.4154 42.9726 30.5207 42.7098H32.0607C31.9369 43.3504 31.5922 43.9272 31.0867 44.3397C30.5427 44.7551 29.8707 44.9673 29.1868 44.9397C28.648 44.951 28.116 44.817 27.6469 44.5517C27.2078 44.2965 26.8516 43.9202 26.6209 43.4677C26.3724 42.9716 26.2482 42.4226 26.2589 41.8678C26.2483 41.3131 26.3725 40.764 26.6209 40.2679C26.8516 39.8155 27.2078 39.4392 27.6469 39.184C28.116 38.9187 28.648 38.7846 29.1868 38.796C29.8742 38.7778 30.5463 39.0006 31.0867 39.426Z" fill="white"/>
<path d="M36.5261 44.8955L35.2582 43.0236L34.1703 44.8955H32.5023L34.4262 41.7997L32.4443 38.8818H34.1703L35.4042 40.6937L36.4661 38.8818H38.1261L36.2282 41.9097L38.2521 44.8955H36.5261Z" fill="white"/>
</svg>
