<svg width="15" height="15" viewBox="0 0 15 15" fill="none" xmlns="http://www.w3.org/2000/svg">
<path d="M7.61692 3.71645L7.61692 3.72217M7.61692 7.71736L7.61692 7.72307M7.61692 11.7183L7.61692 11.724M7.61692 4.28801C7.30126 4.28801 7.04536 4.03212 7.04536 3.71645C7.04536 3.40079 7.30126 3.1449 7.61692 3.1449C7.93258 3.1449 8.18848 3.40079 8.18848 3.71645C8.18848 4.03212 7.93258 4.28801 7.61692 4.28801ZM7.61692 8.28891C7.30126 8.28891 7.04536 8.03302 7.04536 7.71736C7.04536 7.40169 7.30126 7.1458 7.61692 7.1458C7.93258 7.1458 8.18848 7.40169 8.18848 7.71736C8.18848 8.03302 7.93258 8.28891 7.61692 8.28891ZM7.61692 12.2898C7.30126 12.2898 7.04536 12.0339 7.04536 11.7183C7.04536 11.4026 7.30126 11.1467 7.61692 11.1467C7.93258 11.1467 8.18848 11.4026 8.18848 11.7183C8.18848 12.0339 7.93258 12.2898 7.61692 12.2898Z" stroke="white" stroke-width="1.14311" stroke-linecap="round" stroke-linejoin="round"/>
</svg>
