<svg width="15" height="14" viewBox="0 0 15 14" fill="none" xmlns="http://www.w3.org/2000/svg">
<path fill-rule="evenodd" clip-rule="evenodd" d="M11.0059 5.06061C11.2475 5.06061 11.4434 5.25649 11.4434 5.49811L11.4434 10.5056C11.4434 10.6216 11.3973 10.7329 11.3152 10.815C11.2332 10.897 11.1219 10.9431 11.0059 10.9431L5.99836 10.9431C5.75674 10.9431 5.56087 10.7472 5.56086 10.5056C5.56086 10.264 5.75674 10.0681 5.99836 10.0681L10.5684 10.0681L10.5684 5.49811C10.5684 5.25649 10.7642 5.06061 11.0059 5.06061Z" fill="#EE201C"/>
<path fill-rule="evenodd" clip-rule="evenodd" d="M3.68478 3.18485C3.85564 3.01399 4.13265 3.01399 4.3035 3.18485L11.2455 10.1269C11.4164 10.2977 11.4164 10.5747 11.2455 10.7456C11.0747 10.9164 10.7977 10.9164 10.6268 10.7456L3.68478 3.80357C3.51393 3.63271 3.51393 3.3557 3.68478 3.18485Z" fill="#EE201C"/>
</svg>
