<svg width="20" height="20" viewBox="0 0 20 20" fill="none" xmlns="http://www.w3.org/2000/svg">
<path fill-rule="evenodd" clip-rule="evenodd" d="M5.08551 13.2274L7.56634 13.0016L12.233 8.33077L9.98634 6.08327L5.30551 10.7641L5.08551 13.2274ZM11.103 4.96743L13.3488 7.21327L14.9713 5.58827L12.7263 3.34327L11.103 4.96743ZM3.57719 14.7374C3.40219 14.5624 3.31469 14.3191 3.33636 14.0724L3.65219 10.5974C3.68719 10.2166 3.85553 9.85743 4.12719 9.58577L11.6239 2.0891C12.2089 1.5016 13.2697 1.53077 13.8872 2.1466L16.1689 4.42827L16.1697 4.4291C16.8072 5.06743 16.833 6.08243 16.2264 6.69077L8.72886 14.1883C8.45803 14.4591 8.09886 14.6274 7.71719 14.6624L4.24219 14.9783C4.21719 14.9799 4.19219 14.9808 4.16636 14.9808C3.94719 14.9808 3.73469 14.8941 3.57719 14.7374ZM16.6663 17.4808C16.6663 17.9391 16.2913 18.3141 15.833 18.3141H4.16634C3.70884 18.3141 3.33301 17.9391 3.33301 17.4808C3.33301 17.0233 3.70884 16.6474 4.16634 16.6474H15.833C16.2913 16.6474 16.6663 17.0233 16.6663 17.4808Z" fill="#004F71"/>
</svg>
