<svg width="17" height="17" viewBox="0 0 17 17" fill="none" xmlns="http://www.w3.org/2000/svg">
<path fill-rule="evenodd" clip-rule="evenodd" d="M8.08301 13.4069C8.08301 13.0431 8.37797 12.7481 8.74182 12.7481H14.6711C15.0349 12.7481 15.3299 13.0431 15.3299 13.4069C15.3299 13.7708 15.0349 14.0657 14.6711 14.0657H8.74182C8.37797 14.0657 8.08301 13.7708 8.08301 13.4069Z" fill="#333333"/>
<path fill-rule="evenodd" clip-rule="evenodd" d="M12.6948 2.78603C12.4988 2.78603 12.3109 2.86386 12.1724 3.0024L4.06632 11.1085L3.71808 12.5014L5.11105 12.1532L13.2171 4.04713C13.2857 3.97853 13.3401 3.8971 13.3773 3.80747C13.4144 3.71784 13.4335 3.62178 13.4335 3.52477C13.4335 3.42775 13.4144 3.33169 13.3773 3.24206C13.3401 3.15244 13.2857 3.071 13.2171 3.0024C13.1485 2.9338 13.0671 2.87939 12.9775 2.84226C12.8878 2.80514 12.7918 2.78603 12.6948 2.78603ZM11.2407 2.07071C11.6263 1.68506 12.1494 1.46841 12.6948 1.46841C12.9648 1.46841 13.2322 1.5216 13.4817 1.62494C13.7312 1.72829 13.9579 1.87976 14.1488 2.07071C14.3398 2.26166 14.4912 2.48835 14.5946 2.73783C14.6979 2.98732 14.7511 3.25472 14.7511 3.52477C14.7511 3.79481 14.6979 4.06221 14.5946 4.3117C14.4912 4.56119 14.3398 4.78788 14.1488 4.97883L5.91371 13.2139C5.82928 13.2984 5.72349 13.3583 5.60765 13.3872L2.97242 14.046C2.74791 14.1022 2.51042 14.0364 2.34678 13.8727C2.18315 13.7091 2.11737 13.4716 2.17349 13.2471L2.8323 10.6119C2.86126 10.496 2.92116 10.3902 3.00559 10.3058L11.2407 2.07071Z" fill="#333333"/>
</svg>
