<svg width="20" height="20" viewBox="0 0 20 20" fill="none" xmlns="http://www.w3.org/2000/svg">
<path fill-rule="evenodd" clip-rule="evenodd" d="M2.74415 5.4293C2.74415 4.98726 3.10249 4.62891 3.54454 4.62891H16.343C16.7851 4.62891 17.1434 4.98726 17.1434 5.4293V14.4931C17.1434 15.3772 16.4267 16.0939 15.5426 16.0939H4.33711C3.45302 16.0939 2.73633 15.3772 2.73633 14.4931V5.6888C2.73633 5.65069 2.73899 5.6132 2.74415 5.5765V5.4293ZM4.33708 7.2107V14.4946H15.5426V7.21097L11.6379 11.1157C10.7001 12.0534 9.17978 12.0534 8.24207 11.1157L4.33708 7.2107ZM5.59557 6.20312H14.2844L10.506 9.98159C10.1934 10.2941 9.6866 10.2941 9.37405 9.98159L5.59557 6.20312Z" fill="#F1AC21"/>
</svg>
