<svg width="41" height="49" viewBox="0 0 41 49" fill="none" xmlns="http://www.w3.org/2000/svg">
<g opacity="0.3">
<path opacity="0.3" d="M28.4323 10.6155C27.3389 10.6145 26.2907 10.1797 25.5175 9.40649C24.7444 8.63333 24.3096 7.58499 24.3086 6.49156V0.767578H5.88368C5.17669 0.767578 4.47661 0.906845 3.82343 1.17742C3.17025 1.44799 2.57678 1.84455 2.07686 2.3445C1.57694 2.84445 1.18037 3.43799 0.909814 4.0912C0.639259 4.74442 0.5 5.44454 0.5 6.15157V38.5935C0.5 39.3005 0.639259 40.0006 0.909814 40.6538C1.18037 41.3071 1.57694 41.9006 2.07686 42.4005C2.57678 42.9005 3.17025 43.2971 3.82343 43.5676C4.47661 43.8382 5.17669 43.9775 5.88368 43.9775H28.0023C28.7092 43.9775 29.4092 43.8382 30.0623 43.5676C30.7153 43.297 31.3087 42.9004 31.8085 42.4004C32.3082 41.9004 32.7046 41.3069 32.9749 40.6537C33.2453 40.0005 33.3843 39.3004 33.384 38.5935V10.6176L28.4323 10.6155Z" fill="#FF9908"/>
</g>
<path d="M33.3843 10.615H28.4326C27.3392 10.6139 26.2909 10.1791 25.5178 9.40599C24.7447 8.63287 24.3099 7.58459 24.3088 6.49123V0.767578L33.3843 10.615Z" fill="#FF9908"/>
<path d="M37.2883 34.8877H12.2819C10.508 34.8877 9.07007 36.3258 9.07007 38.0997V45.5557C9.07007 47.3296 10.508 48.7677 12.2819 48.7677H37.2883C39.0622 48.7677 40.5001 47.3296 40.5001 45.5557V38.0997C40.5001 36.3258 39.0622 34.8877 37.2883 34.8877Z" fill="#FF9908"/>
<path d="M17.9571 43.4414V44.8973H16.4512V43.4414H17.9571Z" fill="white"/>
<path d="M20.1669 40.0397V41.2977H22.1987V42.3956H20.1669V43.7315H22.4547V44.8974H18.7109V38.8838H22.4547V40.0397H20.1669Z" fill="white"/>
<path d="M24.7347 42.7876V44.8974H23.2788V38.8838H25.6347C26.3506 38.8838 26.8953 39.0604 27.2686 39.4138C27.4578 39.5999 27.6056 39.8237 27.7024 40.0708C27.7992 40.3179 27.8429 40.5826 27.8305 40.8477C27.8368 41.1975 27.7498 41.5426 27.5785 41.8476C27.4055 42.1466 27.1462 42.3864 26.8346 42.5356C26.4604 42.714 26.049 42.8004 25.6347 42.7876H24.7347ZM26.3506 40.8477C26.3506 40.3144 26.0586 40.0477 25.4747 40.0477H24.7347V41.6136H25.4747C26.0626 41.619 26.3566 41.3637 26.3566 40.8477H26.3506Z" fill="white"/>
<path d="M32.6221 44.0792C32.4507 44.3563 32.2027 44.5779 31.9082 44.7171C31.551 44.8857 31.159 44.9673 30.7642 44.9551C30.1693 44.9791 29.583 44.8062 29.0963 44.4632C28.8821 44.3013 28.7068 44.0935 28.5832 43.8551C28.4597 43.6167 28.3911 43.3536 28.3824 43.0852H29.9303C29.9432 43.2874 30.0292 43.4779 30.1723 43.6212C30.3166 43.7549 30.5076 43.8267 30.7042 43.8212C30.8659 43.831 31.0248 43.7764 31.1462 43.6692C31.1996 43.6175 31.2415 43.5552 31.2694 43.4863C31.2973 43.4174 31.3105 43.3435 31.3082 43.2692C31.3103 43.1986 31.2982 43.1283 31.2728 43.0624C31.2474 42.9964 31.2092 42.9362 31.1602 42.8853C31.0544 42.7785 30.9287 42.6936 30.7902 42.6353C30.6423 42.5699 30.4383 42.492 30.1783 42.4013C29.8594 42.2966 29.548 42.1703 29.2463 42.0233C28.9976 41.8948 28.784 41.7074 28.6244 41.4774C28.4415 41.1991 28.3512 40.8701 28.3664 40.5374C28.358 40.2079 28.4531 39.8841 28.6384 39.6115C28.8269 39.3441 29.0878 39.136 29.3903 39.0115C29.7401 38.8703 30.1152 38.8022 30.4923 38.8115C31.0647 38.7793 31.6304 38.9476 32.0922 39.2875C32.2851 39.4435 32.4437 39.6378 32.5579 39.858C32.6722 40.0783 32.7397 40.3198 32.7561 40.5674H31.1822C31.1647 40.3904 31.0887 40.2244 30.9662 40.0954C30.9035 40.036 30.8292 39.9899 30.7481 39.9599C30.667 39.93 30.5806 39.9169 30.4942 39.9214C30.3448 39.9138 30.1978 39.9623 30.0823 40.0574C30.0276 40.108 29.985 40.1702 29.9577 40.2394C29.9303 40.3086 29.9189 40.3831 29.9243 40.4574C29.9226 40.5237 29.9341 40.5897 29.9581 40.6515C29.9822 40.7133 30.0183 40.7697 30.0643 40.8174C30.1649 40.9214 30.2853 41.0043 30.4183 41.0614C30.5603 41.1234 30.7642 41.2034 31.0302 41.2994C31.3543 41.4036 31.6699 41.5326 31.9742 41.6853C32.225 41.8194 32.4408 42.0105 32.6041 42.2433C32.7903 42.5248 32.8827 42.858 32.8681 43.1952C32.8711 43.5072 32.7858 43.8136 32.6221 44.0792Z" fill="white"/>
<path d="M25.105 26.3131H24.6071C24.6044 24.2949 23.8014 22.3601 22.3741 20.9332C20.9468 19.5062 19.0118 18.7037 16.9935 18.7016C14.9755 18.7037 13.0407 19.5063 11.6137 20.9333C10.1867 22.3603 9.38412 24.295 9.382 26.3131H8.88403C8.88668 24.1631 9.74193 22.102 11.2622 20.5817C12.7824 19.0615 14.8436 18.2063 16.9935 18.2036C19.1439 18.2057 21.2055 19.0607 22.7262 20.581C24.2469 22.1013 25.1024 24.1628 25.105 26.3131Z" fill="#FF9908"/>
<path d="M28.5184 18.2036H5.46777V18.7016H28.5184V18.2036Z" fill="#FF9908"/>
<path d="M9.92983 25.5176H8.33594V27.1115H9.92983V25.5176Z" fill="#FF9908"/>
<path d="M25.653 25.5176H24.0591V27.1115H25.653V25.5176Z" fill="#FF9908"/>
<path d="M17.7912 17.6294H16.1973V19.2233H17.7912V17.6294Z" fill="#FF9908"/>
<path d="M5.44224 19.2253C5.88293 19.2253 6.24019 18.868 6.24019 18.4273C6.24019 17.9866 5.88293 17.6294 5.44224 17.6294C5.00154 17.6294 4.64429 17.9866 4.64429 18.4273C4.64429 18.868 5.00154 19.2253 5.44224 19.2253Z" fill="#FF9908"/>
<path d="M28.4423 19.2253C28.883 19.2253 29.2402 18.868 29.2402 18.4273C29.2402 17.9866 28.883 17.6294 28.4423 17.6294C28.0016 17.6294 27.6443 17.9866 27.6443 18.4273C27.6443 18.868 28.0016 19.2253 28.4423 19.2253Z" fill="#FF9908"/>
</svg>
