<svg width="41" height="49" viewBox="0 0 41 49" fill="none" xmlns="http://www.w3.org/2000/svg">
<g opacity="0.3">
<path opacity="0.3" d="M28.442 10.6177C27.348 10.6166 26.2992 10.1816 25.5256 9.40806C24.7521 8.63455 24.317 7.58574 24.316 6.49183V0.768066H5.88198C4.45459 0.768066 3.08566 1.33506 2.07634 2.34434C1.06702 3.35362 0.5 4.72251 0.5 6.14985V38.5925C0.50212 40.0184 1.07008 41.3853 2.07917 42.3928C3.08827 43.4004 4.45597 43.9663 5.88198 43.9663H28.002C29.4294 43.9663 30.7983 43.3993 31.8076 42.39C32.8169 41.3807 33.384 40.0118 33.384 38.5845V10.6096L28.442 10.6177Z" fill="#0072FF"/>
</g>
<path d="M33.3839 10.6176H28.4419C27.348 10.6165 26.2991 10.1815 25.5256 9.40793C24.752 8.63439 24.317 7.58554 24.3159 6.49158V0.767578L33.3839 10.6176Z" fill="#0072FF"/>
<path d="M37.2879 34.8882H12.2799C10.5059 34.8882 9.06787 36.3262 9.06787 38.1V45.5557C9.06787 47.3296 10.5059 48.7676 12.2799 48.7676H37.2879C39.0618 48.7676 40.4999 47.3296 40.4999 45.5557V38.1C40.4999 36.3262 39.0618 34.8882 37.2879 34.8882Z" fill="#0072FF"/>
<path d="M17.9381 43.4424V44.8964H16.4421V43.4424H17.9381Z" fill="white"/>
<path d="M20.15 40.0378V41.2979H22.182V42.3938H20.15V43.7298H22.442V44.8958H18.698V38.8818H22.442V40.0378H20.15Z" fill="white"/>
<path d="M26.9121 44.8958L25.6441 43.0239L24.5561 44.8958H22.8881L24.8101 41.7999L22.8281 38.8818H24.5561L25.7881 40.6938L26.8521 38.8818H28.5121L26.6141 41.9098L28.6381 44.8958H26.9121Z" fill="white"/>
<path d="M30.6537 40.0378V41.2979H32.6877V42.3938H30.6537V43.7298H32.9417V44.8958H29.1997V38.8818H32.9417V40.0378H30.6537Z" fill="white"/>
<path d="M16.942 30.3085C16.714 30.3085 16.4952 30.2179 16.3339 30.0567C16.1727 29.8954 16.082 29.6766 16.082 29.4486V28.1266C16.082 28.0137 16.1043 27.902 16.1475 27.7978C16.1908 27.6935 16.2542 27.5988 16.3341 27.5191C16.4139 27.4394 16.5088 27.3763 16.6131 27.3333C16.7174 27.2903 16.8292 27.2683 16.942 27.2686C17.1696 27.2686 17.3878 27.3589 17.5487 27.5199C17.7096 27.6808 17.8 27.899 17.8 28.1266V29.4486C17.8 29.6763 17.7097 29.8947 17.5489 30.056C17.388 30.2172 17.1698 30.308 16.942 30.3085Z" fill="#0072FF"/>
<path d="M16.942 19.6516C16.714 19.6516 16.4952 19.5609 16.3339 19.3997C16.1727 19.2384 16.082 19.0196 16.082 18.7916V17.2536C16.082 17.0255 16.1727 16.8067 16.3339 16.6454C16.4952 16.4842 16.714 16.3936 16.942 16.3936C17.1698 16.3941 17.388 16.4849 17.5489 16.6461C17.7097 16.8074 17.8 17.0258 17.8 17.2536V18.7916C17.8 19.0193 17.7097 19.2377 17.5489 19.399C17.388 19.5602 17.1698 19.651 16.942 19.6516Z" fill="#0072FF"/>
<path d="M19.9922 29.4929C19.841 29.4931 19.6924 29.4535 19.5615 29.378C19.4305 29.3025 19.3217 29.1938 19.2462 29.0629L18.6061 27.9509C18.4924 27.7539 18.4616 27.5197 18.5204 27.2999C18.5793 27.0801 18.7231 26.8927 18.9202 26.7789C19.0178 26.7223 19.1257 26.6854 19.2376 26.6706C19.3495 26.6557 19.4633 26.663 19.5723 26.6922C19.6814 26.7214 19.7836 26.7718 19.8732 26.8406C19.9627 26.9093 20.0378 26.9951 20.0942 27.0929L20.7341 28.2029C20.848 28.4003 20.8789 28.6348 20.82 28.8549C20.7612 29.075 20.6173 29.2627 20.4202 29.3769C20.29 29.4522 20.1425 29.4922 19.9922 29.4929Z" fill="#0072FF"/>
<path d="M14.6818 20.293C14.5306 20.2932 14.3821 20.2536 14.2511 20.1781C14.1201 20.1026 14.0114 19.9939 13.9358 19.863L13.1478 18.501C13.0341 18.3034 13.0035 18.0687 13.0628 17.8486C13.122 17.6284 13.2663 17.4408 13.4638 17.327C13.6611 17.2131 13.8956 17.1822 14.1157 17.2411C14.3359 17.3 14.5236 17.4438 14.6378 17.641L15.4238 19.005C15.5377 19.2023 15.5685 19.4368 15.5097 19.657C15.4508 19.8771 15.307 20.0648 15.1098 20.179C14.9795 20.2538 14.832 20.2931 14.6818 20.293Z" fill="#0072FF"/>
<path d="M22.2218 27.259C22.0716 27.2591 21.924 27.2198 21.7938 27.145L20.6817 26.503C20.4846 26.3889 20.3408 26.2011 20.2819 25.981C20.223 25.7609 20.2539 25.5264 20.3678 25.329C20.4816 25.1315 20.6692 24.9873 20.8893 24.928C21.1095 24.8687 21.3442 24.8993 21.5418 25.013L22.6538 25.655C22.851 25.7692 22.9947 25.9569 23.0536 26.177C23.1125 26.3972 23.0816 26.6317 22.9678 26.829C22.8922 26.9599 22.7834 27.0686 22.6524 27.1441C22.5215 27.2196 22.3729 27.2592 22.2218 27.259Z" fill="#0072FF"/>
<path d="M13.0219 21.9492C12.8715 21.9488 12.7239 21.9088 12.5939 21.8332L11.2298 21.0472C11.0327 20.933 10.8889 20.7452 10.83 20.5251C10.7711 20.305 10.802 20.0705 10.9159 19.8732C10.9722 19.7753 11.0473 19.6896 11.1368 19.6208C11.2264 19.5521 11.3286 19.5017 11.4377 19.4725C11.5467 19.4433 11.6605 19.436 11.7724 19.4508C11.8843 19.4657 11.9922 19.5025 12.0899 19.5592L13.4539 20.3452C13.6506 20.4597 13.7941 20.6475 13.8529 20.8674C13.9118 21.0874 13.8812 21.3217 13.7679 21.5192C13.6923 21.6501 13.5835 21.7588 13.4525 21.8343C13.3216 21.9098 13.173 21.9494 13.0219 21.9492Z" fill="#0072FF"/>
<path d="M23.0419 24.2107H21.7179C21.4898 24.2107 21.2711 24.1201 21.1098 23.9588C20.9485 23.7975 20.8579 23.5788 20.8579 23.3507C20.8584 23.1229 20.9493 22.9047 21.1105 22.7438C21.2717 22.583 21.4902 22.4927 21.7179 22.4927H23.0419C23.2697 22.4927 23.4881 22.583 23.6493 22.7438C23.8105 22.9047 23.9014 23.1229 23.9019 23.3507C23.9019 23.5788 23.8113 23.7975 23.65 23.9588C23.4887 24.1201 23.27 24.2107 23.0419 24.2107Z" fill="#0072FF"/>
<path d="M12.378 24.2107H10.8419C10.6139 24.2107 10.3951 24.1201 10.2338 23.9588C10.0726 23.7975 9.98193 23.5788 9.98193 23.3507C9.98246 23.1229 10.0733 22.9047 10.2345 22.7438C10.3958 22.583 10.6142 22.4927 10.8419 22.4927H12.376C12.4888 22.4924 12.6006 22.5144 12.7049 22.5574C12.8092 22.6004 12.9041 22.6636 12.9839 22.7433C13.0638 22.823 13.1272 22.9176 13.1704 23.0219C13.2137 23.1261 13.2359 23.2378 13.2359 23.3507C13.2362 23.4635 13.2142 23.5753 13.1712 23.6796C13.1282 23.784 13.0651 23.8788 12.9854 23.9587C12.9057 24.0386 12.811 24.1019 12.7067 24.1452C12.6025 24.1884 12.4908 24.2107 12.378 24.2107Z" fill="#0072FF"/>
<path d="M21.0181 21.8564C20.8671 21.8566 20.7188 21.8172 20.5879 21.7421C20.4569 21.667 20.3481 21.5589 20.2721 21.4284C20.1584 21.2308 20.1278 20.9962 20.187 20.776C20.2463 20.5559 20.3905 20.3683 20.5881 20.2544L21.7881 19.5584C21.9854 19.4446 22.2199 19.4137 22.44 19.4726C22.6601 19.5314 22.8479 19.6753 22.962 19.8724C23.0759 20.0698 23.1068 20.3043 23.0479 20.5244C22.9891 20.7445 22.8452 20.9323 22.6481 21.0464L21.4481 21.7424C21.3173 21.8178 21.1689 21.8571 21.0181 21.8564Z" fill="#0072FF"/>
<path d="M11.6598 27.259C11.5089 27.2593 11.3606 27.2196 11.23 27.1441C11.0993 27.0686 10.991 26.9599 10.9159 26.829C10.802 26.6316 10.7711 26.3971 10.83 26.177C10.8889 25.9569 11.0327 25.7692 11.2298 25.655L12.5019 24.921C12.6993 24.8077 12.9336 24.7771 13.1536 24.8359C13.3736 24.8947 13.5613 25.0382 13.6759 25.235C13.7896 25.4326 13.8201 25.6673 13.7609 25.8874C13.7016 26.1075 13.5574 26.2951 13.3598 26.409L12.0899 27.143C11.9595 27.2196 11.811 27.2596 11.6598 27.259Z" fill="#0072FF"/>
<path d="M17.042 28.9886H16.904C15.921 28.9656 14.9623 28.679 14.128 28.1586C13.3035 27.6475 12.6277 26.9289 12.168 26.0746C11.7383 25.2703 11.513 24.3726 11.512 23.4606C11.512 23.4146 11.512 23.3686 11.512 23.3226C11.5356 22.3828 11.7986 21.4645 12.276 20.6546C12.7527 19.8458 13.4272 19.1714 14.236 18.6946C15.0492 18.2169 15.971 17.9546 16.914 17.9326H17.04C17.953 17.9317 18.852 18.1578 19.656 18.5906C20.5095 19.0487 21.2275 19.7233 21.738 20.5466C22.2589 21.3849 22.5449 22.3479 22.566 23.3346C22.566 23.3686 22.566 23.4146 22.566 23.4606C22.5662 24.4154 22.3188 25.354 21.848 26.1846C21.3558 27.0564 20.6353 27.7776 19.764 28.2706C18.9338 28.7409 17.9961 28.9883 17.042 28.9886ZM17.02 19.6486H16.966C16.3126 19.6628 15.6736 19.8439 15.11 20.1746C14.5526 20.5033 14.0875 20.9678 13.758 21.5246C13.4317 22.0846 13.2541 22.7187 13.242 23.3666C13.242 23.4026 13.242 23.4286 13.242 23.4546C13.2415 24.0828 13.3968 24.7012 13.694 25.2546C14.0104 25.845 14.4767 26.3416 15.046 26.6946C15.6235 27.0529 16.2865 27.2497 16.966 27.2646H17.054C17.7122 27.2654 18.3593 27.0952 18.932 26.7706C19.5333 26.4303 20.0305 25.9324 20.37 25.3306C20.6942 24.7586 20.8644 24.1122 20.864 23.4546V23.3786C20.8491 22.6951 20.6517 22.028 20.292 21.4466C19.9401 20.8789 19.4448 20.414 18.856 20.0986C18.2931 19.7981 17.664 19.6434 17.026 19.6486H17.02Z" fill="#0072FF"/>
<path d="M19.2541 20.2028C19.1038 20.2034 18.9561 20.164 18.8261 20.0888C18.7282 20.0324 18.6425 19.9573 18.5737 19.8678C18.505 19.7782 18.4545 19.676 18.4254 19.5669C18.3962 19.4579 18.3888 19.3441 18.4037 19.2322C18.4186 19.1203 18.4554 19.0124 18.512 18.9148L19.2461 17.6408C19.3024 17.5429 19.3775 17.4572 19.467 17.3884C19.5566 17.3197 19.6588 17.2692 19.7679 17.2401C19.8769 17.2109 19.9907 17.2035 20.1026 17.2184C20.2145 17.2333 20.3224 17.2701 20.4201 17.3268C20.5179 17.3831 20.6036 17.4582 20.6724 17.5477C20.7412 17.6373 20.7915 17.7395 20.8207 17.8486C20.8499 17.9577 20.8573 18.0714 20.8424 18.1833C20.8275 18.2952 20.7907 18.4031 20.734 18.5008L20.0001 19.7728C19.9245 19.9037 19.8157 20.0124 19.6847 20.0878C19.5538 20.1633 19.4052 20.203 19.2541 20.2028Z" fill="#0072FF"/>
<path d="M13.8918 29.4928C13.7414 29.4927 13.5937 29.4527 13.4638 29.3768C13.2663 29.263 13.122 29.0754 13.0628 28.8552C13.0035 28.6351 13.0341 28.4004 13.1478 28.2028L13.8438 27.0028C13.958 26.8056 14.1457 26.6618 14.3658 26.6029C14.5859 26.5441 14.8204 26.5749 15.0178 26.6888C15.215 26.803 15.3588 26.9907 15.4177 27.2108C15.4765 27.431 15.4456 27.6654 15.3318 27.8628L14.6378 29.0628C14.5622 29.1937 14.4534 29.3024 14.3225 29.3779C14.1915 29.4534 14.043 29.493 13.8918 29.4928Z" fill="#0072FF"/>
</svg>
