<svg width="65" height="64" viewBox="0 0 65 64" fill="none" xmlns="http://www.w3.org/2000/svg">
<g clip-path="url(#clip0_559_47065)">
<path d="M29.1191 0.0585938C28.5684 0.0585938 28.1191 0.503906 28.1191 1.05469V10H15.1191C14.5684 10 14.1191 10.4453 14.1191 11C14.1191 11.5547 14.5684 12 15.1191 12H16.1191V32H5.11914C3.4668 32 2.11914 33.3477 2.11914 35C2.11914 36.3008 2.95898 37.4023 4.11914 37.8164V62H1.11914C0.56836 62 0.119141 62.4453 0.119141 63C0.119141 63.5547 0.56836 64 1.11914 64H63.1191C63.6699 64 64.1191 63.5547 64.1191 63C64.1191 62.4453 63.6699 62 63.1191 62H60.1191V28H61.1191C61.6699 28 62.1191 27.5547 62.1191 27C62.1191 26.4453 61.6699 26 61.1191 26H52.1191V24C52.1191 22.8984 51.2207 22 50.1191 22H46.1191V12H47.1191C47.6699 12 48.1191 11.5547 48.1191 11C48.1191 10.4453 47.6699 10 47.1191 10H34.1191V6.05469C34.1191 5.50391 33.6699 5.05469 33.1191 5.05469C32.5684 5.05469 32.1191 5.50391 32.1191 6.05469V10H30.1191V1.05469C30.1191 0.503906 29.6699 0.0585938 29.1191 0.0585938ZM18.1191 12H44.1191V62H18.1191V12ZM23.1191 16C22.5684 16 22.1191 16.4453 22.1191 17V23C22.1191 23.5547 22.5684 24 23.1191 24C23.6699 24 24.1191 23.5547 24.1191 23V17C24.1191 16.4453 23.6699 16 23.1191 16ZM31.1191 16C30.5684 16 30.1191 16.4453 30.1191 17V19C30.1191 19.5547 30.5684 20 31.1191 20C31.6699 20 32.1191 19.5547 32.1191 19V17C32.1191 16.4453 31.6699 16 31.1191 16ZM39.1191 16C38.5684 16 38.1191 16.4453 38.1191 17V23C38.1191 23.5547 38.5684 24 39.1191 24C39.6699 24 40.1191 23.5547 40.1191 23V17C40.1191 16.4453 39.6699 16 39.1191 16ZM31.1191 24C30.5684 24 30.1191 24.4453 30.1191 25V26C27.9121 26 26.1191 27.793 26.1191 30V31C26.1191 33.207 27.9121 35 30.1191 35H32.1191C33.2207 35 34.1191 35.8984 34.1191 37V38C34.1191 39.1016 33.2207 40 32.1191 40V37C32.1191 36.4453 31.6699 36 31.1191 36C30.5684 36 30.1191 36.4453 30.1191 37V40C29.0176 40 28.1191 39.1016 28.1191 38C28.1191 37.4453 27.6699 37 27.1191 37C26.5684 37 26.1191 37.4453 26.1191 38C26.1191 40.207 27.9121 42 30.1191 42V43C30.1191 43.5547 30.5684 44 31.1191 44C31.6699 44 32.1191 43.5547 32.1191 43V42C34.3262 42 36.1191 40.207 36.1191 38V37C36.1191 34.793 34.3262 33 32.1191 33V30C32.1191 29.4453 31.6699 29 31.1191 29C30.5684 29 30.1191 29.4453 30.1191 30V33C29.0176 33 28.1191 32.1016 28.1191 31V30C28.1191 28.8984 29.0176 28 30.1191 28H32.1191C33.2207 28 34.1191 28.8984 34.1191 30C34.1191 30.5547 34.5684 31 35.1191 31C35.6699 31 36.1191 30.5547 36.1191 30C36.1191 27.793 34.3262 26 32.1191 26V25C32.1191 24.4453 31.6699 24 31.1191 24ZM46.1191 24H50.1191V28H58.1191V40H48.1191C47.5684 40 47.1191 40.4453 47.1191 41C47.1191 41.5547 47.5684 42 48.1191 42H58.1191V62H46.1191V24ZM51.1191 30C50.5684 30 50.1191 30.4453 50.1191 31C50.1191 31.5547 50.5684 32 51.1191 32H53.1191C53.6699 32 54.1191 31.5547 54.1191 31C54.1191 30.4453 53.6699 30 53.1191 30H51.1191ZM5.11914 34H16.1191V36H5.11914C4.56836 36 4.11914 35.5508 4.11914 35C4.11914 34.4492 4.56836 34 5.11914 34ZM51.1191 34C50.5684 34 50.1191 34.4453 50.1191 35C50.1191 35.5547 50.5684 36 51.1191 36H53.1191C53.6699 36 54.1191 35.5547 54.1191 35C54.1191 34.4453 53.6699 34 53.1191 34H51.1191ZM6.11914 38H16.1191V62H14.1191V57.9492C14.1191 56.8477 13.2207 55.9492 12.1191 55.9492H10.1191C9.01758 55.9492 8.11914 56.8477 8.11914 57.9492V62H6.11914V38ZM10.1191 40C9.56836 40 9.11914 40.4453 9.11914 41C9.11914 41.5547 9.56836 42 10.1191 42H12.1191C12.6699 42 13.1191 41.5547 13.1191 41C13.1191 40.4453 12.6699 40 12.1191 40H10.1191ZM10.1191 44C9.56836 44 9.11914 44.4453 9.11914 45C9.11914 45.5547 9.56836 46 10.1191 46H12.1191C12.6699 46 13.1191 45.5547 13.1191 45C13.1191 44.4453 12.6699 44 12.1191 44H10.1191ZM23.1191 44C22.5684 44 22.1191 44.4453 22.1191 45V51C22.1191 51.5547 22.5684 52 23.1191 52C23.6699 52 24.1191 51.5547 24.1191 51V45C24.1191 44.4453 23.6699 44 23.1191 44ZM39.1191 44C38.5684 44 38.1191 44.4453 38.1191 45V57C38.1191 57.5547 38.5684 58 39.1191 58C39.6699 58 40.1191 57.5547 40.1191 57V45C40.1191 44.4453 39.6699 44 39.1191 44ZM51.1191 44C50.5684 44 50.1191 44.4453 50.1191 45C50.1191 45.5547 50.5684 46 51.1191 46H53.1191C53.6699 46 54.1191 45.5547 54.1191 45C54.1191 44.4453 53.6699 44 53.1191 44H51.1191ZM10.1191 48C9.56836 48 9.11914 48.4453 9.11914 49C9.11914 49.5547 9.56836 50 10.1191 50H12.1191C12.6699 50 13.1191 49.5547 13.1191 49C13.1191 48.4453 12.6699 48 12.1191 48H10.1191ZM31.1191 48C30.5684 48 30.1191 48.4453 30.1191 49V57C30.1191 57.5547 30.5684 58 31.1191 58C31.6699 58 32.1191 57.5547 32.1191 57V49C32.1191 48.4453 31.6699 48 31.1191 48ZM51.1191 48C50.5684 48 50.1191 48.4453 50.1191 49C50.1191 49.5547 50.5684 50 51.1191 50H53.1191C53.6699 50 54.1191 49.5547 54.1191 49C54.1191 48.4453 53.6699 48 53.1191 48H51.1191ZM10.1191 52C9.56836 52 9.11914 52.4453 9.11914 53C9.11914 53.5547 9.56836 54 10.1191 54H12.1191C12.6699 54 13.1191 53.5547 13.1191 53C13.1191 52.4453 12.6699 52 12.1191 52H10.1191ZM51.1191 52C50.5684 52 50.1191 52.4453 50.1191 53C50.1191 53.5547 50.5684 54 51.1191 54H53.1191C53.6699 54 54.1191 53.5547 54.1191 53C54.1191 52.4453 53.6699 52 53.1191 52H51.1191ZM23.1191 54C22.5684 54 22.1191 54.4453 22.1191 55V57C22.1191 57.5547 22.5684 58 23.1191 58C23.6699 58 24.1191 57.5547 24.1191 57V55C24.1191 54.4453 23.6699 54 23.1191 54ZM51.1191 56C50.5684 56 50.1191 56.4453 50.1191 57C50.1191 57.5547 50.5684 58 51.1191 58H53.1191C53.6699 58 54.1191 57.5547 54.1191 57C54.1191 56.4453 53.6699 56 53.1191 56H51.1191ZM10.1191 57.9492H12.1191V61.9492H10.1191V57.9492Z" fill="#252525"/>
</g>
<defs>
<clipPath id="clip0_559_47065">
<rect width="64" height="64" fill="white" transform="translate(0.119141)"/>
</clipPath>
</defs>
</svg>
