<svg width="17" height="17" viewBox="0 0 17 17" fill="none" xmlns="http://www.w3.org/2000/svg">
<path fill-rule="evenodd" clip-rule="evenodd" d="M6.43314 0.600525C7.16619 0.601296 7.86455 0.951249 8.30238 1.5363L9.0046 2.47054C9.22736 2.76653 9.58117 2.94305 9.95117 2.94382H12.1318C15.1087 2.94382 16.4954 4.46928 16.4954 7.7445L16.4739 11.5732C16.4731 14.6318 14.5722 16.5326 11.5121 16.5326H5.51355C2.44722 16.5326 0.541748 14.631 0.541748 11.5709V5.55922C0.541748 2.26858 2.00554 0.600525 4.89149 0.600525H6.43314ZM6.43237 1.75676H4.89149C2.65303 1.75676 1.69798 2.89449 1.69798 5.55922V11.5709C1.69798 14.0252 3.05308 15.3764 5.51355 15.3764H11.5121C13.9664 15.3764 15.3176 14.0252 15.3176 11.5709V11.5685L15.3392 7.74142C15.3392 5.12139 14.4404 4.10005 12.1318 4.10005H9.95039C9.21889 4.09928 8.52052 3.7501 8.08115 3.16582L7.37739 2.23004C7.15617 1.93328 6.80236 1.75753 6.43237 1.75676ZM11.8853 10.0144C12.2044 10.0144 12.4634 10.2734 12.4634 10.5925C12.4634 10.9117 12.2044 11.1706 11.8853 11.1706H5.15219C4.83307 11.1706 4.57407 10.9117 4.57407 10.5925C4.57407 10.2734 4.83307 10.0144 5.15219 10.0144H11.8853Z" fill="#56555C"/>
</svg>
