<svg width="41" height="49" viewBox="0 0 41 49" fill="none" xmlns="http://www.w3.org/2000/svg">
<g opacity="0.3">
<path opacity="0.3" d="M28.4326 10.6154C27.3393 10.6144 26.291 10.1796 25.5178 9.4064C24.7447 8.63324 24.3099 7.58491 24.3088 6.4915V0.767578H5.88374C5.17684 0.767316 4.47679 0.90633 3.82362 1.17668C3.17044 1.44703 2.57693 1.84342 2.07697 2.3432C1.57702 2.84299 1.18043 3.43637 0.909843 4.08947C0.639261 4.74257 0.5 5.44257 0.5 6.1495V38.5931C0.50212 40.0194 1.07033 41.3866 2.07981 42.3942C3.08928 43.4018 4.45746 43.9675 5.88374 43.967H28.0027C29.43 43.967 30.7988 43.4 31.8081 42.3907C32.8174 41.3814 33.3844 40.0124 33.3844 38.5851V10.6154H28.4326Z" fill="#FF9908"/>
</g>
<path d="M33.3846 10.6156H28.4329C27.3395 10.6145 26.2912 10.1797 25.5181 9.40658C24.745 8.63345 24.3101 7.58516 24.3091 6.49178V0.768066L33.3846 10.6156Z" fill="#FF9908"/>
<path d="M37.2882 34.8877H12.2814C10.5076 34.8877 9.06958 36.3257 9.06958 38.0997V45.5555C9.06958 47.3295 10.5076 48.7675 12.2814 48.7675H37.2882C39.062 48.7675 40.5 47.3295 40.5 45.5555V38.0997C40.5 36.3257 39.062 34.8877 37.2882 34.8877Z" fill="#FF9908"/>
<path d="M18.5914 43.4414V44.8953H17.0854V43.4414H18.5914Z" fill="white"/>
<path d="M24.0266 39.3678C24.5119 39.731 24.838 40.2677 24.9366 40.8658H23.3967C23.2957 40.6509 23.1328 40.4712 22.9287 40.3498C22.7003 40.2139 22.4384 40.1446 22.1727 40.1498C21.9658 40.1412 21.7596 40.1782 21.5685 40.258C21.3774 40.3378 21.2061 40.4586 21.0668 40.6118C20.7739 40.9626 20.6246 41.4113 20.6488 41.8677C20.6488 42.4397 20.7948 42.879 21.0868 43.1857C21.2513 43.345 21.4473 43.4683 21.6622 43.5475C21.8771 43.6267 22.1061 43.6601 22.3347 43.6456C22.661 43.6513 22.9803 43.5509 23.2447 43.3597C23.5133 43.1574 23.7074 42.8719 23.7967 42.5477H21.9587V41.5017H25.0126V42.9677C24.8959 43.3256 24.7112 43.6577 24.4686 43.9456C24.2062 44.2554 23.8802 44.5051 23.5127 44.6776C23.0954 44.87 22.6401 44.9657 22.1807 44.9576C21.6225 44.972 21.0704 44.8381 20.5808 44.5696C20.1326 44.3178 19.7671 43.9412 19.5289 43.4856C19.2762 42.9943 19.1491 42.4481 19.1589 41.8957C19.1478 41.34 19.2749 40.7902 19.5289 40.2958C19.7667 39.8412 20.1305 39.4649 20.5768 39.2118C21.0594 38.946 21.6039 38.8128 22.1547 38.8259C22.8216 38.7932 23.4804 38.9839 24.0266 39.3678Z" fill="white"/>
<path d="M27.2847 38.8818V44.8955H25.8308V38.8818H27.2847Z" fill="white"/>
<path d="M32.2104 38.8818V40.0398H29.7425V41.3677H31.6484V42.4737H29.7425V44.9055H28.2886V38.8918L32.2104 38.8818Z" fill="white"/>
<path d="M16.0272 31.653C13.8454 31.6504 11.7537 30.7825 10.2109 29.2397C8.66814 27.697 7.80025 25.6053 7.79761 23.4234C7.80025 21.2416 8.66814 19.1499 10.2109 17.6072C11.7537 16.0644 13.8454 15.1965 16.0272 15.1938C18.209 15.1965 20.3007 16.0644 21.8435 17.6072C23.3863 19.1499 24.2542 21.2416 24.2568 23.4234C24.2542 25.6053 23.3863 27.697 21.8435 29.2397C20.3007 30.7825 18.209 31.6504 16.0272 31.653ZM16.0272 16.6358C14.228 16.639 12.5034 17.3551 11.2311 18.6273C9.95886 19.8996 9.2427 21.6242 9.23953 23.4234C9.2427 25.2227 9.95886 26.9473 11.2311 28.2195C12.5034 29.4918 14.228 30.2079 16.0272 30.2111C17.8264 30.2079 19.5511 29.4918 20.8233 28.2195C22.0956 26.9473 22.8117 25.2227 22.8149 23.4234C22.8117 21.6242 22.0956 19.8996 20.8233 18.6273C19.5511 17.3551 17.8264 16.639 16.0272 16.6358Z" fill="#FF9908"/>
<path d="M16.0275 28.0352C15.0871 28.0365 14.1609 27.8055 13.3313 27.3628C12.5016 26.92 11.7941 26.2792 11.2717 25.4973L12.4717 24.6973C12.8619 25.2814 13.3902 25.7602 14.0098 26.0913C14.6293 26.4224 15.321 26.5955 16.0235 26.5952C16.7262 26.5956 17.4181 26.4223 18.0378 26.0909C18.6574 25.7594 19.1856 25.28 19.5753 24.6953L20.7753 25.4953C20.254 26.2766 19.5479 26.9172 18.7197 27.3602C17.8915 27.8033 16.9668 28.0351 16.0275 28.0352Z" fill="#FF9908"/>
<path d="M13.7453 22.162C14.2744 22.162 14.7033 21.7331 14.7033 21.2041C14.7033 20.675 14.2744 20.2461 13.7453 20.2461C13.2162 20.2461 12.7874 20.675 12.7874 21.2041C12.7874 21.7331 13.2162 22.162 13.7453 22.162Z" fill="#FF9908"/>
<path d="M18.309 22.162C18.8381 22.162 19.267 21.7331 19.267 21.2041C19.267 20.675 18.8381 20.2461 18.309 20.2461C17.78 20.2461 17.3511 20.675 17.3511 21.2041C17.3511 21.7331 17.78 22.162 18.309 22.162Z" fill="#FF9908"/>
</svg>
