<svg width="16" height="4" viewBox="0 0 16 4" fill="none" xmlns="http://www.w3.org/2000/svg">
<path d="M3.87888 1.81548C3.87888 2.64629 3.20538 3.3198 2.37456 3.3198C1.54375 3.3198 0.870239 2.64629 0.870239 1.81548C0.870239 0.984665 1.54375 0.311157 2.37456 0.311157C3.20538 0.311157 3.87888 0.984665 3.87888 1.81548Z" fill="#56555C"/>
<path d="M9.89618 1.81548C9.89618 2.64629 9.22267 3.3198 8.39185 3.3198C7.56104 3.3198 6.88753 2.64629 6.88753 1.81548C6.88753 0.984665 7.56104 0.311157 8.39185 0.311157C9.22267 0.311157 9.89618 0.984665 9.89618 1.81548Z" fill="#56555C"/>
<path d="M15.9135 1.81548C15.9135 2.64629 15.24 3.3198 14.4091 3.3198C13.5783 3.3198 12.9048 2.64629 12.9048 1.81548C12.9048 0.984665 13.5783 0.311157 14.4091 0.311157C15.24 0.311157 15.9135 0.984665 15.9135 1.81548Z" fill="#56555C"/>
</svg>
