<svg width="65" height="65" viewBox="0 0 65 65" fill="none" xmlns="http://www.w3.org/2000/svg">
<path d="M32.2891 2.4375C28.4297 2.4375 25.2891 5.57812 25.2891 9.4375C25.2891 11.3984 26.0977 13.1758 27.4102 14.4492L19.5508 25.25C18.5781 24.7266 17.4688 24.4375 16.2891 24.4375C12.4297 24.4375 9.28906 27.5781 9.28906 31.4375C9.28906 34.168 10.8594 36.5391 13.1484 37.6875L9.53125 48.5586C9.12891 48.4766 8.71094 48.4375 8.28906 48.4375C4.42969 48.4375 1.28906 51.5781 1.28906 55.4375C1.28906 59.2969 4.42969 62.4375 8.28906 62.4375C12.1484 62.4375 15.2891 59.2969 15.2891 55.4375C15.2891 52.707 13.7188 50.3359 11.4297 49.1875L15.0508 38.3164C15.4492 38.3984 15.8672 38.4375 16.2891 38.4375C16.7109 38.4375 17.1289 38.3984 17.5273 38.3164L21.1484 49.1875C18.8594 50.3359 17.2891 52.707 17.2891 55.4375C17.2891 59.2969 20.4297 62.4375 24.2891 62.4375C28.1484 62.4375 31.2891 59.2969 31.2891 55.4375C31.2891 51.5781 28.1484 48.4375 24.2891 48.4375C23.8672 48.4375 23.4492 48.4766 23.0508 48.5586L19.4297 37.6875C21.7188 36.5391 23.2891 34.168 23.2891 31.4375C23.2891 29.4766 22.4805 27.6992 21.168 26.4258L29.0273 15.625C30 16.1484 31.1094 16.4375 32.2891 16.4375C33.4688 16.4375 34.5781 16.1484 35.5508 15.625L43.4102 26.4258C42.0977 27.6992 41.2891 29.4766 41.2891 31.4375C41.2891 34.168 42.8594 36.5391 45.1484 37.6875L41.5273 48.5586C41.1289 48.4766 40.7109 48.4375 40.2891 48.4375C36.4297 48.4375 33.2891 51.5781 33.2891 55.4375C33.2891 59.2969 36.4297 62.4375 40.2891 62.4375C44.1484 62.4375 47.2891 59.2969 47.2891 55.4375C47.2891 52.707 45.7188 50.3359 43.4297 49.1875L47.0508 38.3164C47.4492 38.3984 47.8672 38.4375 48.2891 38.4375C48.7109 38.4375 49.1289 38.3984 49.5273 38.3164L53.1484 49.1875C50.8594 50.3359 49.2891 52.707 49.2891 55.4375C49.2891 59.2969 52.4297 62.4375 56.2891 62.4375C60.1484 62.4375 63.2891 59.2969 63.2891 55.4375C63.2891 51.5781 60.1484 48.4375 56.2891 48.4375C55.8672 48.4375 55.4492 48.4766 55.0508 48.5586L51.4297 37.6875C53.7188 36.5391 55.2891 34.168 55.2891 31.4375C55.2891 27.5781 52.1484 24.4375 48.2891 24.4375C47.1094 24.4375 46 24.7266 45.0273 25.25L37.168 14.4492C38.4805 13.1758 39.2891 11.3984 39.2891 9.4375C39.2891 5.57812 36.1484 2.4375 32.2891 2.4375ZM32.2891 4.4375C35.0508 4.4375 37.2891 6.67578 37.2891 9.4375C37.2891 10.7383 36.7969 11.918 35.9766 12.8086C35.5273 13.2969 34.9805 13.707 34.3594 13.9883C33.7305 14.2773 33.0273 14.4375 32.2891 14.4375C31.5508 14.4375 30.8477 14.2773 30.2188 13.9883C29.5977 13.707 29.0508 13.2969 28.6016 12.8086C27.7812 11.918 27.2891 10.7383 27.2891 9.4375C27.2891 6.67578 29.5273 4.4375 32.2891 4.4375ZM16.2891 26.4375C17.0273 26.4375 17.7305 26.5977 18.3594 26.8867C18.9805 27.168 19.5273 27.5781 19.9766 28.0664C20.7969 28.957 21.2891 30.1367 21.2891 31.4375C21.2891 33.2891 20.2891 34.8984 18.7891 35.7656C18.2188 36.0977 17.5781 36.3203 16.8867 36.3984C16.6875 36.4297 16.4883 36.4375 16.2891 36.4375C16.0898 36.4375 15.8906 36.4297 15.6914 36.3984C15 36.3203 14.3594 36.0977 13.7891 35.7656C12.2891 34.8984 11.2891 33.2891 11.2891 31.4375C11.2891 28.6758 13.5273 26.4375 16.2891 26.4375ZM48.2891 26.4375C51.0508 26.4375 53.2891 28.6758 53.2891 31.4375C53.2891 33.2891 52.2891 34.8984 50.7891 35.7656C50.2188 36.0977 49.5781 36.3203 48.8867 36.3984C48.6875 36.4297 48.4883 36.4375 48.2891 36.4375C48.0898 36.4375 47.8906 36.4297 47.6914 36.3984C47 36.3203 46.3594 36.0977 45.7891 35.7656C44.2891 34.8984 43.2891 33.2891 43.2891 31.4375C43.2891 30.1367 43.7812 28.957 44.6016 28.0664C45.0508 27.5781 45.5977 27.168 46.2188 26.8867C46.8477 26.5977 47.5508 26.4375 48.2891 26.4375ZM27.4141 30.4375C26.8594 30.4375 26.4141 30.8828 26.4141 31.4375V33.4375C26.4141 33.9922 26.8594 34.4375 27.4141 34.4375C27.9648 34.4375 28.4141 33.9922 28.4141 33.4375V31.4375C28.4141 30.8828 27.9648 30.4375 27.4141 30.4375ZM32.4141 30.4375C31.8594 30.4375 31.4141 30.8828 31.4141 31.4375V33.4375C31.4141 33.9922 31.8594 34.4375 32.4141 34.4375C32.9648 34.4375 33.4141 33.9922 33.4141 33.4375V31.4375C33.4141 30.8828 32.9648 30.4375 32.4141 30.4375ZM37.4141 30.4375C36.8594 30.4375 36.4141 30.8828 36.4141 31.4375V33.4375C36.4141 33.9922 36.8594 34.4375 37.4141 34.4375C37.9648 34.4375 38.4141 33.9922 38.4141 33.4375V31.4375C38.4141 30.8828 37.9648 30.4375 37.4141 30.4375ZM8.28906 50.4375C8.48828 50.4375 8.6875 50.4453 8.89063 50.4766C9.57813 50.5547 10.2188 50.7773 10.7891 51.1094C12.2891 51.9766 13.2891 53.5859 13.2891 55.4375C13.2891 58.1992 11.0508 60.4375 8.28906 60.4375C5.52734 60.4375 3.28906 58.1992 3.28906 55.4375C3.28906 52.6758 5.52734 50.4375 8.28906 50.4375ZM24.2891 50.4375C27.0508 50.4375 29.2891 52.6758 29.2891 55.4375C29.2891 58.1992 27.0508 60.4375 24.2891 60.4375C21.5273 60.4375 19.2891 58.1992 19.2891 55.4375C19.2891 53.5859 20.2891 51.9766 21.7891 51.1094C22.3594 50.7773 23 50.5547 23.6914 50.4766C23.8906 50.4453 24.0898 50.4375 24.2891 50.4375ZM40.2891 50.4375C40.4883 50.4375 40.6875 50.4453 40.8867 50.4766C41.5781 50.5547 42.2188 50.7773 42.7891 51.1094C44.2891 51.9766 45.2891 53.5859 45.2891 55.4375C45.2891 58.1992 43.0508 60.4375 40.2891 60.4375C37.5273 60.4375 35.2891 58.1992 35.2891 55.4375C35.2891 52.6758 37.5273 50.4375 40.2891 50.4375ZM56.2891 50.4375C59.0508 50.4375 61.2891 52.6758 61.2891 55.4375C61.2891 58.1992 59.0508 60.4375 56.2891 60.4375C53.5273 60.4375 51.2891 58.1992 51.2891 55.4375C51.2891 53.5859 52.2891 51.9766 53.7891 51.1094C54.3594 50.7773 55 50.5547 55.6914 50.4766C55.8906 50.4453 56.0898 50.4375 56.2891 50.4375Z" fill="#252525"/>
</svg>
