<svg width="65" height="65" viewBox="0 0 65 65" fill="none" xmlns="http://www.w3.org/2000/svg">
<g clip-path="url(#clip0_559_47073)">
<path d="M16.2891 2.05859C15.1875 2.05859 14.2891 2.95703 14.2891 4.05859V6.05859C14.2891 7.16016 15.1875 8.05859 16.2891 8.05859V21.0586C16.2891 22.7109 17.6367 24.0586 19.2891 24.0586H20.2891V26.0586C20.2891 27.1602 21.1875 28.0586 22.2891 28.0586V47.0586C22.2891 47.4102 22.3594 47.7461 22.4727 48.0586H16.2891C15.1289 48.0586 14.1172 48.7305 13.6172 49.6992C13.1875 49.0195 12.9297 48.2383 12.8672 47.3984L10.6602 14.5898C10.4766 11.8281 8.6875 9.51953 6.23828 8.55859C6.00781 7.13672 4.76953 6.05859 3.28906 6.05859C1.64063 6.05859 0.289062 7.41016 0.289062 9.05859C0.289062 10.707 1.64063 12.0586 3.28906 12.0586C4.39063 12.0586 5.35938 11.457 5.87891 10.5703C7.42969 11.3398 8.53906 12.8906 8.67188 14.7188L10.8672 47.5273C11 49.4609 11.918 51.168 13.2891 52.3477V55.0586C13.2891 56.707 14.6406 58.0586 16.2891 58.0586H18.3867C18.3203 58.3789 18.2891 58.7188 18.2891 59.0586C18.2891 61.8203 20.5273 64.0586 23.2891 64.0586C26.0508 64.0586 28.2891 61.8203 28.2891 59.0586C28.2891 58.7188 28.2578 58.3789 28.1914 58.0586H50.3867C50.3203 58.3789 50.2891 58.7188 50.2891 59.0586C50.2891 61.8203 52.5273 64.0586 55.2891 64.0586C58.0508 64.0586 60.2891 61.8203 60.2891 59.0586C60.2891 58.7188 60.2578 58.3789 60.1914 58.0586H61.2891C62.9375 58.0586 64.2891 56.707 64.2891 55.0586V51.0586C64.2891 49.6797 63.3398 48.5234 62.0703 48.1719C62.207 47.8281 62.2891 47.4531 62.2891 47.0586V28.0586C63.3906 28.0586 64.2891 27.1602 64.2891 26.0586V24.0586C64.2891 22.957 63.3906 22.0586 62.2891 22.0586H56.1055C56.2188 21.7461 56.2891 21.4102 56.2891 21.0586V8.05859C57.3906 8.05859 58.2891 7.16016 58.2891 6.05859V4.05859C58.2891 2.95703 57.3906 2.05859 56.2891 2.05859H16.2891ZM16.2891 4.05859H56.2891V6.05859H53.2891C52.7383 6.05859 52.2891 6.50781 52.2891 7.05859C52.2891 7.60938 52.7383 8.05859 53.2891 8.05859H54.2891V21.0586C54.2891 21.6094 53.8398 22.0586 53.2891 22.0586H19.2891C18.7383 22.0586 18.2891 21.6094 18.2891 21.0586V8.05859H41.2891C41.8398 8.05859 42.2891 7.60938 42.2891 7.05859C42.2891 6.50781 41.8398 6.05859 41.2891 6.05859H16.2891V4.05859ZM45.2891 6.05859C44.7383 6.05859 44.2891 6.50781 44.2891 7.05859C44.2891 7.60938 44.7383 8.05859 45.2891 8.05859H49.2891C49.8398 8.05859 50.2891 7.60938 50.2891 7.05859C50.2891 6.50781 49.8398 6.05859 49.2891 6.05859H45.2891ZM3.28906 8.05859C3.83984 8.05859 4.28906 8.50781 4.28906 9.05859C4.28906 9.60938 3.83984 10.0586 3.28906 10.0586C2.73828 10.0586 2.28906 9.60938 2.28906 9.05859C2.28906 8.50781 2.73828 8.05859 3.28906 8.05859ZM33.2891 10.0586C31.6367 10.0586 30.2891 11.4062 30.2891 13.0586C30.2891 14.7109 31.6367 16.0586 33.2891 16.0586H39.2891C40.9414 16.0586 42.2891 14.7109 42.2891 13.0586C42.2891 11.4062 40.9414 10.0586 39.2891 10.0586H33.2891ZM33.2891 12.0586H39.2891C39.8398 12.0586 40.2891 12.5078 40.2891 13.0586C40.2891 13.6094 39.8398 14.0586 39.2891 14.0586H33.2891C32.7383 14.0586 32.2891 13.6094 32.2891 13.0586C32.2891 12.5078 32.7383 12.0586 33.2891 12.0586ZM22.2891 24.0586H62.2891V26.0586H60.2891V47.0586C60.2891 47.6094 59.8398 48.0586 59.2891 48.0586H25.2891C24.7383 48.0586 24.2891 47.6094 24.2891 47.0586V28.0586H47.2891C47.8398 28.0586 48.2891 27.6094 48.2891 27.0586C48.2891 26.5078 47.8398 26.0586 47.2891 26.0586H22.2891V24.0586ZM51.2891 26.0586C50.7383 26.0586 50.2891 26.5078 50.2891 27.0586C50.2891 27.6094 50.7383 28.0586 51.2891 28.0586H55.2891C55.8398 28.0586 56.2891 27.6094 56.2891 27.0586C56.2891 26.5078 55.8398 26.0586 55.2891 26.0586H51.2891ZM39.2891 30.0586C37.6367 30.0586 36.2891 31.4062 36.2891 33.0586C36.2891 34.7109 37.6367 36.0586 39.2891 36.0586H45.2891C46.9414 36.0586 48.2891 34.7109 48.2891 33.0586C48.2891 31.4062 46.9414 30.0586 45.2891 30.0586H39.2891ZM39.2891 32.0586H45.2891C45.8398 32.0586 46.2891 32.5078 46.2891 33.0586C46.2891 33.6094 45.8398 34.0586 45.2891 34.0586H39.2891C38.7383 34.0586 38.2891 33.6094 38.2891 33.0586C38.2891 32.5078 38.7383 32.0586 39.2891 32.0586ZM27.2891 42.0586C26.7383 42.0586 26.2891 42.5078 26.2891 43.0586V45.0586C26.2891 45.6094 26.7383 46.0586 27.2891 46.0586C27.8398 46.0586 28.2891 45.6094 28.2891 45.0586V43.0586C28.2891 42.5078 27.8398 42.0586 27.2891 42.0586ZM32.2891 42.0586C31.7383 42.0586 31.2891 42.5078 31.2891 43.0586V45.0586C31.2891 45.6094 31.7383 46.0586 32.2891 46.0586C32.8398 46.0586 33.2891 45.6094 33.2891 45.0586V43.0586C33.2891 42.5078 32.8398 42.0586 32.2891 42.0586ZM37.2891 42.0586C36.7383 42.0586 36.2891 42.5078 36.2891 43.0586V45.0586C36.2891 45.6094 36.7383 46.0586 37.2891 46.0586C37.8398 46.0586 38.2891 45.6094 38.2891 45.0586V43.0586C38.2891 42.5078 37.8398 42.0586 37.2891 42.0586ZM42.2891 42.0586C41.7383 42.0586 41.2891 42.5078 41.2891 43.0586V45.0586C41.2891 45.6094 41.7383 46.0586 42.2891 46.0586C42.8398 46.0586 43.2891 45.6094 43.2891 45.0586V43.0586C43.2891 42.5078 42.8398 42.0586 42.2891 42.0586ZM47.2891 42.0586C46.7383 42.0586 46.2891 42.5078 46.2891 43.0586V45.0586C46.2891 45.6094 46.7383 46.0586 47.2891 46.0586C47.8398 46.0586 48.2891 45.6094 48.2891 45.0586V43.0586C48.2891 42.5078 47.8398 42.0586 47.2891 42.0586ZM52.2891 42.0586C51.7383 42.0586 51.2891 42.5078 51.2891 43.0586V45.0586C51.2891 45.6094 51.7383 46.0586 52.2891 46.0586C52.8398 46.0586 53.2891 45.6094 53.2891 45.0586V43.0586C53.2891 42.5078 52.8398 42.0586 52.2891 42.0586ZM57.2891 42.0586C56.7383 42.0586 56.2891 42.5078 56.2891 43.0586V45.0586C56.2891 45.6094 56.7383 46.0586 57.2891 46.0586C57.8398 46.0586 58.2891 45.6094 58.2891 45.0586V43.0586C58.2891 42.5078 57.8398 42.0586 57.2891 42.0586ZM16.2891 50.0586H61.2891C61.8398 50.0586 62.2891 50.5078 62.2891 51.0586V55.0586C62.2891 55.6094 61.8398 56.0586 61.2891 56.0586H59.2891C58.3789 54.8477 56.918 54.0586 55.2891 54.0586C53.6602 54.0586 52.1992 54.8477 51.2891 56.0586H27.2891C26.3789 54.8477 24.918 54.0586 23.2891 54.0586C21.6602 54.0586 20.1992 54.8477 19.2891 56.0586H16.2891C15.7383 56.0586 15.2891 55.6094 15.2891 55.0586V51.0586C15.2891 50.5078 15.7383 50.0586 16.2891 50.0586ZM23.2891 56.0586C24.5898 56.0586 25.6992 56.8984 26.1094 58.0586C26.2305 58.3672 26.2891 58.707 26.2891 59.0586C26.2891 60.707 24.9375 62.0586 23.2891 62.0586C21.6406 62.0586 20.2891 60.707 20.2891 59.0586C20.2891 58.707 20.3477 58.3672 20.4688 58.0586C20.8789 56.8984 21.9883 56.0586 23.2891 56.0586ZM55.2891 56.0586C56.5898 56.0586 57.6992 56.8984 58.1094 58.0586C58.2305 58.3672 58.2891 58.707 58.2891 59.0586C58.2891 60.707 56.9375 62.0586 55.2891 62.0586C53.6406 62.0586 52.2891 60.707 52.2891 59.0586C52.2891 58.707 52.3477 58.3672 52.4688 58.0586C52.8789 56.8984 53.9883 56.0586 55.2891 56.0586Z" fill="#252525"/>
</g>
<defs>
<clipPath id="clip0_559_47073">
<rect width="64" height="64" fill="white" transform="translate(0.289062 0.0585938)"/>
</clipPath>
</defs>
</svg>
