<svg width="41" height="49" viewBox="0 0 41 49" fill="none" xmlns="http://www.w3.org/2000/svg">
<g opacity="0.3">
<path opacity="0.3" d="M28.4322 10.6175C27.3386 10.6159 26.2904 10.1806 25.5173 9.40719C24.7442 8.63375 24.3095 7.58526 24.3084 6.49172V0.768067H5.88356C5.17666 0.767804 4.47662 0.906812 3.82345 1.17715C3.17029 1.44748 2.5768 1.84384 2.07686 2.34361C1.57691 2.84337 1.18032 3.43672 0.909741 4.08979C0.639161 4.74285 0.499878 5.44285 0.499878 6.14974V38.5918C0.499878 39.2987 0.639161 39.9986 0.909741 40.6517C1.18032 41.3048 1.57691 41.8981 2.07686 42.3979C2.5768 42.8976 3.17029 43.294 3.82345 43.5644C4.47662 43.8347 5.17666 43.9737 5.88356 43.9734H28.0022C28.7089 43.9734 29.4087 43.8342 30.0617 43.5638C30.7146 43.2933 31.3079 42.8969 31.8076 42.3972C32.3074 41.8974 32.7038 41.3042 32.9742 40.6512C33.2447 39.9983 33.3839 39.2985 33.3839 38.5918V10.6175H28.4322Z" fill="#0072FF"/>
</g>
<path d="M33.3845 10.617H28.4328C27.3393 10.6154 26.291 10.1801 25.5179 9.4067C24.7449 8.63326 24.3101 7.58477 24.3091 6.49123V0.767578L33.3845 10.617Z" fill="#0072FF"/>
<path d="M37.2883 34.8882H12.2819C10.508 34.8882 9.07007 36.3262 9.07007 38.1V45.5555C9.07007 47.3294 10.508 48.7673 12.2819 48.7673H37.2883C39.0622 48.7673 40.5001 47.3294 40.5001 45.5555V38.1C40.5001 36.3262 39.0622 34.8882 37.2883 34.8882Z" fill="#0072FF"/>
<path d="M18.2873 43.4419V44.8958H16.7814V43.4419H18.2873Z" fill="white"/>
<path d="M20.497 38.8823V44.896H19.0431V38.8823H20.497Z" fill="white"/>
<path d="M25.5807 44.0797C25.4074 44.356 25.1591 44.5772 24.8647 44.7177C24.5073 44.8853 24.1155 44.9668 23.7208 44.9557C23.1262 44.9792 22.5405 44.8056 22.0549 44.4617C21.8394 44.3008 21.6631 44.0933 21.5391 43.8547C21.4152 43.6161 21.3467 43.3526 21.339 43.0838H22.8889C22.8986 43.2867 22.9851 43.4783 23.1308 43.6198C23.2748 43.754 23.4661 43.8259 23.6628 43.8198C23.8246 43.8281 23.9832 43.7729 24.1048 43.6658C24.1581 43.614 24.2001 43.5517 24.228 43.4829C24.2559 43.414 24.2691 43.3401 24.2668 43.2658C24.2689 43.1953 24.2567 43.1251 24.2309 43.0594C24.2051 42.9938 24.1663 42.934 24.1168 42.8838C24.0109 42.7767 23.8853 42.6911 23.7468 42.6318C23.5988 42.5678 23.3948 42.4898 23.1348 42.3978C22.8161 42.2928 22.5048 42.1665 22.2029 42.0199C21.9552 41.8914 21.7425 41.7048 21.5829 41.4759C21.3987 41.1981 21.3076 40.8689 21.3229 40.5359C21.3145 40.2058 21.4096 39.8813 21.5949 39.608C21.7848 39.3411 22.0462 39.1332 22.3489 39.008C22.698 38.8668 23.0724 38.7987 23.4488 38.808C24.0212 38.7761 24.5869 38.9443 25.0487 39.284C25.245 39.444 25.4057 39.6431 25.5207 39.8686C25.6357 40.0941 25.7025 40.3412 25.7167 40.5939H24.1428C24.1247 40.4167 24.048 40.2506 23.9248 40.122C23.8621 40.0624 23.7879 40.0163 23.7067 39.9863C23.6256 39.9564 23.5392 39.9434 23.4528 39.948C23.3033 39.9403 23.1564 39.9888 23.0409 40.084C22.9865 40.1348 22.9442 40.197 22.9168 40.2662C22.8895 40.3354 22.8779 40.4097 22.8829 40.4839C22.8805 40.6186 22.9316 40.7488 23.0248 40.8459C23.1245 40.9497 23.2443 41.032 23.3768 41.0879C23.5188 41.1499 23.7228 41.2299 23.9888 41.3259C24.313 41.4307 24.6286 41.5604 24.9327 41.7139C25.1839 41.8465 25.3999 42.0371 25.5627 42.2698C25.7489 42.5514 25.8413 42.8846 25.8267 43.2218C25.8243 43.5248 25.7393 43.8215 25.5807 44.0797Z" fill="white"/>
<path d="M31.0324 39.1838C31.4894 39.4435 31.8674 39.8223 32.1263 40.2797C32.3969 40.7647 32.5349 41.3124 32.5263 41.8676C32.5372 42.427 32.3992 42.9792 32.1263 43.4675C31.8667 43.9274 31.4873 44.3082 31.0284 44.5695C30.5609 44.8365 30.0308 44.9745 29.4925 44.9695C28.9542 44.9742 28.4242 44.8362 27.9566 44.5695C27.4978 44.3087 27.1189 43.9277 26.8606 43.4675C26.5869 42.9795 26.4488 42.4271 26.4607 41.8676C26.4502 41.3122 26.5883 40.764 26.8606 40.2797C27.1202 39.8221 27.499 39.4434 27.9566 39.1838C28.4242 38.9171 28.9542 38.7791 29.4925 38.7838C30.0321 38.7787 30.5634 38.9168 31.0324 39.1838ZM28.3525 40.6037C28.0573 40.9565 27.9072 41.4083 27.9326 41.8676C27.9088 42.3249 28.0588 42.7743 28.3525 43.1256C28.4963 43.2818 28.6724 43.4046 28.8687 43.4854C29.0649 43.5663 29.2765 43.6032 29.4885 43.5935C29.6998 43.6023 29.9105 43.565 30.106 43.4842C30.3014 43.4034 30.477 43.281 30.6204 43.1256C30.9168 42.7756 31.0685 42.3257 31.0444 41.8676C31.0685 41.4097 30.9185 40.9596 30.6244 40.6077C30.4808 40.4514 30.3046 40.3285 30.1084 40.2477C29.9121 40.1668 29.7005 40.13 29.4885 40.1397C29.2775 40.131 29.0672 40.1679 28.8718 40.248C28.6764 40.3281 28.5007 40.4494 28.3566 40.6037H28.3525Z" fill="white"/>
<path d="M16.1991 29.8862C14.3136 29.8841 12.506 29.1342 11.1728 27.8009C9.83958 26.4677 9.08964 24.6601 9.08752 22.7747C9.08964 20.8892 9.83958 19.0816 11.1728 17.7484C12.506 16.4151 14.3136 15.6652 16.1991 15.6631C18.0845 15.6652 19.8922 16.4151 21.2254 17.7484C22.5586 19.0816 23.3085 20.8892 23.3107 22.7747C23.3085 24.6601 22.5586 26.4677 21.2254 27.8009C19.8922 29.1342 18.0845 29.8841 16.1991 29.8862ZM16.1991 16.0871C14.428 16.0886 12.73 16.7929 11.4777 18.0452C10.2253 19.2975 9.52109 20.9956 9.5195 22.7667C9.52162 24.5375 10.226 26.2353 11.4782 27.4875C12.7305 28.7397 14.4282 29.4441 16.1991 29.4463C17.97 29.4441 19.6677 28.7397 20.9199 27.4875C22.1721 26.2353 22.8766 24.5375 22.8787 22.7667C22.875 20.997 22.1698 19.301 20.9177 18.0504C19.6656 16.7998 17.9687 16.0967 16.1991 16.0951V16.0871Z" fill="#0072FF"/>
<path d="M16.209 15.8405V21.4961C15.8704 21.4967 15.5459 21.6315 15.3067 21.8711C15.0675 22.1107 14.9331 22.4355 14.9331 22.7741C14.9332 22.9964 14.9911 23.2148 15.1011 23.408L10.2274 26.2219L10.1194 26.0219C9.58041 25.017 9.29869 23.8943 9.29944 22.754C9.29944 22.698 9.29944 22.6461 9.29944 22.5941C9.32387 21.4127 9.65243 20.2576 10.2534 19.2403C10.8514 18.229 11.6955 17.3856 12.7072 16.7884C13.7244 16.1886 14.8785 15.8601 16.059 15.8345L16.209 15.8405Z" fill="#0072FF"/>
<path d="M23.1292 22.7666C23.13 23.9583 22.8213 25.1298 22.2332 26.1664C21.6164 27.2588 20.7134 28.1625 19.6214 28.7802C18.582 29.3725 17.4059 29.6828 16.2096 29.6801V24.0505C16.5461 24.0473 16.8678 23.9116 17.1048 23.6727C17.3418 23.4338 17.475 23.1111 17.4755 22.7746C17.4766 22.5488 17.4164 22.3269 17.3015 22.1326L22.2032 19.3008C22.7844 20.306 23.1023 21.4417 23.1272 22.6026C23.1292 22.6546 23.1292 22.7066 23.1292 22.7666Z" fill="#0072FF"/>
<path d="M16.1995 23.6468C15.9682 23.6468 15.7464 23.5549 15.5829 23.3914C15.4194 23.2278 15.3275 23.0061 15.3275 22.7748C15.3275 22.5434 15.4193 22.3214 15.5828 22.1576C15.7463 21.9937 15.968 21.9014 16.1995 21.9009C16.4309 21.9014 16.6527 21.9937 16.8161 22.1576C16.9796 22.3214 17.0714 22.5434 17.0714 22.7748C17.0714 23.0061 16.9795 23.2278 16.816 23.3914C16.6525 23.5549 16.4307 23.6468 16.1995 23.6468ZM16.1995 22.3348C16.0828 22.3348 15.9709 22.3812 15.8884 22.4637C15.8059 22.5462 15.7595 22.6581 15.7595 22.7748C15.76 22.8914 15.8065 23.003 15.8889 23.0854C15.9713 23.1677 16.0829 23.2143 16.1995 23.2148C16.316 23.2143 16.4276 23.1677 16.51 23.0854C16.5924 23.003 16.6389 22.8914 16.6394 22.7748C16.6394 22.717 16.6281 22.6598 16.606 22.6065C16.5838 22.5531 16.5514 22.5046 16.5106 22.4637C16.4697 22.4229 16.4212 22.3904 16.3678 22.3683C16.3145 22.3462 16.2572 22.3348 16.1995 22.3348Z" fill="#0072FF"/>
</svg>
