<svg width="41" height="49" viewBox="0 0 41 49" fill="none" xmlns="http://www.w3.org/2000/svg">
<g opacity="0.3">
<path opacity="0.3" d="M28.442 10.6161C27.3484 10.615 26.2998 10.1802 25.5263 9.40713C24.7529 8.63402 24.3176 7.58568 24.316 6.49207V0.768066H5.88198C4.45459 0.768066 3.08566 1.33509 2.07634 2.34442C1.06702 3.35374 0.5 4.72267 0.5 6.15007V38.5941C0.50212 40.0201 1.07008 41.387 2.07917 42.3945C3.08827 43.4021 4.45597 43.9681 5.88198 43.9681H28.002C29.4294 43.9681 30.7983 43.401 31.8076 42.3917C32.8169 41.3824 33.384 40.0135 33.384 38.5861V10.6161H28.442Z" fill="#FF3E4C"/>
</g>
<path d="M33.3839 10.6156H28.4419C27.3483 10.6145 26.2998 10.1798 25.5263 9.40664C24.7528 8.63353 24.3175 7.58519 24.3159 6.49158V0.767578L33.3839 10.6156Z" fill="#FF3E4C"/>
<path d="M37.2879 34.8877H12.2799C10.5059 34.8877 9.06787 36.3257 9.06787 38.0997V45.5557C9.06787 47.3296 10.5059 48.7677 12.2799 48.7677H37.2879C39.0618 48.7677 40.4999 47.3296 40.4999 45.5557V38.0997C40.4999 36.3257 39.0618 34.8877 37.2879 34.8877Z" fill="#FF3E4C"/>
<path d="M13.8417 43.4419V44.8959H12.3357V43.4419H13.8417Z" fill="white"/>
<path d="M18.304 38.8818V42.9898C18.304 43.6198 18.132 44.1038 17.788 44.4458C17.597 44.6222 17.3726 44.7582 17.1279 44.8458C16.8832 44.9334 16.6234 44.9709 16.364 44.9558C16.079 44.9708 15.794 44.9291 15.5252 44.8334C15.2564 44.7376 15.0093 44.5896 14.798 44.3978C14.412 44.0278 14.22 43.4918 14.22 42.7978H15.658C15.658 43.3605 15.8706 43.6418 16.296 43.6418C16.664 43.6418 16.848 43.4258 16.848 42.9938V38.8858L18.304 38.8818Z" fill="white"/>
<path d="M22.9903 43.7973H20.7363L20.3623 44.8953H18.8303L21.0303 38.9233H22.7063L24.9063 44.8953H23.3583L22.9903 43.7973ZM22.6163 42.6913L21.8683 40.4813L21.1103 42.6913H22.6163Z" fill="white"/>
<path d="M26.598 38.8818L28.068 43.4078L29.54 38.8818H31.098L29.004 44.8958H27.124L25.042 38.8818H26.598Z" fill="white"/>
<path d="M35.3841 43.7973H33.1301L32.7562 44.8953H31.2241L33.4241 38.9233H35.1001L37.3001 44.8953H35.7521L35.3841 43.7973ZM35.0102 42.6913L34.2622 40.4813L33.5042 42.6913H35.0102Z" fill="white"/>
<path d="M13.9222 31.5956H13.4802C12.4602 31.5956 11.6476 31.2962 11.0422 30.6976C10.4369 30.0989 10.1349 29.2902 10.1362 28.2716V25.0076C10.1362 23.7596 9.63957 23.1356 8.64624 23.1356V21.6036C9.63957 21.6036 10.1362 20.9796 10.1362 19.7316V16.4676C10.1362 15.4476 10.4382 14.6382 11.0422 14.0396C11.6462 13.4409 12.4589 13.1422 13.4802 13.1436H13.9222V14.6756H13.6202C12.4202 14.6756 11.8202 15.3536 11.8202 16.7096V20.0536C11.8056 21.2536 11.3389 22.0122 10.4202 22.3296V22.4096C11.3202 22.7056 11.7869 23.4442 11.8202 24.6256V28.0256C11.8202 29.3816 12.4202 30.0596 13.6202 30.0596H13.9222V31.5956Z" fill="#FF3E4C"/>
<path d="M19.9602 31.596V30.064H20.2622C21.4622 30.064 22.0622 29.386 22.0622 28.03V24.63C22.0889 23.4473 22.5555 22.7086 23.4622 22.414V22.3339C22.5475 22.0113 22.0809 21.2526 22.0622 20.058V16.714C22.0622 15.358 21.4622 14.68 20.2622 14.68H19.9602V13.1479H20.4042C21.4242 13.1479 22.2362 13.4466 22.8402 14.044C23.4442 14.6413 23.7469 15.4506 23.7482 16.4719V19.736C23.7482 20.984 24.2449 21.608 25.2382 21.608V23.1399C24.2449 23.1399 23.7482 23.764 23.7482 25.012V28.276C23.7482 29.296 23.4455 30.1046 22.8402 30.702C22.2349 31.2993 21.4229 31.5986 20.4042 31.6L19.9602 31.596Z" fill="#FF3E4C"/>
<path d="M16.776 18.0021C17.5083 18.0021 18.102 17.4085 18.102 16.6761C18.102 15.9438 17.5083 15.3501 16.776 15.3501C16.0436 15.3501 15.45 15.9438 15.45 16.6761C15.45 17.4085 16.0436 18.0021 16.776 18.0021Z" fill="#FF3E4C"/>
<path d="M16.776 23.6959C17.5083 23.6959 18.102 23.1023 18.102 22.37C18.102 21.6376 17.5083 21.0439 16.776 21.0439C16.0436 21.0439 15.45 21.6376 15.45 22.37C15.45 23.1023 16.0436 23.6959 16.776 23.6959Z" fill="#FF3E4C"/>
<path d="M16.776 29.3893C17.5083 29.3893 18.102 28.7956 18.102 28.0633C18.102 27.331 17.5083 26.7373 16.776 26.7373C16.0436 26.7373 15.45 27.331 15.45 28.0633C15.45 28.7956 16.0436 29.3893 16.776 29.3893Z" fill="#FF3E4C"/>
</svg>
