<svg width="41" height="49" viewBox="0 0 41 49" fill="none" xmlns="http://www.w3.org/2000/svg">
<g opacity="0.3">
<path opacity="0.3" d="M28.434 10.6156C27.3404 10.615 26.2918 10.1804 25.5185 9.4071C24.7452 8.63382 24.3105 7.58517 24.31 6.49158V0.767578H5.88203C5.17509 0.767578 4.47508 0.906846 3.82197 1.17744C3.16887 1.44804 2.57543 1.84465 2.07564 2.34463C1.57584 2.84461 1.17948 3.43815 0.909131 4.09136C0.638778 4.74456 0.499738 5.44464 0.5 6.15159V38.5936C0.499738 39.3005 0.638778 40.0006 0.909131 40.6538C1.17948 41.307 1.57584 41.9005 2.07564 42.4005C2.57543 42.9005 3.16887 43.2971 3.82197 43.5677C4.47508 43.8383 5.17509 43.9776 5.88203 43.9776H28.002C28.7089 43.9776 29.409 43.8383 30.0621 43.5677C30.7152 43.2971 31.3086 42.9005 31.8083 42.4005C32.3081 41.9005 32.7045 41.307 32.9749 40.6538C33.2453 40.0006 33.3843 39.3005 33.384 38.5936V10.6176L28.434 10.6156Z" fill="#00C650"/>
</g>
<path d="M33.3836 10.6156H28.4336C27.34 10.615 26.2914 10.1804 25.5181 9.4071C24.7448 8.63382 24.3101 7.58517 24.3096 6.49158V0.767578L33.3836 10.6156Z" fill="#00C650"/>
<path d="M37.2879 34.8877H12.2799C10.5059 34.8877 9.06787 36.3258 9.06787 38.0997V45.5557C9.06787 47.3296 10.5059 48.7677 12.2799 48.7677H37.2879C39.0618 48.7677 40.4999 47.3296 40.4999 45.5557V38.0997C40.4999 36.3258 39.0618 34.8877 37.2879 34.8877Z" fill="#00C650"/>
<path d="M17.3443 43.4414V44.8974H15.8384V43.4414H17.3443Z" fill="white"/>
<path d="M21.8135 38.8833V42.9913C21.8135 43.622 21.6421 44.1066 21.2995 44.4453C21.1082 44.6217 20.8834 44.7577 20.6384 44.8454C20.3934 44.933 20.1332 44.9704 19.8735 44.9553C19.589 44.9706 19.3043 44.9293 19.0358 44.8339C18.7674 44.7384 18.5205 44.5907 18.3095 44.3993C17.9241 44.0273 17.7308 43.494 17.7295 42.7993H19.1675C19.1675 43.3613 19.3815 43.6413 19.8055 43.6413C20.1755 43.6413 20.3595 43.4253 20.3595 42.9953V38.8873L21.8135 38.8833Z" fill="white"/>
<path d="M24.2255 42.7873V44.8973H22.7715V38.8833H25.1275C25.8408 38.8833 26.3848 39.06 26.7595 39.4133C26.9491 39.5991 27.0972 39.823 27.194 40.0701C27.2909 40.3173 27.3344 40.5822 27.3215 40.8473C27.327 41.1968 27.2408 41.5416 27.0715 41.8473C26.8973 42.1455 26.6383 42.385 26.3275 42.5353C25.9531 42.713 25.5418 42.7994 25.1275 42.7873H24.2255ZM25.8415 40.8473C25.8415 40.314 25.5495 40.0473 24.9655 40.0473H24.2255V41.6133H24.9655C25.5495 41.6186 25.8415 41.3633 25.8415 40.8473Z" fill="white"/>
<path d="M32.716 39.3679C33.2002 39.732 33.526 40.2683 33.626 40.8659H32.086C31.9818 40.6566 31.8174 40.4832 31.614 40.3679C31.3849 40.2318 31.1223 40.1625 30.856 40.1679C30.6492 40.1595 30.443 40.1967 30.2522 40.2769C30.0615 40.357 29.8906 40.4783 29.752 40.6319C29.4586 40.9817 29.3092 41.43 29.334 41.8859C29.334 42.4579 29.48 42.8972 29.772 43.2039C29.9362 43.3631 30.1318 43.4863 30.3464 43.5655C30.561 43.6447 30.7897 43.6782 31.018 43.6639C31.3443 43.6698 31.6637 43.5695 31.928 43.3779C32.1978 43.1764 32.3928 42.8906 32.482 42.5659H30.6439V41.5199H33.698V42.9579C33.5813 43.3159 33.3966 43.648 33.154 43.9359C32.8912 44.2462 32.5644 44.4959 32.196 44.6679C31.7794 44.8603 31.3247 44.9561 30.866 44.9479C30.3079 44.9625 29.7559 44.8294 29.266 44.5619C28.8177 44.3098 28.4528 43.9324 28.216 43.4759C27.9615 42.9816 27.8343 42.4317 27.846 41.8759C27.836 41.3235 27.9631 40.7772 28.216 40.2859C28.4524 39.8304 28.8157 39.4533 29.262 39.1999C29.7448 38.9345 30.2891 38.8013 30.8399 38.8139C31.5095 38.7847 32.1697 38.9797 32.716 39.3679Z" fill="white"/>
<path d="M21.3602 30.0494H12.5262C11.6614 30.0484 10.8323 29.7043 10.2208 29.0928C9.60924 28.4813 9.26522 27.6522 9.26416 26.7874V17.9534C9.26522 17.0886 9.60924 16.2595 10.2208 15.648C10.8323 15.0365 11.6614 14.6925 12.5262 14.6914H21.3602C22.2248 14.6925 23.0536 15.0365 23.6648 15.6481C24.276 16.2597 24.6196 17.0888 24.6202 17.9534V26.7874C24.6196 27.652 24.276 28.4811 23.6648 29.0927C23.0536 29.7043 22.2248 30.0484 21.3602 30.0494ZM12.5262 16.1334C12.0436 16.1339 11.581 16.3259 11.2398 16.6671C10.8986 17.0083 10.7067 17.4709 10.7062 17.9534V26.7874C10.7067 27.2699 10.8986 27.7326 11.2398 28.0738C11.581 28.415 12.0436 28.6069 12.5262 28.6074H21.3602C21.8425 28.6069 22.3049 28.4149 22.6458 28.0736C22.9867 27.7324 23.1782 27.2697 23.1782 26.7874V17.9534C23.1782 17.4711 22.9867 17.0084 22.6458 16.6672C22.3049 16.3259 21.8425 16.1339 21.3602 16.1334H12.5262Z" fill="#00C650"/>
<path d="M23.8998 25.1079V26.7879C23.8993 27.4614 23.6315 28.1071 23.1553 28.5833C22.679 29.0596 22.0333 29.3274 21.3598 29.3279H12.5258C11.8522 29.3279 11.2061 29.0603 10.7298 28.5839C10.2534 28.1076 9.98584 27.4615 9.98584 26.7879V23.9679C11.3998 23.6639 13.5538 23.5679 16.1678 24.6119L17.7878 23.0679L18.8918 25.8679C18.8918 25.8679 19.1878 24.8379 20.1438 24.9839C21.0998 25.1299 22.6478 25.6479 23.3098 25.2059C23.4882 25.103 23.6978 25.0682 23.8998 25.1079Z" fill="#00C650"/>
<path d="M20.8057 19.7579C21.3481 19.7579 21.7877 19.3183 21.7877 18.776C21.7877 18.2336 21.3481 17.7939 20.8057 17.7939C20.2634 17.7939 19.8237 18.2336 19.8237 18.776C19.8237 19.3183 20.2634 19.7579 20.8057 19.7579Z" fill="#00C650"/>
</svg>
