<svg width="16" height="16" viewBox="0 0 16 16" fill="none" xmlns="http://www.w3.org/2000/svg">
<path fill-rule="evenodd" clip-rule="evenodd" d="M3.63026 1.58984C2.61016 1.58984 1.7832 2.4168 1.7832 3.4369V13.2879C1.7832 14.308 2.61016 15.135 3.63026 15.135H12.2499C13.27 15.135 14.0969 14.308 14.0969 13.2879V3.4369C14.0969 2.4168 13.27 1.58984 12.2499 1.58984H3.63026ZM12.2498 2.82031H3.63023C3.29019 2.82031 3.01454 3.09597 3.01454 3.436V13.287C3.01454 13.627 3.2902 13.9027 3.63023 13.9027H12.2498C12.5899 13.9027 12.8655 13.627 12.8655 13.287V3.436C12.8655 3.09596 12.5899 2.82031 12.2498 2.82031ZM4.24598 4.66647C4.24598 4.32644 4.52163 4.05078 4.86167 4.05078H11.0185C11.3586 4.05078 11.6342 4.32644 11.6342 4.66647C11.6342 5.0065 11.3586 5.28215 11.0185 5.28215H4.86167C4.52163 5.28215 4.24598 5.0065 4.24598 4.66647ZM4.24598 7.1313C4.24598 6.79126 4.52164 6.51561 4.86167 6.51561H11.0185C11.3586 6.51561 11.6342 6.79126 11.6342 7.1313C11.6342 7.47135 11.3586 7.74699 11.0185 7.74699H4.86167C4.52163 7.74699 4.24598 7.47135 4.24598 7.1313ZM4.24598 9.59225C4.24598 9.25221 4.52163 8.97656 4.86167 8.97656H11.0185C11.3586 8.97656 11.6342 9.25221 11.6342 9.59225C11.6342 9.93229 11.3586 10.2079 11.0185 10.2079H4.86167C4.52163 10.2079 4.24598 9.93229 4.24598 9.59225ZM4.24598 12.0532C4.24598 11.7131 4.52163 11.4375 4.86167 11.4375H7.32441C7.66446 11.4375 7.9401 11.7131 7.9401 12.0532C7.9401 12.3932 7.66446 12.6689 7.32441 12.6689H4.86167C4.52163 12.6689 4.24598 12.3932 4.24598 12.0532Z" fill="#F1AC21"/>
</svg>
