<svg width="19" height="18" viewBox="0 0 19 18" fill="none" xmlns="http://www.w3.org/2000/svg">
<path fill-rule="evenodd" clip-rule="evenodd" d="M2.55273 3.71593C2.55273 2.89985 3.2143 2.23828 4.03038 2.23828H14.3739C15.19 2.23828 15.8516 2.89985 15.8516 3.71593V14.0595C15.8516 14.8756 15.19 15.5371 14.3739 15.5371H4.03038C3.2143 15.5371 2.55273 14.8756 2.55273 14.0595V3.71593ZM4.0304 3.71875H5.50804V4.45757C5.50804 5.68169 6.5004 6.67405 7.72452 6.67405H10.6798C11.904 6.67405 12.8963 5.68169 12.8963 4.45757V3.71875H14.3739V14.0623H4.0304V3.71875ZM6.98569 4.45757V3.71875H11.4186V4.45757C11.4186 4.86561 11.0879 5.1964 10.6798 5.1964H7.72451C7.31647 5.1964 6.98569 4.86561 6.98569 4.45757ZM6.24686 8.14845C5.83882 8.14845 5.50803 8.47922 5.50803 8.88727C5.50803 9.29532 5.83882 9.62609 6.24686 9.62609H12.1275C12.5356 9.62609 12.8664 9.29532 12.8664 8.88727C12.8664 8.47922 12.5356 8.14845 12.1275 8.14845H6.24686ZM6.27679 11.1562C5.86874 11.1562 5.53796 11.487 5.53796 11.8951C5.53796 12.3031 5.86874 12.6339 6.27679 12.6339H12.1574C12.5655 12.6339 12.8963 12.3031 12.8963 11.8951C12.8963 11.487 12.5655 11.1562 12.1574 11.1562H6.27679Z" fill="white"/>
</svg>
