<svg width="41" height="49" viewBox="0 0 41 49" fill="none" xmlns="http://www.w3.org/2000/svg">
<g opacity="0.3">
<path opacity="0.3" d="M28.434 10.6177C27.3404 10.6161 26.2921 10.1808 25.5189 9.40735C24.7458 8.6339 24.3111 7.58539 24.31 6.49183V0.768066H5.882C4.45461 0.768066 3.08567 1.33506 2.07635 2.34434C1.06703 3.35362 0.5 4.72251 0.5 6.14985V38.5925C0.50212 40.0184 1.07009 41.3853 2.07918 42.3928C3.08827 43.4004 4.45599 43.9663 5.882 43.9663H28.002C28.7089 43.9665 29.409 43.8275 30.0622 43.5572C30.7154 43.2868 31.309 42.8905 31.8089 42.3907C32.3089 41.8909 32.7055 41.2976 32.9761 40.6445C33.2467 39.9914 33.386 39.2914 33.386 38.5845V10.6096L28.434 10.6177Z" fill="#A140FF"/>
</g>
<path d="M33.3858 10.6176H28.4338C27.3402 10.616 26.2919 10.1807 25.5188 9.40723C24.7456 8.63374 24.3109 7.58519 24.3098 6.49158V0.767578L33.3858 10.6176Z" fill="#A140FF"/>
<path d="M37.2879 34.8882H12.2799C10.5059 34.8882 9.06787 36.3262 9.06787 38.1V45.5557C9.06787 47.3296 10.5059 48.7676 12.2799 48.7676H37.2879C39.0618 48.7676 40.4999 47.3296 40.4999 45.5557V38.1C40.4999 36.3262 39.0618 34.8882 37.2879 34.8882Z" fill="#A140FF"/>
<path d="M15.5421 43.4424V44.8964H14.0381V43.4424H15.5421Z" fill="white"/>
<path d="M23.062 38.9238V44.8958H21.6081V41.1658L20.3141 44.8998H19.056L17.754 41.1558V44.8998H16.3V38.9278H18.0781L19.7021 43.0878L21.3021 38.9278L23.062 38.9238Z" fill="white"/>
<path d="M29.0999 43.4461C28.8495 43.9003 28.4712 44.271 28.0119 44.5121C27.4955 44.778 26.9206 44.91 26.3399 44.8961H24.0659V38.8821H26.3379C26.9188 38.8669 27.4945 38.9954 28.0139 39.2561C28.4709 39.4933 28.8479 39.8599 29.0979 40.3101C29.3566 40.7908 29.4868 41.3302 29.4759 41.8761C29.4868 42.4229 29.3574 42.9635 29.0999 43.4461ZM27.5339 43.1441C27.6968 42.9774 27.823 42.7785 27.9043 42.5601C27.9856 42.3417 28.0202 42.1087 28.0059 41.8761C28.0202 41.6435 27.9856 41.4105 27.9043 41.1921C27.823 40.9737 27.6968 40.7747 27.5339 40.6081C27.1696 40.29 26.6946 40.1283 26.2119 40.1581H25.5199V43.5941H26.2099C26.6926 43.6238 27.1676 43.4622 27.5319 43.1441H27.5339Z" fill="white"/>
<path d="M34.772 42.326C34.9826 42.589 35.0951 42.9171 35.0901 43.254C35.1009 43.4799 35.0603 43.7053 34.9713 43.9132C34.8822 44.1211 34.7471 44.306 34.576 44.454C34.232 44.744 33.742 44.888 33.1 44.888H30.3V38.874H33.03C33.642 38.874 34.1154 39.0074 34.45 39.274C34.618 39.4107 34.7511 39.5854 34.8383 39.7836C34.9256 39.9818 34.9646 40.1978 34.9521 40.414C34.9637 40.7402 34.8619 41.0604 34.6641 41.32C34.4725 41.559 34.2051 41.7255 33.906 41.792C34.2482 41.8635 34.5545 42.0524 34.772 42.326ZM31.756 41.34H32.7C33.2054 41.34 33.4581 41.1247 33.4581 40.694C33.4581 40.262 33.2001 40.048 32.6841 40.048H31.748L31.756 41.34ZM33.6021 43.05C33.6072 42.9552 33.5907 42.8604 33.554 42.7727C33.5173 42.6851 33.4613 42.6069 33.3901 42.544C33.2186 42.4127 33.0057 42.3474 32.7901 42.36H31.76V43.714H32.798C33.334 43.714 33.6021 43.4927 33.6021 43.05Z" fill="white"/>
<path d="M16.9418 14.3535C16.4567 14.3535 15.9765 14.4491 15.5284 14.6347C15.0804 14.8204 14.6733 15.0925 14.3304 15.4356C13.9875 15.7786 13.7156 16.1859 13.5302 16.634C13.3448 17.0822 13.2495 17.5625 13.2498 18.0475C13.2496 18.7998 13.4794 19.5342 13.9083 20.1523C14.3373 20.7703 14.9449 21.2425 15.6498 21.5055V22.6875L16.0498 23.0875V24.3675L15.6718 24.5875V25.5335L16.0498 25.7535V26.3935L15.5998 26.6535V27.4335L16.0498 27.6955V28.5835L15.6358 28.8235V29.5155L16.7398 30.3855H17.9398L18.4718 29.5695V21.4055C19.1174 21.1121 19.665 20.6392 20.0491 20.043C20.4332 19.4468 20.6375 18.7527 20.6378 18.0435C20.6367 17.0641 20.2468 16.1253 19.5537 15.4333C18.8606 14.7414 17.9211 14.353 16.9418 14.3535ZM17.0358 17.3535C16.7875 17.3535 16.5494 17.2549 16.3739 17.0793C16.1984 16.9038 16.0998 16.6657 16.0998 16.4175C16.1003 16.1696 16.1991 15.932 16.3746 15.7569C16.5501 15.5818 16.7879 15.4835 17.0358 15.4835C17.1586 15.4832 17.2803 15.5072 17.3938 15.554C17.5073 15.6008 17.6105 15.6696 17.6975 15.7563C17.7844 15.8431 17.8534 15.9462 17.9005 16.0596C17.9475 16.1731 17.9718 16.2947 17.9718 16.4175C17.9696 16.6642 17.87 16.9 17.6947 17.0735C17.5193 17.247 17.2824 17.344 17.0358 17.3435V17.3535Z" fill="#A140FF"/>
</svg>
