<svg width="41" height="49" viewBox="0 0 41 49" fill="none" xmlns="http://www.w3.org/2000/svg">
<g opacity="0.3">
<path opacity="0.3" d="M28.434 10.6161C27.3406 10.615 26.2922 10.1802 25.5191 9.40701C24.7459 8.63384 24.3111 7.58549 24.31 6.49206V0.768066H5.88199C4.4546 0.768066 3.08568 1.33509 2.07635 2.34442C1.06703 3.35374 0.5 4.72267 0.5 6.15007V38.5941C0.50212 40.0201 1.07008 41.3869 2.07917 42.3945C3.08827 43.4021 4.45598 43.9681 5.88199 43.9681H28.004C29.4304 43.9681 30.7984 43.4019 31.8075 42.3938C32.8167 41.3858 33.3844 40.0184 33.386 38.5921V10.6161H28.434Z" fill="#FF3E4C"/>
</g>
<path d="M33.3858 10.6156H28.4338C27.3404 10.6145 26.292 10.1797 25.5189 9.40652C24.7457 8.63335 24.3109 7.585 24.3098 6.49158V0.767578L33.3858 10.6156Z" fill="#FF3E4C"/>
<path d="M37.2879 34.8877H12.2799C10.5059 34.8877 9.06787 36.3257 9.06787 38.0997V45.5557C9.06787 47.3296 10.5059 48.7677 12.2799 48.7677H37.2879C39.0618 48.7677 40.4999 47.3296 40.4999 45.5557V38.0997C40.4999 36.3257 39.0618 34.8877 37.2879 34.8877Z" fill="#FF3E4C"/>
<path d="M16.2321 43.4419V44.8959H14.7261V43.4419H16.2321Z" fill="white"/>
<path d="M23.7521 38.9233V44.8953H22.2981V41.1673L21.0041 44.9013H19.7461L18.4441 41.1593V44.9013H16.9861V38.9293H18.7641L20.3881 43.0893L21.9881 38.9293L23.7521 38.9233Z" fill="white"/>
<path d="M26.2099 42.7858V44.8958H24.7559V38.8818H27.1119C27.8259 38.8818 28.3719 39.0598 28.7459 39.4138C28.935 39.5995 29.0826 39.8231 29.1791 40.0699C29.2757 40.3167 29.3188 40.5811 29.3059 40.8458C29.313 41.1955 29.2267 41.5407 29.0559 41.8458C28.8813 42.1441 28.6224 42.3842 28.3119 42.5358C27.9369 42.7119 27.5259 42.7976 27.1119 42.7858H26.2099ZM27.8259 40.8458C27.8259 40.3205 27.5339 40.0572 26.9499 40.0558H26.2099V41.6218H26.9499C27.5339 41.6218 27.8259 41.3632 27.8259 40.8458Z" fill="white"/>
<path d="M33.1679 38.8358C33.4506 38.9641 33.6892 39.1728 33.8539 39.4358C34.0111 39.6934 34.0922 39.9901 34.0879 40.2918C34.1037 40.6325 33.9965 40.9675 33.7859 41.2358C33.594 41.4682 33.3276 41.6272 33.0319 41.6858V41.7298C33.8106 41.9778 34.1993 42.4625 34.1979 43.1838C34.2036 43.507 34.1213 43.8257 33.9599 44.1058C33.7961 44.3799 33.5546 44.5992 33.2659 44.7358C32.9242 44.8942 32.5505 44.9716 32.1739 44.9618C31.4819 44.9618 30.9319 44.7918 30.5279 44.4518C30.1239 44.1118 29.9019 43.5918 29.8679 42.8938H31.2879C31.2862 43.1233 31.3647 43.3461 31.5099 43.5238C31.5867 43.6041 31.6804 43.6663 31.7841 43.7061C31.8879 43.7459 31.9991 43.7622 32.1099 43.7538C32.2011 43.7587 32.2924 43.7445 32.3778 43.7122C32.4632 43.6798 32.5409 43.6299 32.6059 43.5658C32.6675 43.5016 32.7156 43.4257 32.7472 43.3425C32.7788 43.2594 32.7934 43.1707 32.7899 43.0818C32.7899 42.5871 32.4326 42.3405 31.7179 42.3418H31.4459V41.1598H31.7099C32.3499 41.1691 32.6699 40.9391 32.6699 40.4698C32.6758 40.384 32.6642 40.2978 32.6356 40.2167C32.6071 40.1355 32.5623 40.061 32.5039 39.9978C32.4448 39.9412 32.3748 39.8972 32.2981 39.8687C32.2214 39.8401 32.1397 39.8276 32.0579 39.8318C31.9674 39.8264 31.8768 39.8416 31.793 39.8762C31.7091 39.9108 31.6342 39.964 31.5739 40.0318C31.4482 40.191 31.3779 40.387 31.3739 40.5898H29.9519C29.9485 40.318 29.9999 40.0483 30.1029 39.7967C30.206 39.5452 30.3587 39.317 30.5519 39.1258C30.9199 38.7858 31.4359 38.6158 32.0999 38.6158C32.4679 38.6079 32.833 38.6831 33.1679 38.8358Z" fill="white"/>
<path d="M24.5456 27.1518H22.3556V18.2998C22.3556 18.0033 22.2378 17.7189 22.0281 17.5092C21.8185 17.2996 21.5341 17.1818 21.2376 17.1818H15.6376C15.4908 17.1818 15.3454 17.2107 15.2097 17.2669C15.0741 17.3231 14.9508 17.4054 14.847 17.5092C14.7432 17.6131 14.6609 17.7363 14.6047 17.872C14.5485 18.0076 14.5196 18.153 14.5196 18.2998V27.1518H12.3196V17.5518C12.3196 17.2149 12.386 16.8813 12.515 16.5701C12.6439 16.2589 12.833 15.9762 13.0713 15.7381C13.3096 15.4999 13.5925 15.3111 13.9038 15.1824C14.2151 15.0537 14.5487 14.9875 14.8856 14.9878H21.9856C22.6656 14.9878 23.3178 15.2579 23.7986 15.7388C24.2795 16.2196 24.5496 16.8718 24.5496 17.5518L24.5456 27.1518Z" fill="#FF3E4C"/>
<path d="M21.95 29.7477C23.3837 29.7477 24.546 28.5854 24.546 27.1517C24.546 25.7179 23.3837 24.5557 21.95 24.5557C20.5163 24.5557 19.354 25.7179 19.354 27.1517C19.354 28.5854 20.5163 29.7477 21.95 29.7477Z" fill="#FF3E4C"/>
<path d="M11.9356 29.7477C13.3693 29.7477 14.5316 28.5854 14.5316 27.1517C14.5316 25.7179 13.3693 24.5557 11.9356 24.5557C10.5019 24.5557 9.3396 25.7179 9.3396 27.1517C9.3396 28.5854 10.5019 29.7477 11.9356 29.7477Z" fill="#FF3E4C"/>
</svg>
