<svg width="41" height="49" viewBox="0 0 41 49" fill="none" xmlns="http://www.w3.org/2000/svg">
<g opacity="0.3">
<path opacity="0.3" d="M28.4342 10.6156C27.3407 10.6145 26.2924 10.1797 25.5192 9.40654C24.746 8.63337 24.3112 7.58502 24.3102 6.49159V0.767578H5.88212C4.45507 0.767578 3.08644 1.33434 2.07718 2.34323C1.06791 3.35212 0.500652 4.72054 0.500122 6.14759V38.5917C0.501712 40.018 1.06944 41.3854 2.07859 42.3934C3.08774 43.4015 4.45576 43.9677 5.88212 43.9677H28.0022C28.7091 43.9679 29.4092 43.8289 30.0624 43.5586C30.7156 43.2882 31.3092 42.8918 31.8091 42.392C32.3091 41.8922 32.7057 41.2988 32.9763 40.6457C33.2469 39.9926 33.3862 39.2926 33.3862 38.5857V10.6156H28.4342Z" fill="#A140FF"/>
</g>
<path d="M33.3856 10.6161H28.4336C27.3401 10.615 26.2918 10.1802 25.5186 9.40703C24.7454 8.63385 24.3106 7.58551 24.3096 6.49208V0.768066L33.3856 10.6161Z" fill="#A140FF"/>
<path d="M37.2879 34.8877H12.2798C10.5059 34.8877 9.06787 36.3258 9.06787 38.0997V45.5557C9.06787 47.3297 10.5059 48.7677 12.2798 48.7677H37.2879C39.0618 48.7677 40.4999 47.3297 40.4999 45.5557V38.0997C40.4999 36.3258 39.0618 34.8877 37.2879 34.8877Z" fill="#A140FF"/>
<path d="M16.2178 43.4414V44.8954H14.7118V43.4414H16.2178Z" fill="white"/>
<path d="M23.7377 38.9258V44.8958H22.2837V41.1678L20.9897 44.9018H19.7317L18.4297 41.1598V44.9018H16.9757V38.9318H18.7537L20.3777 43.0898L21.9777 38.9318L23.7377 38.9258Z" fill="white"/>
<path d="M26.1955 42.7874V44.8954H24.7415V38.8813H27.0995C27.8135 38.8813 28.3595 39.0593 28.7335 39.4133C28.9227 39.5993 29.0705 39.8232 29.167 40.0704C29.2635 40.3176 29.3066 40.5823 29.2935 40.8474C29.3004 41.197 29.2141 41.5421 29.0435 41.8474C28.8687 42.145 28.6099 42.3844 28.2995 42.5354C27.925 42.7131 27.5138 42.7995 27.0995 42.7874H26.1955ZM27.8115 40.8474C27.8115 40.314 27.5195 40.0474 26.9355 40.0474H26.1955V41.6133H26.9355C27.5195 41.6187 27.8115 41.3634 27.8115 40.8474Z" fill="white"/>
<path d="M29.8793 43.7893V42.5673L32.6273 38.7993H34.1913V42.5173H34.9153V43.7833H34.1913V44.8893H32.7193V43.7833L29.8793 43.7893ZM32.8393 40.4893L31.3593 42.5233H32.8393V40.4893Z" fill="white"/>
<path d="M24.3878 27.1492V17.6072C24.3873 17.5609 24.3826 17.5147 24.3738 17.4692C24.3717 17.4556 24.3683 17.4422 24.3638 17.4292C24.3566 17.3979 24.3472 17.3672 24.3358 17.3372C24.3306 17.3235 24.3246 17.3102 24.3178 17.2972C24.3056 17.268 24.2909 17.2399 24.2738 17.2132L24.2538 17.1812C24.2286 17.145 24.2005 17.1109 24.1698 17.0792L24.1558 17.0672C24.1286 17.0416 24.0999 17.0175 24.0698 16.9952L24.0338 16.9732L23.9538 16.9292L23.9118 16.9112C23.8805 16.8991 23.8484 16.8891 23.8158 16.8812H23.7838C23.7384 16.8716 23.6922 16.8669 23.6458 16.8672H10.1738C9.98864 16.8841 9.81644 16.9696 9.69102 17.1069C9.56561 17.2441 9.49598 17.4233 9.49576 17.6092C9.49576 17.6212 9.49576 17.6312 9.49576 17.6432V27.1832C9.49094 27.306 9.52993 27.4265 9.60577 27.5232C9.67138 27.6341 9.76471 27.7259 9.87657 27.7897C9.98844 27.8535 10.115 27.8871 10.2438 27.8872H23.6438C23.8398 27.8862 24.0275 27.8083 24.1666 27.6703C24.3058 27.5323 24.3852 27.3452 24.3878 27.1492ZM10.2998 18.6632V17.2152H11.4777V18.6632H10.2998ZM12.2878 18.6632V17.2152H13.4658V18.6632H12.2878ZM14.2758 18.6632V17.2152H15.4538V18.6632H14.2758ZM16.2638 18.6632V17.2152H17.4418V18.6632H16.2638ZM18.2518 18.6632V17.2152H19.4298V18.6632H18.2518ZM20.2398 18.6632V17.2152H21.4178V18.6632H20.2398ZM22.2278 18.6632V17.2152H23.4058V18.6632H22.2278ZM10.0277 25.6852V19.0552H23.8738V25.6852H10.0277ZM10.2978 27.5232V26.0752H11.4757V27.5232H10.2978ZM12.2858 27.5232V26.0752H13.4638V27.5232H12.2858ZM14.2738 27.5232V26.0752H15.4518V27.5232H14.2738ZM16.2618 27.5232V26.0752H17.4398V27.5232H16.2618ZM18.2498 27.5232V26.0752H19.4278V27.5232H18.2498ZM20.2378 27.5232V26.0752H21.4158V27.5232H20.2378ZM22.2258 27.5232V26.0752H23.4038V27.5232H22.2258Z" fill="#A140FF"/>
<path d="M18.5437 21.8792L16.6297 20.7732C16.5306 20.7165 16.4185 20.6868 16.3044 20.687C16.1903 20.6872 16.0783 20.7174 15.9795 20.7745C15.8807 20.8316 15.7986 20.9136 15.7414 21.0123C15.6843 21.1111 15.654 21.2231 15.6537 21.3372V23.5492C15.654 23.6633 15.6843 23.7753 15.7414 23.8741C15.7986 23.9728 15.8807 24.0549 15.9795 24.1119C16.0783 24.169 16.1903 24.1992 16.3044 24.1994C16.4185 24.1996 16.5306 24.1699 16.6297 24.1132L18.5437 23.0072C18.6425 22.9499 18.7245 22.8676 18.7815 22.7687C18.8385 22.6697 18.8686 22.5574 18.8686 22.4432C18.8686 22.329 18.8385 22.2168 18.7815 22.1178C18.7245 22.0188 18.6425 21.9365 18.5437 21.8792Z" fill="#A140FF"/>
</svg>
