<svg width="41" height="49" viewBox="0 0 41 49" fill="none" xmlns="http://www.w3.org/2000/svg">
<g opacity="0.3">
<path opacity="0.3" d="M28.4341 10.6156C27.3405 10.6145 26.2919 10.1798 25.5185 9.40665C24.745 8.63354 24.3097 7.5852 24.3081 6.49158V0.767578H5.88211C4.45471 0.767578 3.08576 1.33461 2.07644 2.34393C1.06712 3.35326 0.500122 4.72218 0.500122 6.14958V38.5936C0.502242 40.0196 1.07018 41.3865 2.07927 42.3941C3.08837 43.4017 4.4561 43.9676 5.88211 43.9676H28.0022C29.4296 43.9676 30.7985 43.4006 31.8078 42.3913C32.8171 41.3819 33.3841 40.013 33.3841 38.5856V10.6156H28.4341Z" fill="#00C650"/>
</g>
<path d="M33.3837 10.6161H28.4336C27.34 10.615 26.2915 10.1803 25.518 9.40714C24.7445 8.63402 24.3092 7.58568 24.3076 6.49207V0.768066L33.3837 10.6161Z" fill="#00C650"/>
<path d="M37.2879 34.8877H12.2799C10.5059 34.8877 9.06787 36.3258 9.06787 38.0997V45.5557C9.06787 47.3296 10.5059 48.7677 12.2799 48.7677H37.2879C39.0619 48.7677 40.4999 47.3296 40.4999 45.5557V38.0997C40.4999 36.3258 39.0619 34.8877 37.2879 34.8877Z" fill="#00C650"/>
<path d="M13.5116 43.4414V44.8954H12.0056V43.4414H13.5116Z" fill="white"/>
<path d="M21.0317 38.9258V44.8958H19.5757V41.1678L18.2837 44.9018H17.0237L15.7237 41.1598V44.9018H14.2677V38.9318H16.0457L17.6717 43.0898L19.2717 38.9318L21.0317 38.9258Z" fill="white"/>
<path d="M23.4894 42.7873V44.8954H22.0354V38.8813H24.3914C25.1047 38.8813 25.6487 39.0587 26.0234 39.4133C26.2133 39.5989 26.3617 39.8227 26.4585 40.0699C26.5554 40.3172 26.5987 40.5822 26.5854 40.8474C26.5909 41.1968 26.5047 41.5416 26.3354 41.8474C26.1607 42.145 25.9018 42.3844 25.5914 42.5354C25.217 42.7131 24.8057 42.7994 24.3914 42.7873H23.4894ZM25.1054 40.8474C25.1054 40.314 24.8134 40.0474 24.2294 40.0474H23.4894V41.6133H24.2294C24.8134 41.6187 25.1054 41.3634 25.1054 40.8474Z" fill="white"/>
<path d="M28.7555 40.0393V41.2974H30.7876V42.3954H28.7555V43.7314H31.0436V44.8954H27.2996V38.8813H31.0436V40.0393H28.7555Z" fill="white"/>
<path d="M36.5476 39.3675C37.0323 39.7312 37.3582 40.2677 37.4576 40.8655H35.9276C35.8267 40.6506 35.6636 40.4708 35.4596 40.3495C35.2306 40.2133 34.968 40.144 34.7016 40.1495C34.4947 40.1412 34.2885 40.1783 34.0975 40.2581C33.9064 40.3379 33.7351 40.4585 33.5956 40.6115C33.3043 40.9631 33.1558 41.4114 33.1796 41.8675C33.1796 42.4395 33.3256 42.8788 33.6176 43.1855C33.7818 43.3447 33.9774 43.4679 34.192 43.5471C34.4066 43.6263 34.6353 43.6598 34.8636 43.6455C35.1899 43.6514 35.5093 43.551 35.7736 43.3595C36.0398 43.1631 36.2344 42.8849 36.3276 42.5675H34.4896V41.5215H37.5276V42.9675C37.4101 43.3251 37.2254 43.657 36.9836 43.9455C36.7205 44.2554 36.3937 44.505 36.0256 44.6775C35.6091 44.8699 35.1544 44.9656 34.6956 44.9575C34.1374 44.9715 33.5854 44.8376 33.0956 44.5695C32.6474 44.3182 32.2825 43.9414 32.0456 43.4855C31.793 42.9941 31.6658 42.4479 31.6756 41.8955C31.6645 41.3397 31.7917 40.7899 32.0456 40.2955C32.2827 39.841 32.6459 39.4646 33.0916 39.2115C33.5744 38.9461 34.1188 38.8129 34.6696 38.8255C35.3384 38.7923 35.9993 38.9831 36.5476 39.3675Z" fill="white"/>
<path d="M24.3878 27.1497V17.6077C24.3873 17.5614 24.3826 17.5152 24.3738 17.4697C24.3749 17.4564 24.3749 17.443 24.3738 17.4297C24.3738 17.3977 24.3558 17.3677 24.3458 17.3377L24.3278 17.2977C24.3149 17.2685 24.2995 17.2403 24.2818 17.2137L24.2638 17.1817C24.238 17.1459 24.21 17.1119 24.1798 17.0797L24.1658 17.0677C24.1385 17.0421 24.1098 17.018 24.0798 16.9957L24.0438 16.9737C24.0178 16.9577 23.9898 16.9437 23.9618 16.9297L23.9218 16.9117C23.8898 16.8996 23.8571 16.8896 23.8238 16.8817H23.7918C23.7471 16.872 23.7015 16.8673 23.6558 16.8677H10.1838C9.99865 16.8846 9.8265 16.9701 9.70108 17.1074C9.57567 17.2446 9.50599 17.4238 9.50577 17.6097C9.50577 17.6217 9.50577 17.6317 9.50577 17.6437V27.1797C9.5018 27.3024 9.54071 27.4226 9.61578 27.5197C9.68186 27.6306 9.77558 27.7224 9.88775 27.7862C9.99993 27.85 10.1267 27.8836 10.2558 27.8837H23.6558C23.849 27.8796 24.0331 27.8009 24.1696 27.6641C24.306 27.5272 24.3842 27.3429 24.3878 27.1497ZM10.2898 18.6637V17.2157H11.4678V18.6637H10.2898ZM12.2778 18.6637V17.2157H13.4558V18.6637H12.2778ZM14.2658 18.6637V17.2157H15.4438V18.6637H14.2658ZM16.2538 18.6637V17.2157H17.4318V18.6637H16.2538ZM18.2418 18.6637V17.2157H19.4198V18.6637H18.2418ZM20.2298 18.6637V17.2157H21.4078V18.6637H20.2298ZM22.2178 18.6637V17.2157H23.3958V18.6637H22.2178ZM10.0178 25.6857V19.0557H23.8618V25.6857H10.0178ZM10.2878 27.5237V26.0757H11.4658V27.5237H10.2878ZM12.2758 27.5237V26.0757H13.4538V27.5237H12.2758ZM14.2638 27.5237V26.0757H15.4418V27.5237H14.2638ZM16.2518 27.5237V26.0757H17.4298V27.5237H16.2518ZM18.2398 27.5237V26.0757H19.4178V27.5237H18.2398ZM20.2278 27.5237V26.0757H21.4058V27.5237H20.2278ZM22.2158 27.5237V26.0757H23.3938V27.5237H22.2158Z" fill="#00C650"/>
<path d="M18.5435 21.8794L16.6295 20.7734C16.5304 20.7162 16.418 20.6861 16.3036 20.686C16.1892 20.686 16.0769 20.7161 15.9778 20.7732C15.8787 20.8304 15.7963 20.9126 15.739 21.0116C15.6818 21.1106 15.6516 21.223 15.6515 21.3374V23.5494C15.6516 23.6638 15.6818 23.7761 15.739 23.8752C15.7963 23.9742 15.8787 24.0564 15.9778 24.1136C16.0769 24.1707 16.1892 24.2008 16.3036 24.2007C16.418 24.2007 16.5304 24.1706 16.6295 24.1134L18.5435 23.0074C18.6423 22.9501 18.7243 22.8678 18.7813 22.7688C18.8383 22.6698 18.8683 22.5576 18.8683 22.4434C18.8683 22.3292 18.8383 22.2169 18.7813 22.1179C18.7243 22.019 18.6423 21.9367 18.5435 21.8794Z" fill="#00C650"/>
</svg>
