<svg width="25" height="25" viewBox="0 0 25 25" fill="none" xmlns="http://www.w3.org/2000/svg">
<path d="M21.0183 7.1288C21.0203 9.0588 19.452 10.6304 17.522 10.6324C15.592 10.6344 14.0203 9.06606 14.0183 7.13606C14.0163 5.20606 15.5847 3.63443 17.5147 3.63243C19.4447 3.63043 21.0163 5.19881 21.0183 7.1288ZM19.0238 12.4209C18.5239 12.5514 18.024 12.6319 17.524 12.6324C16.0661 12.6313 14.6681 12.0524 13.6362 11.0226C12.6042 9.99282 12.0225 8.59601 12.0183 7.13813C12.0168 5.66813 12.5954 4.33753 13.5144 3.34658C13.3327 3.12431 13.1037 2.94538 12.8441 2.82282C12.5844 2.70026 12.3008 2.63717 12.0137 2.63814C10.9137 2.63928 10.0146 3.54021 10.0157 4.64021L10.016 4.93021C7.04696 5.81329 5.01979 8.54539 5.023 11.6454L5.02922 17.6454L3.03129 19.6475L3.03233 20.6475L21.0323 20.6288L21.0313 19.6288L19.0292 17.6309L19.0238 12.4209ZM12.0354 23.6381C13.1454 23.637 14.0345 22.7461 14.0334 21.6361L10.0334 21.6402C10.0339 22.1706 10.2452 22.6791 10.6206 23.0538C10.9961 23.4285 11.505 23.6387 12.0354 23.6381Z" fill="#0A0A0A"/>
<circle cx="17.5193" cy="7.13211" r="3.5" transform="rotate(-0.0593957 17.5193 7.13211)" fill="#FFCD05"/>
</svg>
