<svg width="12" height="15" viewBox="0 0 12 15" fill="none" xmlns="http://www.w3.org/2000/svg">
<path opacity="0.4" d="M10.7896 5.7615C10.4783 5.7615 10.066 5.75461 9.55259 5.75461C8.30053 5.75461 7.27103 4.71832 7.27103 3.4545V1.23713C7.27103 1.06269 7.13176 0.920654 6.95903 0.920654H3.31208C1.61013 0.920654 0.234497 2.31754 0.234497 4.02952V11.4587C0.234497 13.2548 1.67566 14.7103 3.45408 14.7103H8.88491C10.5807 14.7103 11.9557 13.3223 11.9557 11.609V6.07177C11.9557 5.89664 11.8171 5.75529 11.6437 5.75598C11.3522 5.75805 11.0026 5.7615 10.7896 5.7615Z" fill="#56555C"/>
<path opacity="0.4" d="M8.91091 1.31187C8.70476 1.09744 8.34485 1.24499 8.34485 1.54215V3.36032C8.34485 4.12288 8.97297 4.75031 9.73553 4.75031C10.2161 4.75583 10.8835 4.75721 11.4503 4.75583C11.7405 4.75514 11.8881 4.40833 11.6868 4.19873C10.9594 3.44236 9.65693 2.08684 8.91091 1.31187Z" fill="#56555C"/>
<path d="M7.76231 9.80998C8.04568 9.80998 8.27597 10.0403 8.27597 10.3236C8.27597 10.607 8.04568 10.8366 7.76231 10.8366H4.00877C3.72539 10.8366 3.4958 10.607 3.4958 10.3236C3.4958 10.0403 3.72539 9.80998 4.00877 9.80998H7.76231ZM6.3426 6.36658C6.62597 6.36658 6.85626 6.59686 6.85626 6.88024C6.85626 7.16362 6.62597 7.39321 6.3426 7.39321H4.0087C3.72532 7.39321 3.49573 7.16362 3.49573 6.88024C3.49573 6.59686 3.72532 6.36658 4.0087 6.36658H6.3426Z" fill="#56555C"/>
</svg>
