<svg width="41" height="49" viewBox="0 0 41 49" fill="none" xmlns="http://www.w3.org/2000/svg">
<g opacity="0.3">
<path opacity="0.3" d="M28.434 10.6172C27.3406 10.6161 26.2922 10.1813 25.5191 9.40814C24.7459 8.635 24.3111 7.5867 24.31 6.49332V0.767578H5.88199C4.4546 0.767578 3.08568 1.3346 2.07635 2.34388C1.06703 3.35316 0.5 4.722 0.5 6.14934V38.592C0.50212 40.0179 1.07008 41.3848 2.07917 42.3923C3.08827 43.3999 4.45598 43.9658 5.88199 43.9658H28.004C29.43 43.9658 30.7977 43.3999 31.8068 42.3923C32.8159 41.3848 33.3839 40.0179 33.386 38.592V10.6172H28.434Z" fill="#FF3E4C"/>
</g>
<path d="M33.3858 10.6181H28.4338C27.3404 10.617 26.292 10.1822 25.5189 9.40898C24.7457 8.63581 24.3109 7.58747 24.3098 6.49404V0.768066L33.3858 10.6181Z" fill="#FF3E4C"/>
<path d="M26.6194 30.935H5.97144C5.77252 30.935 5.58175 30.856 5.4411 30.7153C5.30045 30.5747 5.22144 30.3839 5.22144 30.185C5.22197 29.9864 5.30121 29.7962 5.44181 29.656C5.5824 29.5157 5.77287 29.437 5.97144 29.437H26.6194C26.8178 29.437 27.0081 29.5158 27.1483 29.6561C27.2886 29.7963 27.3674 29.9866 27.3674 30.185C27.3677 30.2834 27.3485 30.3809 27.3111 30.4719C27.2736 30.5629 27.2185 30.6455 27.1491 30.7152C27.0796 30.7849 26.997 30.8402 26.9061 30.8779C26.8153 30.9156 26.7178 30.935 26.6194 30.935Z" fill="#FF3E4C"/>
<path d="M26.6194 22.4868H5.97144C5.77287 22.4868 5.5824 22.408 5.44181 22.2678C5.30121 22.1276 5.22197 21.9373 5.22144 21.7388C5.22144 21.5399 5.30045 21.3491 5.4411 21.2084C5.58175 21.0677 5.77252 20.9888 5.97144 20.9888H26.6194C26.7178 20.9888 26.8153 21.0082 26.9061 21.0459C26.997 21.0836 27.0796 21.1389 27.1491 21.2085C27.2185 21.2782 27.2736 21.3609 27.3111 21.4519C27.3485 21.5429 27.3677 21.6404 27.3674 21.7388C27.3674 21.9372 27.2886 22.1274 27.1483 22.2677C27.0081 22.408 26.8178 22.4868 26.6194 22.4868Z" fill="#FF3E4C"/>
<path d="M26.6194 26.7109H5.97144C5.77252 26.7109 5.58175 26.6319 5.4411 26.4912C5.30045 26.3506 5.22144 26.1598 5.22144 25.9609C5.22197 25.7623 5.30121 25.5721 5.44181 25.4318C5.5824 25.2916 5.77287 25.2129 5.97144 25.2129H26.6194C26.8178 25.2129 27.0081 25.2917 27.1483 25.432C27.2886 25.5723 27.3674 25.7625 27.3674 25.9609C27.3677 26.0593 27.3485 26.1568 27.3111 26.2478C27.2736 26.3387 27.2185 26.4214 27.1491 26.4911C27.0796 26.5608 26.997 26.616 26.9061 26.6538C26.8153 26.6915 26.7178 26.7109 26.6194 26.7109Z" fill="#FF3E4C"/>
<path d="M18.4754 18.2636H5.97144C5.77287 18.2636 5.5824 18.1849 5.44181 18.0447C5.30121 17.9045 5.22197 17.7142 5.22144 17.5156C5.22144 17.3167 5.30045 17.126 5.4411 16.9853C5.58175 16.8447 5.77252 16.7656 5.97144 16.7656H18.4754C18.674 16.7662 18.8643 16.8454 19.0045 16.986C19.1447 17.1266 19.2234 17.3171 19.2234 17.5156C19.2229 17.7138 19.1439 17.9038 19.0038 18.0439C18.8636 18.1841 18.6737 18.2631 18.4754 18.2636Z" fill="#FF3E4C"/>
<path d="M18.4754 14.0395H5.97144C5.77287 14.0395 5.5824 13.9607 5.44181 13.8205C5.30121 13.6803 5.22197 13.4901 5.22144 13.2915C5.22144 13.0926 5.30045 12.9018 5.4411 12.7611C5.58175 12.6205 5.77252 12.5415 5.97144 12.5415H18.4754C18.674 12.542 18.8643 12.6213 19.0045 12.7619C19.1447 12.9025 19.2234 13.0929 19.2234 13.2915C19.2229 13.4897 19.1439 13.6797 19.0038 13.8198C18.8636 13.96 18.6737 14.039 18.4754 14.0395Z" fill="#FF3E4C"/>
<path d="M37.2879 34.8882H12.2799C10.5059 34.8882 9.06787 36.3262 9.06787 38.1V45.5557C9.06787 47.3296 10.5059 48.7676 12.2799 48.7676H37.2879C39.0618 48.7676 40.4999 47.3296 40.4999 45.5557V38.1C40.4999 36.3262 39.0618 34.8882 37.2879 34.8882Z" fill="#FF3E4C"/>
<path d="M17.2718 43.4424V44.8964H15.7678V43.4424H17.2718Z" fill="white"/>
<path d="M19.4838 42.7863V44.8963H18.0298V38.8823H20.3858C21.0998 38.8823 21.6458 39.0603 22.0198 39.4143C22.209 39.6003 22.3568 39.8242 22.4533 40.0713C22.5498 40.3185 22.5929 40.5833 22.5798 40.8483C22.5871 41.1979 22.5008 41.5432 22.3298 41.8483C22.1552 42.1466 21.8964 42.3867 21.5858 42.5383C21.2112 42.7154 20.7999 42.8011 20.3858 42.7883L19.4838 42.7863ZM21.0998 40.8483C21.0998 40.315 20.8078 40.0483 20.2238 40.0483H19.4838V41.6143H20.2238C20.8078 41.6196 21.0998 41.3643 21.0998 40.8483Z" fill="white"/>
<path d="M28.3259 43.4464C28.0755 43.9012 27.6972 44.2725 27.2379 44.5145C26.7211 44.779 26.1464 44.9103 25.5659 44.8964H23.2959V38.8825H25.5659C26.1468 38.8679 26.7223 38.9963 27.2419 39.2564C27.7 39.4932 28.0773 39.8608 28.3259 40.3124C28.5861 40.792 28.7171 41.331 28.7059 41.8765C28.7167 42.4238 28.5858 42.9646 28.3259 43.4464ZM26.7619 43.1444C26.9245 42.9776 27.0504 42.7786 27.1317 42.5603C27.213 42.3419 27.2478 42.109 27.2339 41.8765C27.2479 41.6442 27.2131 41.4115 27.1318 41.1935C27.0505 40.9755 26.9245 40.7769 26.7619 40.6104C26.3981 40.2913 25.9229 40.1288 25.4399 40.1584H24.7499V43.5944H25.4399C25.9226 43.6238 26.3974 43.4621 26.7619 43.1444Z" fill="white"/>
<path d="M33.4518 38.8823V40.0403H30.9858V41.3583H32.8898V42.4643H30.9858V44.8963H29.5298V38.8823H33.4518Z" fill="white"/>
<path d="M26.2538 12.5415H22.7178C22.1014 12.5415 21.6018 13.0412 21.6018 13.6575V17.1935C21.6018 17.8099 22.1014 18.3095 22.7178 18.3095H26.2538C26.8702 18.3095 27.3698 17.8099 27.3698 17.1935V13.6575C27.3698 13.0412 26.8702 12.5415 26.2538 12.5415Z" fill="#FF3E4C"/>
</svg>
