<svg width="8" height="8" viewBox="0 0 8 8" fill="none" xmlns="http://www.w3.org/2000/svg">
<path d="M7.54559 2.88188L3.02758 7.42236C2.79261 7.65107 2.4838 7.77887 2.16157 7.77887H0.583955C0.496683 7.77887 0.416124 7.74524 0.355705 7.6847C0.295286 7.62416 0.268433 7.54344 0.268433 7.45599L0.308712 5.86178C0.315425 5.54563 0.442977 5.24965 0.664514 5.02768L3.86673 1.81907C3.92044 1.76525 4.01443 1.76525 4.06813 1.81907L5.19126 2.93771C5.2651 3.01103 5.37252 3.05879 5.48664 3.05879C5.73503 3.05879 5.92972 2.85699 5.92972 2.61483C5.92972 2.49375 5.88272 2.38612 5.80888 2.3054C5.78874 2.27849 4.71932 1.21367 4.71932 1.21367C4.65218 1.1464 4.65218 1.03205 4.71932 0.964781L5.1691 0.507369C5.58533 0.0903171 6.25665 0.0903171 6.67287 0.507369L7.54559 1.38183C7.9551 1.79216 7.9551 2.46482 7.54559 2.88188Z" fill="#56555C"/>
</svg>
