<svg width="9" height="8" viewBox="0 0 9 8" fill="none" xmlns="http://www.w3.org/2000/svg">
<path d="M7.55271 4.81779H5.09111V7.25805C5.09111 7.65096 4.76981 7.96947 4.37347 7.96947C3.97712 7.96947 3.65582 7.65096 3.65582 7.25805V4.81779H1.19422C0.824523 4.77984 0.543579 4.471 0.543579 4.10255C0.543579 3.73409 0.824523 3.42525 1.19422 3.3873H3.64811V0.954696C3.68639 0.5882 3.99793 0.309692 4.36961 0.309692C4.74129 0.309692 5.05283 0.5882 5.09111 0.954696V3.3873H7.55271C7.92241 3.42525 8.20336 3.73409 8.20336 4.10255C8.20336 4.471 7.92241 4.77984 7.55271 4.81779Z" fill="#262626"/>
</svg>
