<svg width="41" height="49" viewBox="0 0 41 49" fill="none" xmlns="http://www.w3.org/2000/svg">
<g opacity="0.3">
<path opacity="0.3" d="M28.4342 10.6156C27.3407 10.6145 26.2924 10.1797 25.5192 9.40653C24.746 8.63336 24.3112 7.58502 24.3102 6.49159V0.767578H5.88213C4.45473 0.767578 3.0858 1.33461 2.07648 2.34394C1.06716 3.35326 0.500122 4.72218 0.500122 6.14958V38.5936C0.502242 40.0197 1.07021 41.3865 2.0793 42.3941C3.08839 43.4017 4.45611 43.9677 5.88213 43.9677H28.0042C29.4305 43.9677 30.7986 43.4014 31.8077 42.3934C32.8169 41.3854 33.3846 40.018 33.3862 38.5916V10.6156H28.4342Z" fill="#005FAD"/>
</g>
<path d="M33.3856 10.6161H28.4336C27.3401 10.615 26.2918 10.1802 25.5186 9.40702C24.7455 8.63385 24.3106 7.58551 24.3096 6.49208V0.768066L33.3856 10.6161Z" fill="#005FAD"/>
<path d="M37.2879 34.8877H12.2799C10.5059 34.8877 9.06787 36.3258 9.06787 38.0997V45.5557C9.06787 47.3296 10.5059 48.7677 12.2799 48.7677H37.2879C39.0619 48.7677 40.4999 47.3296 40.4999 45.5557V38.0997C40.4999 36.3258 39.0619 34.8877 37.2879 34.8877Z" fill="#005FAD"/>
<path d="M16.3116 43.4414V44.8954H14.8055V43.4414H16.3116Z" fill="white"/>
<path d="M18.5235 42.7873V44.8954H17.0675V38.8813H19.4235C20.1395 38.8813 20.6842 39.0587 21.0575 39.4133C21.247 39.5992 21.3951 39.8231 21.4919 40.0702C21.5888 40.3174 21.6323 40.5822 21.6195 40.8474C21.6258 41.1972 21.5388 41.5423 21.3675 41.8474C21.1938 42.1459 20.9347 42.3855 20.6235 42.5354C20.2493 42.7138 19.8379 42.8002 19.4235 42.7873H18.5235ZM20.1395 40.8474C20.1395 40.314 19.8475 40.0474 19.2635 40.0474H18.5235V41.6133H19.2635C19.8475 41.6187 20.1395 41.3634 20.1395 40.8474Z" fill="white"/>
<path d="M27.6756 44.8954H26.2216L23.7855 41.2033V44.8954H22.3315V38.8813H23.7855L26.2196 42.6074V38.8813H27.6736L27.6756 44.8954Z" fill="white"/>
<path d="M33.3577 39.3679C33.8431 39.731 34.1691 40.2678 34.2677 40.8659H32.7277C32.6267 40.6517 32.4646 40.4721 32.2617 40.3499C32.0326 40.214 31.7701 40.1447 31.5037 40.1499C31.2968 40.1413 31.0905 40.1782 30.8995 40.2581C30.7084 40.3379 30.5371 40.4587 30.3977 40.6119C30.1055 40.963 29.9569 41.4117 29.9817 41.8679C29.9817 42.4399 30.1277 42.8792 30.4197 43.1859C30.5839 43.3452 30.7795 43.4684 30.9941 43.5477C31.2087 43.6269 31.4375 43.6603 31.6657 43.6459C31.992 43.6515 32.3114 43.5512 32.5757 43.3599C32.8451 43.1583 33.0393 42.8725 33.1278 42.5479H31.2917V41.5019H34.3457V42.9679C34.2275 43.3256 34.0422 43.6575 33.7997 43.9459C33.5379 44.2563 33.2117 44.5061 32.8437 44.6779C32.4265 44.8705 31.9712 44.9662 31.5117 44.9579C30.9535 44.972 30.4015 44.8381 29.9117 44.5699C29.4636 44.3186 29.0986 43.9418 28.8617 43.4859C28.6082 42.9949 28.4811 42.4484 28.4917 41.8959C28.4797 41.34 28.6069 40.79 28.8617 40.2959C29.0983 39.841 29.4616 39.4645 29.9077 39.2119C30.3904 38.946 30.9349 38.8128 31.4857 38.8259C32.1527 38.7932 32.8115 38.9839 33.3577 39.3679Z" fill="white"/>
<path d="M11.4398 14.1118H8.68982V16.8618H11.4398V14.1118Z" fill="#005FAD"/>
<path d="M14.1919 16.8623H11.4419V19.6123H14.1919V16.8623Z" fill="#005FAD"/>
<path d="M16.9418 14.1118H14.1918V16.8618H16.9418V14.1118Z" fill="#005FAD"/>
<path d="M19.6918 16.8623H16.9418V19.6123H19.6918V16.8623Z" fill="#005FAD"/>
<path d="M22.4454 14.1118H19.6954V16.8618H22.4454V14.1118Z" fill="#005FAD"/>
<path d="M25.1956 16.8623H22.4456V19.6123H25.1956V16.8623Z" fill="#005FAD"/>
<path d="M11.4397 19.6074H8.6897V22.3574H11.4397V19.6074Z" fill="#005FAD"/>
<path d="M14.1919 22.3574H11.4419V25.1074H14.1919V22.3574Z" fill="#005FAD"/>
<path d="M16.9415 19.6074H14.1915V22.3574H16.9415V19.6074Z" fill="#005FAD"/>
<path d="M19.6918 22.3574H16.9418V25.1074H19.6918V22.3574Z" fill="#005FAD"/>
<path d="M22.4454 19.6074H19.6954V22.3574H22.4454V19.6074Z" fill="#005FAD"/>
<path d="M25.1956 22.3574H22.4456V25.1074H25.1956V22.3574Z" fill="#005FAD"/>
<path d="M11.4397 25.1294H8.6897V27.8794H11.4397V25.1294Z" fill="#005FAD"/>
<path d="M14.1919 27.8799H11.4419V30.6299H14.1919V27.8799Z" fill="#005FAD"/>
<path d="M16.9415 25.1294H14.1915V27.8794H16.9415V25.1294Z" fill="#005FAD"/>
<path d="M19.6918 27.8799H16.9418V30.6299H19.6918V27.8799Z" fill="#005FAD"/>
<path d="M22.4454 25.1294H19.6954V27.8794H22.4454V25.1294Z" fill="#005FAD"/>
<path d="M25.1956 27.8799H22.4456V30.6299H25.1956V27.8799Z" fill="#005FAD"/>
</svg>
