<svg width="41" height="49" viewBox="0 0 41 49" fill="none" xmlns="http://www.w3.org/2000/svg">
<g opacity="0.3">
<path opacity="0.3" d="M28.434 10.6172C27.3406 10.6161 26.2922 10.1813 25.519 9.40814C24.7459 8.635 24.3111 7.5867 24.31 6.49332V0.767578H5.88198C4.45459 0.767578 3.08569 1.3346 2.07637 2.34388C1.06705 3.35316 0.5 4.722 0.5 6.14934V38.592C0.5 40.0193 1.06705 41.3882 2.07637 42.3975C3.08569 43.4068 4.45459 43.9738 5.88198 43.9738H28.002C28.7089 43.974 29.409 43.835 30.0622 43.5647C30.7154 43.2943 31.309 42.898 31.8089 42.3982C32.3089 41.8984 32.7055 41.3051 32.9761 40.652C33.2467 39.9989 33.386 39.2989 33.386 38.592V10.6172H28.434Z" fill="#FF3E4C"/>
</g>
<path d="M33.3858 10.6181H28.4338C27.3404 10.617 26.292 10.1822 25.5188 9.40898C24.7457 8.63581 24.3109 7.58747 24.3098 6.49404V0.768066L33.3858 10.6181Z" fill="#FF3E4C"/>
<path d="M37.2878 34.8882H12.2798C10.5059 34.8882 9.06787 36.3262 9.06787 38.1V45.5557C9.06787 47.3296 10.5059 48.7676 12.2798 48.7676H37.2878C39.0618 48.7676 40.4999 47.3296 40.4999 45.5557V38.1C40.4999 36.3262 39.0618 34.8882 37.2878 34.8882Z" fill="#FF3E4C"/>
<path d="M17.8598 43.4424V44.8964H16.3538V43.4424H17.8598Z" fill="white"/>
<path d="M20.0719 42.7858V44.8958H18.6179V38.8818H20.9739C21.6886 38.8818 22.2326 39.0592 22.6059 39.4138C22.7954 39.5997 22.9435 39.8236 23.0403 40.0707C23.1372 40.3178 23.1807 40.5827 23.1679 40.8478C23.1742 41.1974 23.088 41.5424 22.9179 41.8478C22.7431 42.1466 22.4834 42.3868 22.1719 42.5378C21.7976 42.7156 21.3861 42.8013 20.9719 42.7878L20.0719 42.7858ZM21.6879 40.8478C21.6879 40.3145 21.3959 40.0478 20.8119 40.0478H20.0719V41.6138H20.8119C21.3959 41.6192 21.6879 41.3638 21.6879 40.8478Z" fill="white"/>
<path d="M25.3381 42.7858V44.8958H23.8821V38.8818H26.2381C26.9541 38.8818 27.4988 39.0592 27.8721 39.4138C28.0616 39.5997 28.2096 39.8236 28.3065 40.0707C28.4034 40.3178 28.4468 40.5827 28.4341 40.8478C28.4407 41.1976 28.3537 41.5429 28.1821 41.8478C28.0085 42.1469 27.7494 42.3873 27.4381 42.5378C27.0637 42.7156 26.6523 42.8013 26.2381 42.7878L25.3381 42.7858ZM26.9541 40.8478C26.9541 40.3145 26.6621 40.0478 26.0781 40.0478H25.3381V41.6138H26.0781C26.6621 41.6192 26.9541 41.3638 26.9541 40.8478Z" fill="white"/>
<path d="M33.4699 38.8818V40.0398H31.8358V44.8958H30.3739V40.0398H28.7559V38.8818H33.4699Z" fill="white"/>
<path d="M15.4375 17.5136H6.69946C6.5009 17.5136 6.31042 17.4349 6.16982 17.2947C6.02923 17.1545 5.94999 16.9642 5.94946 16.7656C5.94946 16.5667 6.02849 16.376 6.16914 16.2353C6.30979 16.0947 6.50055 16.0156 6.69946 16.0156H15.4294C15.6284 16.0156 15.8192 16.0947 15.9598 16.2353C16.1005 16.376 16.1794 16.5667 16.1794 16.7656C16.1789 16.9628 16.1008 17.1519 15.9619 17.2918C15.823 17.4318 15.6346 17.5115 15.4375 17.5136Z" fill="#FF3E4C"/>
<path d="M15.4375 21.9868H6.69946C6.5009 21.9868 6.31042 21.908 6.16982 21.7678C6.02923 21.6276 5.94999 21.4373 5.94946 21.2388C5.94946 21.0399 6.02849 20.8491 6.16914 20.7084C6.30979 20.5677 6.50055 20.4888 6.69946 20.4888H15.4294C15.6284 20.4888 15.8192 20.5677 15.9598 20.7084C16.1005 20.8491 16.1794 21.0399 16.1794 21.2388C16.1789 21.436 16.1008 21.625 15.9619 21.765C15.823 21.905 15.6346 21.9847 15.4375 21.9868Z" fill="#FF3E4C"/>
<path d="M15.4375 26.4608H6.69946C6.50055 26.4608 6.30979 26.3818 6.16914 26.2411C6.02849 26.1005 5.94946 25.9097 5.94946 25.7108C5.95105 25.5129 6.03076 25.3237 6.17124 25.1843C6.31172 25.045 6.50159 24.9668 6.69946 24.9668H15.4294C15.628 24.9668 15.8185 25.0455 15.9591 25.1857C16.0997 25.326 16.1789 25.5162 16.1794 25.7148C16.1784 25.9116 16.1 26.1002 15.9612 26.2397C15.8224 26.3793 15.6343 26.4587 15.4375 26.4608Z" fill="#FF3E4C"/>
<path d="M15.4375 30.935H6.69946C6.50055 30.935 6.30979 30.856 6.16914 30.7153C6.02849 30.5747 5.94946 30.3839 5.94946 30.185C5.94999 29.9864 6.02923 29.7962 6.16982 29.656C6.31042 29.5157 6.5009 29.437 6.69946 29.437H15.4294C15.628 29.437 15.8185 29.5157 15.9591 29.656C16.0997 29.7962 16.1789 29.9864 16.1794 30.185C16.1795 30.3825 16.1016 30.5721 15.9626 30.7125C15.8237 30.8529 15.635 30.9329 15.4375 30.935Z" fill="#FF3E4C"/>
<path d="M23.9497 24.3667V17.7188C22.3301 17.8043 20.805 18.5078 19.6887 19.6844C18.5724 20.8609 17.95 22.4209 17.9497 24.0427C17.9494 24.8743 18.113 25.6979 18.4312 26.4662C18.7493 27.2346 19.2157 27.9327 19.8037 28.5208C20.3917 29.1088 21.0899 29.5752 21.8583 29.8933C22.6266 30.2114 23.4501 30.375 24.2817 30.3748C25.9035 30.3749 27.4635 29.7526 28.6398 28.6361C29.8162 27.5197 30.5192 25.9943 30.6037 24.3748L23.9497 24.3667Z" fill="#FF3E4C"/>
<path d="M25.1621 17.2129V23.2129H31.1621C31.082 21.6475 30.4241 20.1676 29.3158 19.0592C28.2074 17.9509 26.7275 17.293 25.1621 17.2129Z" fill="#FF3E4C"/>
</svg>
