<svg width="18" height="17" viewBox="0 0 18 17" fill="none" xmlns="http://www.w3.org/2000/svg">
<path d="M2.09614 0.927734C0.997093 0.927734 0.0917969 1.83303 0.0917969 2.93208V14.0673C0.0917969 15.1664 0.997093 16.0717 2.09614 16.0717H15.9039C17.0029 16.0717 17.9082 15.1664 17.9082 14.0673V2.93208C17.9082 1.83303 17.0029 0.927734 15.9039 0.927734H2.09614ZM2.09614 2.26396H5.43672V7.83159H1.42803V2.93208C1.42803 2.55504 1.7191 2.26396 2.09614 2.26396ZM6.77295 2.26396H15.9039C16.2809 2.26396 16.572 2.55504 16.572 2.93208V7.83159H6.77295V2.26396ZM1.42803 9.16782H5.43672V14.7354H2.09614C1.7191 14.7354 1.42803 14.4444 1.42803 14.0673V9.16782ZM6.77295 9.16782H11.2271V14.7354H6.77295V9.16782ZM12.5633 9.16782H16.572V14.0673C16.572 14.4444 16.2809 14.7354 15.9039 14.7354H12.5633V9.16782Z" fill="#5A5A5A"/>
</svg>
