<svg width="65" height="64" viewBox="0 0 65 64" fill="none" xmlns="http://www.w3.org/2000/svg">
<path d="M13.0869 1.45293C12.8916 1.47636 12.6884 1.52324 12.4892 1.60136C11.6884 1.89824 11.29 2.60136 11.29 3.39824V7.60136L9.98923 6.30058C9.59079 5.90214 8.98923 5.90214 8.59079 6.30058C8.19235 6.69902 8.19235 7.30058 8.59079 7.69902L9.89157 8.9998H5.68845C4.89157 8.9998 4.18845 9.4998 3.89157 10.199C3.59079 10.8982 3.68845 11.8006 4.29001 12.4021L9.68845 17.8006C7.48923 21.8006 6.29001 26.3982 6.29001 30.9998C6.29001 39.9998 10.79 48.1014 17.5908 52.9998L14.4892 57.4998C14.1884 57.9998 14.29 58.6014 14.6924 58.9021C14.8916 58.9998 15.0908 59.0975 15.29 59.0975C15.5908 59.0975 15.8916 58.9998 16.0908 58.699L19.29 54.199C23.3916 56.699 28.1884 58.0975 33.29 58.0975C38.3916 58.0975 43.1884 56.699 47.29 54.199L50.4892 58.699C50.6884 58.9998 50.9892 59.0975 51.29 59.0975C51.4892 59.0975 51.6884 58.9998 51.8877 58.9021C52.3877 58.6014 52.4892 57.9998 52.0908 57.4998L48.9892 52.9998C55.79 48.1014 60.29 39.9998 60.29 30.9998C60.29 16.1014 48.1884 3.9998 33.29 3.9998C28.6884 3.9998 24.0908 5.19902 20.0908 7.39824L14.6924 1.9998C14.2392 1.55058 13.6767 1.38261 13.0869 1.45293ZM13.29 3.39824L19.6924 9.80058C20.0908 10.199 20.29 10.699 20.29 11.199V16.4998L13.29 9.4998V3.39824ZM33.29 5.9998C47.0908 5.9998 58.29 17.199 58.29 30.9998C58.29 44.8006 47.0908 55.9998 33.29 55.9998C19.4892 55.9998 8.29001 44.8006 8.29001 30.9998C8.29001 26.8982 9.29001 22.9021 11.1924 19.3006C11.8916 19.8006 12.6884 19.9998 13.4892 19.9998H20.79L32.4892 31.699C32.6884 31.8982 32.9892 31.9998 33.1924 31.9998C33.3916 31.9998 33.6884 31.8982 33.8877 31.699C34.29 31.3006 34.29 30.699 33.8877 30.3006L22.29 18.5975V11.3006C22.29 10.4998 21.9892 9.69902 21.5908 8.9998C25.1924 6.9998 29.1884 5.9998 33.29 5.9998ZM33.29 9.9998C29.9892 9.9998 26.79 10.8006 23.79 12.199C23.29 12.3982 23.0908 12.9998 23.3877 13.4998C23.5908 13.9998 24.1924 14.199 24.6924 13.9021C27.3916 12.6014 30.1924 11.9021 33.1924 11.9021C43.6924 11.9021 52.1924 20.4021 52.1924 30.9021C52.1924 41.4021 43.6924 49.9021 33.1924 49.9021C22.6924 49.9021 14.1924 41.4021 14.1924 30.9021C14.1924 29.9021 14.29 28.9998 14.3877 27.9998C14.4892 27.4998 14.0908 26.9021 13.5908 26.9021C13.0908 26.8006 12.4892 27.199 12.4892 27.699C12.29 28.699 12.29 29.8006 12.29 30.8006C12.29 42.4021 21.6884 51.8006 33.29 51.8006C44.8916 51.8006 54.29 42.4021 54.29 30.8006C54.29 19.199 44.8916 9.9998 33.29 9.9998ZM5.68845 10.9998H11.8877L18.8877 17.9998H13.5908C13.0908 17.9998 12.5908 17.8006 12.1924 17.4021L5.68845 10.9998ZM33.29 16.9998C31.0908 16.9998 28.79 17.4998 26.79 18.5975C26.29 18.8982 26.0908 19.4998 26.3877 19.9021C26.6884 20.4021 27.29 20.6014 27.6924 20.3006C29.3916 19.4021 31.29 18.9021 33.1924 18.9021C39.8916 18.9998 45.29 24.3982 45.29 30.9998C45.29 35.4998 42.79 39.5975 38.79 41.5975C38.29 41.8982 38.0908 42.4998 38.3877 42.9021C38.5908 43.199 38.8916 43.4021 39.29 43.4021C39.4892 43.4021 39.5908 43.4021 39.79 43.3006C44.3916 40.9998 47.29 36.199 47.29 30.9998C47.29 23.3006 40.9892 16.9998 33.29 16.9998ZM15.5049 21.1209C15.1142 21.1131 14.7392 21.3006 14.5908 21.5975C14.29 22.3006 13.8916 22.9998 13.6924 23.699C13.3916 24.199 13.6924 24.699 14.1924 24.9021C14.29 24.9021 14.3916 24.9998 14.5908 24.9998C14.9892 24.9998 15.3877 24.8006 15.4892 24.4021C15.6884 23.8006 15.9892 23.1014 16.29 22.4998C16.4892 21.9998 16.29 21.3982 15.8877 21.199C15.7627 21.1482 15.6338 21.1248 15.5049 21.1209ZM22.1025 23.4646C21.708 23.4178 21.3174 23.6248 21.0908 23.9998C20.8916 24.4998 21.0908 25.1014 21.4892 25.4021L23.1924 26.4021C23.3916 26.4998 23.4892 26.4998 23.6924 26.4998C23.9892 26.4998 24.3916 26.3006 24.5908 25.9998C24.8916 25.4998 24.6924 24.8982 24.1924 24.5975L22.4892 23.5975C22.3642 23.5232 22.2353 23.4803 22.1025 23.4646ZM33.29 23.9998C32.8916 23.9998 32.4892 23.9998 32.0908 24.0975C31.5908 24.199 31.1884 24.699 31.29 25.3006C31.3916 25.8006 31.8877 26.199 32.4892 26.0975C32.79 26.0975 33.0908 25.9998 33.29 25.9998C36.0908 25.9998 38.29 28.199 38.29 30.9998C38.29 33.8006 36.0908 35.9998 33.29 35.9998C30.4892 35.9998 28.29 33.8006 28.29 30.9998C28.29 30.699 28.29 30.3982 28.3877 30.199C28.4892 29.699 28.0908 29.1014 27.5908 28.9998C26.9892 28.8982 26.4892 29.3006 26.3877 29.8006C26.29 30.199 26.29 30.6014 26.29 30.9998C26.29 34.8982 29.3916 37.9998 33.29 37.9998C37.1884 37.9998 40.29 34.8982 40.29 30.9998C40.29 27.1014 37.1884 23.9998 33.29 23.9998ZM20.29 29.9998C19.6884 29.9998 19.29 30.3982 19.29 30.9998C19.29 31.6014 19.6884 31.9998 20.29 31.9998H22.29C22.8916 31.9998 23.29 31.6014 23.29 30.9998C23.29 30.3982 22.8916 29.9998 22.29 29.9998H20.29ZM23.6338 35.5076C23.5088 35.5193 23.3916 35.5506 23.29 35.5975L21.5908 36.5975C21.0908 36.8982 20.9892 37.4998 21.1924 37.9998C21.3916 38.3006 21.6924 38.4998 22.0908 38.4998C22.29 38.4998 22.3916 38.4998 22.5908 38.4021L24.29 37.4021C24.79 37.1014 24.8916 36.4998 24.6924 35.9998C24.4658 35.6248 24.0166 35.4764 23.6338 35.5076ZM27.9033 39.4646C27.5088 39.4178 27.1142 39.6248 26.8877 39.9998L25.8877 41.699C25.6884 42.199 25.79 42.8006 26.29 43.0975C26.4892 43.199 26.5908 43.199 26.79 43.199C27.0908 43.199 27.4892 42.9998 27.6924 42.699L28.6924 40.9998C28.9892 40.4998 28.79 39.8982 28.29 39.5975C28.165 39.5232 28.0361 39.4803 27.9033 39.4646ZM33.29 40.9998C32.6884 40.9998 32.29 41.3982 32.29 41.9998V43.9998C32.29 44.6014 32.6884 44.9998 33.29 44.9998C33.8916 44.9998 34.29 44.6014 34.29 43.9998V41.9998C34.29 41.3982 33.8916 40.9998 33.29 40.9998Z" fill="white"/>
</svg>
