<svg width="41" height="49" viewBox="0 0 41 49" fill="none" xmlns="http://www.w3.org/2000/svg">
<g opacity="0.3">
<path opacity="0.3" d="M28.434 10.6156C27.3406 10.6145 26.2922 10.1797 25.5191 9.40652C24.7459 8.63335 24.3111 7.58501 24.31 6.49158V0.767578H5.882C4.45461 0.767578 3.08567 1.3346 2.07635 2.34392C1.06703 3.35324 0.5 4.72219 0.5 6.14959V38.5916C0.50159 40.0179 1.06932 41.3853 2.07847 42.3934C3.08762 43.4014 4.45564 43.9676 5.882 43.9676H28.002C28.709 43.9676 29.4091 43.8283 30.0624 43.5577C30.7156 43.2872 31.3091 42.8906 31.8091 42.3907C32.309 41.8907 32.7056 41.2972 32.9762 40.6439C33.2467 39.9907 33.386 39.2906 33.386 38.5836V10.6076L28.434 10.6156Z" fill="#005FAD"/>
</g>
<path d="M33.3858 10.6156H28.4338C27.3404 10.6145 26.292 10.1797 25.5189 9.40652C24.7457 8.63335 24.3109 7.585 24.3098 6.49158V0.767578L33.3858 10.6156Z" fill="#005FAD"/>
<path d="M37.2879 34.8877H12.2799C10.5059 34.8877 9.06787 36.3258 9.06787 38.0997V45.5557C9.06787 47.3296 10.5059 48.7677 12.2799 48.7677H37.2879C39.0618 48.7677 40.4999 47.3296 40.4999 45.5557V38.0997C40.4999 36.3258 39.0618 34.8877 37.2879 34.8877Z" fill="#005FAD"/>
<path d="M20.1239 43.4414V44.8974H18.6179V43.4414H20.1239Z" fill="white"/>
<path d="M22.3359 42.7873V44.8973H20.8799V38.8833H23.2379C23.9512 38.8833 24.4952 39.06 24.8699 39.4133C25.0591 39.5994 25.2069 39.8233 25.3038 40.0704C25.4006 40.3175 25.4443 40.5822 25.4319 40.8473C25.4382 41.1971 25.3512 41.5423 25.1799 41.8473C25.0068 42.1463 24.7475 42.3861 24.4359 42.5353C24.0617 42.7138 23.6503 42.8002 23.2359 42.7873H22.3359ZM23.9519 40.8473C23.9519 40.314 23.6599 40.0473 23.0759 40.0473H22.3359V41.6133H23.0759C23.6599 41.6186 23.9519 41.3633 23.9519 40.8473Z" fill="white"/>
<path d="M30.2262 44.0799C30.054 44.3571 29.8053 44.5786 29.5102 44.7179C29.153 44.8865 28.761 44.968 28.3662 44.9559C27.7718 44.9802 27.186 44.8072 26.7002 44.4639C26.4849 44.3028 26.3088 44.0953 26.1848 43.8567C26.0608 43.6181 25.9923 43.3546 25.9842 43.0859H27.5322C27.5449 43.2885 27.6318 43.4793 27.7762 43.6219C27.9196 43.7558 28.1101 43.8277 28.3062 43.8219C28.4684 43.8314 28.6278 43.7768 28.7502 43.6699C28.8029 43.6178 28.8443 43.5554 28.8718 43.4865C28.8993 43.4177 28.9124 43.344 28.9102 43.2699C28.9127 43.1992 28.9009 43.1288 28.8755 43.0628C28.85 42.9968 28.8115 42.9366 28.7622 42.8859C28.6564 42.7791 28.5307 42.6942 28.3922 42.6359C28.2442 42.5705 28.0402 42.4926 27.7802 42.4019C27.4613 42.2972 27.1499 42.1709 26.8482 42.0239C26.5994 41.8954 26.3859 41.7079 26.2262 41.4779C26.0433 41.1996 25.953 40.8706 25.9682 40.5379C25.9598 40.2084 26.0549 39.8845 26.2402 39.6119C26.4293 39.345 26.69 39.1369 26.9922 39.0119C27.342 38.8707 27.7171 38.8026 28.0942 38.8119C28.6666 38.7802 29.2322 38.9485 29.6942 39.2879C29.8905 39.4477 30.0511 39.6468 30.1658 39.8724C30.2805 40.098 30.3467 40.3452 30.3602 40.5979H28.7882C28.7687 40.4211 28.6921 40.2554 28.5702 40.1259C28.5074 40.0664 28.4332 40.0203 28.3521 39.9904C28.2709 39.9605 28.1846 39.9474 28.0982 39.9519C27.9487 39.9442 27.8018 39.9927 27.6862 40.0879C27.6315 40.1384 27.5889 40.2006 27.5616 40.2699C27.5342 40.3391 27.5228 40.4136 27.5282 40.4879C27.5265 40.5542 27.538 40.6201 27.562 40.6819C27.5861 40.7438 27.6222 40.8002 27.6682 40.8479C27.7689 40.9519 27.8892 41.0348 28.0222 41.0919C28.1642 41.1539 28.3682 41.2339 28.6342 41.3299C28.9583 41.4341 29.2739 41.5632 29.5782 41.7159C29.829 41.8499 30.0449 42.0411 30.2082 42.2739C30.3944 42.5554 30.4868 42.8887 30.4722 43.2259C30.4688 43.5276 30.3838 43.8227 30.2262 44.0799Z" fill="white"/>
<path d="M10.5121 26.9297C10.5121 26.9297 9.20808 24.1637 10.8941 21.4637C10.8941 21.4637 11.3921 22.9157 11.8021 22.8197C11.8021 22.8197 11.2801 20.7377 11.6641 20.1217C11.6641 20.1217 13.3281 17.7377 15.1661 16.4477C15.1661 16.4477 15.2241 17.8657 15.6561 17.9817C15.6561 17.9817 15.5881 17.1057 16.1981 15.7817C16.1981 15.7817 19.1581 13.5017 24.0981 13.7097C24.0981 13.7097 22.1481 16.7277 21.0521 18.7657C20.473 19.8653 19.8361 20.9335 19.1441 21.9657C19.1441 21.9657 17.6921 22.8157 16.7441 22.7357C16.7441 22.7357 17.5441 23.3637 18.4121 23.0517C18.4121 23.0517 16.2021 27.0517 11.9141 27.5577C11.9141 27.5577 11.1141 29.2037 10.9541 30.6437C10.9541 30.6437 10.1541 31.1277 9.77808 31.0437C9.77808 31.0437 11.8521 23.0757 18.9221 17.3057C18.9321 17.3057 14.8561 18.3837 10.5121 26.9297Z" fill="#005FAD"/>
</svg>
