<svg width="41" height="49" viewBox="0 0 41 49" fill="none" xmlns="http://www.w3.org/2000/svg">
<g opacity="0.3">
<path opacity="0.3" d="M28.4326 10.6176C27.3391 10.616 26.2908 10.1807 25.5177 9.40728C24.7446 8.63383 24.3099 7.58534 24.3088 6.49178V0.768067H5.88374C5.17683 0.767804 4.47679 0.906813 3.82361 1.17715C3.17044 1.44749 2.57692 1.84386 2.07697 2.34362C1.57702 2.84339 1.18043 3.43675 0.909843 4.08982C0.63926 4.7429 0.5 5.4429 0.5 6.1498V38.5922C0.5 39.2991 0.63926 39.9991 0.909843 40.6521C1.18043 41.3052 1.57702 41.8986 2.07697 42.3983C2.57692 42.8981 3.17044 43.2945 3.82361 43.5648C4.47679 43.8352 5.17683 43.9742 5.88374 43.9739H28.0026C29.4299 43.9739 30.7988 43.4069 31.8081 42.3976C32.8173 41.3884 33.3843 40.0195 33.3843 38.5922V10.6176H28.4326Z" fill="#A140FF"/>
</g>
<path d="M33.3846 10.6171H28.4329C27.3393 10.6155 26.2911 10.1802 25.518 9.40679C24.7449 8.63334 24.3101 7.58485 24.3091 6.49129V0.767578L33.3846 10.6171Z" fill="#A140FF"/>
<path d="M37.2882 34.8882H12.2814C10.5076 34.8882 9.06958 36.3262 9.06958 38.1V45.5557C9.06958 47.3295 10.5076 48.7675 12.2814 48.7675H37.2882C39.062 48.7675 40.5 47.3295 40.5 45.5557V38.1C40.5 36.3262 39.062 34.8882 37.2882 34.8882Z" fill="#A140FF"/>
<path d="M16.8809 43.4419V44.8958H15.375V43.4419H16.8809Z" fill="white"/>
<path d="M20.727 44.8956L19.4251 42.6237H19.0931V44.8956H17.6392V38.8819H20.123C20.5366 38.8706 20.9472 38.9548 21.323 39.1279C21.6314 39.2745 21.889 39.5099 22.0629 39.8038C22.2304 40.1043 22.3152 40.4438 22.3089 40.7878C22.3206 41.1898 22.1927 41.5834 21.947 41.9017C21.6792 42.2251 21.3085 42.4467 20.897 42.5297L22.3269 44.8956H20.727ZM19.0931 41.6297H19.995C20.2254 41.647 20.4537 41.5755 20.633 41.4297C20.7041 41.3546 20.7585 41.2654 20.793 41.168C20.8274 41.0705 20.8411 40.9668 20.833 40.8638C20.8397 40.7614 20.8253 40.6588 20.791 40.5622C20.7566 40.4655 20.7028 40.377 20.633 40.3018C20.4562 40.1544 20.2284 40.0826 19.9991 40.1018H19.0971L19.0931 41.6297Z" fill="white"/>
<path d="M26.7748 43.7976H24.5209L24.1449 44.8955H22.615L24.8149 38.9238H26.4888L28.6887 44.8955H27.1408L26.7748 43.7976ZM26.4008 42.6916L25.6508 40.4797L24.8949 42.6916H26.4008Z" fill="white"/>
<path d="M32.3466 44.8956L31.0447 42.6237H30.7127V44.8956H29.2588V38.8819H31.7427C32.1562 38.8706 32.5669 38.9548 32.9426 39.1279C33.251 39.2745 33.5087 39.5099 33.6826 39.8038C33.85 40.1043 33.9349 40.4438 33.9286 40.7878C33.9403 41.1898 33.8124 41.5834 33.5666 41.9017C33.2988 42.2251 32.9282 42.4467 32.5166 42.5297L33.9466 44.8956H32.3466ZM30.7127 41.6297H31.6147C31.845 41.6466 32.0732 41.5751 32.2527 41.4297C32.3237 41.3546 32.3782 41.2654 32.4126 41.168C32.4471 41.0705 32.4607 40.9668 32.4526 40.8638C32.4593 40.7614 32.445 40.6588 32.4106 40.5622C32.3762 40.4655 32.3225 40.377 32.2527 40.3018C32.0758 40.1544 31.8481 40.0826 31.6187 40.1018H30.7167L30.7127 41.6297Z" fill="white"/>
<path d="M19.4933 30.9344H6.9899C6.79135 30.9339 6.60112 30.8547 6.4609 30.7141C6.32069 30.5735 6.24194 30.383 6.24194 30.1845C6.24194 29.9861 6.32075 29.7959 6.46102 29.6556C6.60129 29.5153 6.79153 29.4365 6.9899 29.4365H19.4933C19.5917 29.4363 19.6892 29.4554 19.7801 29.4929C19.8711 29.5304 19.9538 29.5854 20.0235 29.6549C20.0931 29.7244 20.1484 29.8069 20.1861 29.8978C20.2238 29.9887 20.2432 30.0861 20.2432 30.1845C20.2432 30.3834 20.1642 30.5742 20.0236 30.7148C19.8829 30.8555 19.6922 30.9344 19.4933 30.9344Z" fill="#A140FF"/>
<path d="M19.4933 26.5165H6.9899C6.79135 26.5159 6.60112 26.4367 6.4609 26.2961C6.32069 26.1555 6.24194 25.9651 6.24194 25.7665C6.24247 25.5683 6.32145 25.3784 6.46161 25.2382C6.60177 25.098 6.79169 25.0191 6.9899 25.0186H19.4933C19.6918 25.0186 19.8823 25.0973 20.0229 25.2375C20.1635 25.3777 20.2427 25.568 20.2432 25.7665C20.2432 25.9654 20.1642 26.1562 20.0236 26.2968C19.8829 26.4375 19.6922 26.5165 19.4933 26.5165Z" fill="#A140FF"/>
<path d="M19.4933 22.099H6.9899C6.79153 22.099 6.60129 22.0202 6.46102 21.8799C6.32075 21.7396 6.24194 21.5494 6.24194 21.351C6.24194 21.1525 6.32069 20.962 6.4609 20.8214C6.60112 20.6808 6.79135 20.6016 6.9899 20.6011H19.4933C19.6922 20.6011 19.8829 20.6801 20.0236 20.8207C20.1642 20.9614 20.2432 21.1521 20.2432 21.351C20.2432 21.4494 20.2238 21.5468 20.1861 21.6377C20.1484 21.7286 20.0931 21.8111 20.0235 21.8806C19.9538 21.9501 19.8711 22.0052 19.7801 22.0426C19.6892 22.0801 19.5917 22.0993 19.4933 22.099Z" fill="#A140FF"/>
<path d="M19.4933 17.681H6.9899C6.79153 17.681 6.60129 17.6022 6.46102 17.4619C6.32075 17.3217 6.24194 17.1314 6.24194 16.933C6.24194 16.7346 6.32075 16.5444 6.46102 16.4041C6.60129 16.2639 6.79153 16.1851 6.9899 16.1851H19.4933C19.5917 16.1848 19.6892 16.204 19.7801 16.2414C19.8711 16.2789 19.9538 16.334 20.0235 16.4034C20.0931 16.4729 20.1484 16.5555 20.1861 16.6463C20.2238 16.7372 20.2432 16.8346 20.2432 16.933C20.2432 17.0314 20.2238 17.1288 20.1861 17.2197C20.1484 17.3106 20.0931 17.3932 20.0235 17.4626C19.9538 17.5321 19.8711 17.5872 19.7801 17.6246C19.6892 17.6621 19.5917 17.6812 19.4933 17.681Z" fill="#A140FF"/>
<path d="M25.1011 31.2701C24.4282 31.2696 23.783 31.002 23.3071 30.5262C22.8313 30.0503 22.5638 29.4051 22.5632 28.7322V26.1943H27.637V28.7322C27.6364 29.4048 27.3692 30.0497 26.8938 30.5255C26.4184 31.0012 25.7737 31.269 25.1011 31.2701ZM23.8612 27.4923V28.7322C23.8617 29.0609 23.9925 29.376 24.2249 29.6084C24.4573 29.8408 24.7724 29.9716 25.1011 29.9721C25.4298 29.9716 25.7449 29.8408 25.9773 29.6084C26.2097 29.376 26.3405 29.0609 26.341 28.7322V27.4923H23.8612Z" fill="#A140FF"/>
<path d="M22.5633 26.1963H25.1072V23.6524H22.5633V26.1963Z" fill="#A140FF"/>
<path d="M25.0987 23.6548H27.6426V21.1109H25.0987V23.6548Z" fill="#A140FF"/>
<path d="M22.5633 21.1128H25.1072V18.5689H22.5633V21.1128Z" fill="#A140FF"/>
<path d="M25.0987 18.5708H27.6426V16.0269H25.0987V18.5708Z" fill="#A140FF"/>
</svg>
