<svg width="41" height="49" viewBox="0 0 41 49" fill="none" xmlns="http://www.w3.org/2000/svg">
<g opacity="0.3">
<path opacity="0.3" d="M28.4342 10.6156C27.3407 10.6145 26.2924 10.1797 25.5192 9.40653C24.7461 8.63336 24.3112 7.58502 24.3102 6.49159V0.767578H5.88213C4.45508 0.767578 3.08645 1.33434 2.07718 2.34323C1.06792 3.35212 0.500652 4.72054 0.500122 6.14759V38.5916C0.501712 40.018 1.06944 41.3854 2.07859 42.3934C3.08775 43.4014 4.45577 43.9677 5.88213 43.9677H28.0022C28.7091 43.9679 29.4092 43.8289 30.0624 43.5585C30.7156 43.2882 31.3091 42.8918 31.8091 42.392C32.3091 41.8922 32.7057 41.2988 32.9763 40.6457C33.2469 39.9926 33.3862 39.2926 33.3862 38.5857V10.6156H28.4342Z" fill="#FF3E4C"/>
</g>
<path d="M33.3856 10.6161H28.4336C27.3402 10.615 26.2918 10.1802 25.5186 9.40702C24.7455 8.63385 24.3106 7.58551 24.3096 6.49208V0.768066L33.3856 10.6161Z" fill="#FF3E4C"/>
<path d="M37.2879 34.8877H12.2799C10.5059 34.8877 9.06787 36.3258 9.06787 38.0997V45.5557C9.06787 47.3296 10.5059 48.7677 12.2799 48.7677H37.2879C39.0619 48.7677 40.4999 47.3296 40.4999 45.5557V38.0997C40.4999 36.3258 39.0619 34.8877 37.2879 34.8877Z" fill="#FF3E4C"/>
<path d="M15.04 43.4414V44.8954H13.536V43.4414H15.04Z" fill="white"/>
<path d="M18.8855 44.8954L17.5835 42.6254H17.2515V44.8954H15.7975V38.8814H18.2815C18.6953 38.8698 19.1062 38.9547 19.4815 39.1294C19.7904 39.2755 20.0482 39.511 20.2215 39.8054C20.389 40.1052 20.4739 40.4441 20.4675 40.7874C20.4788 41.189 20.3517 41.5824 20.1075 41.9014C19.8382 42.2244 19.4673 42.4465 19.0555 42.5314L20.4995 44.8954H18.8855ZM17.2515 41.6294H18.1535C18.3839 41.6467 18.6122 41.5752 18.7915 41.4294C18.8626 41.3547 18.9171 41.2659 18.9516 41.1687C18.986 41.0716 18.9996 40.9682 18.9915 40.8654C18.9983 40.7631 18.984 40.6604 18.9496 40.5638C18.9152 40.4671 18.8614 40.3785 18.7915 40.3034C18.6149 40.1557 18.3869 40.0838 18.1575 40.1034H17.2555L17.2515 41.6294Z" fill="white"/>
<path d="M24.9341 43.7998H22.6801L22.3001 44.8958H20.7681L22.9681 38.9258H24.6441L26.8441 44.8958H25.3001L24.9341 43.7998ZM24.5601 42.6938L23.8121 40.4818L23.0541 42.6938H24.5601Z" fill="white"/>
<path d="M35.5916 38.8813L34.1556 44.8954H32.3556L31.3936 40.8734L30.4236 44.8954H28.6235L27.1855 38.8813H28.7676L29.5416 43.2373L30.5956 38.8813H32.1956L33.2496 43.2373L34.0316 38.8813H35.5916Z" fill="white"/>
<path d="M13.5677 25.4994H8.71166C8.3318 24.499 8.13795 23.4375 8.13966 22.3674C8.1382 21.298 8.33204 20.2372 8.71166 19.2374C8.86285 18.8415 9.04265 18.4572 9.24966 18.0874L9.91966 19.2374L11.7577 22.3914L12.5577 23.7794L13.5677 25.4994Z" fill="#FF3E4C"/>
<path d="M23.7641 27.9356C22.4155 29.5893 20.5121 30.6967 18.408 31.0516C17.9644 31.1253 17.5158 31.1654 17.066 31.1716L17.774 29.9716L19.574 26.8996L20.3901 25.4996L21.3901 23.7876L22.3701 25.4996L23.1701 26.8996L23.7641 27.9356Z" fill="#FF3E4C"/>
<path d="M25.7461 22.3675C25.7479 23.4372 25.5534 24.4981 25.1721 25.4975C25.021 25.8953 24.8412 26.2817 24.6341 26.6535L23.9741 25.4975L22.2021 22.4035L21.4021 21.0035L20.3861 19.2295H25.1661C25.5504 20.231 25.747 21.2948 25.7461 22.3675Z" fill="#FF3E4C"/>
<path d="M24.5002 17.8498H15.9642L16.9822 16.0738L17.7822 14.6738L18.3522 13.6738C20.5115 14.0221 22.4634 15.1631 23.8262 16.8738C24.0727 17.1836 24.2979 17.5096 24.5002 17.8498Z" fill="#FF3E4C"/>
<path d="M16.8142 13.5679L16.1802 14.6739L14.3622 17.8499L13.5622 19.2499L12.5622 21.0119L11.5342 19.2499L10.7342 17.8499L10.1342 16.8139C11.5101 15.1199 13.467 13.9985 15.6242 13.6679C16.0181 13.6079 16.4157 13.5745 16.8142 13.5679Z" fill="#FF3E4C"/>
<path d="M17.964 26.8916L16.964 28.5836L16.164 29.9596L15.5219 31.0596C13.4212 30.7159 11.5162 29.6224 10.1599 27.9816C9.87602 27.6379 9.61797 27.2735 9.38794 26.8916H17.964Z" fill="#FF3E4C"/>
</svg>
