<svg width="18" height="18" viewBox="0 0 18 18" fill="none" xmlns="http://www.w3.org/2000/svg">
<path d="M12.8131 0.09163C12.6835 0.0874103 12.5558 0.124828 12.449 0.198403C12.3421 0.271978 12.2616 0.377843 12.2192 0.500491L11.3912 2.89909C10.3607 2.40295 9.20808 2.11616 7.98748 2.11616C3.63405 2.11616 0.0917969 5.65841 0.0917969 10.0118C0.0917969 14.3653 3.63405 17.9075 7.98748 17.9075C12.3409 17.9075 15.8832 14.3653 15.8832 10.0118C15.8832 8.79161 15.5969 7.63914 15.101 6.60889L17.4988 5.78088C17.5742 5.75483 17.6438 5.71417 17.7034 5.66123C17.7631 5.6083 17.8118 5.54412 17.8467 5.47237C17.8816 5.40062 17.902 5.32271 17.9068 5.24307C17.9115 5.16343 17.9006 5.08364 17.8745 5.00824C17.085 2.72008 15.2788 0.914349 12.9911 0.124845C12.9338 0.104948 12.8738 0.0937524 12.8131 0.09163ZM13.1469 1.53727C14.6219 2.20523 15.7942 3.37787 16.462 4.85324L11.3983 6.60098L13.1469 1.53727ZM7.38012 3.36173V9.40448H1.33736C1.62556 6.1944 4.17004 3.64993 7.38012 3.36173ZM8.59484 3.36252C9.45153 3.4411 10.2592 3.68094 10.9926 4.0537L9.84277 7.3839C9.8055 7.49162 9.79929 7.60764 9.82485 7.71871C9.85041 7.82979 9.9067 7.93143 9.98729 8.01203C10.0679 8.09262 10.1695 8.14891 10.2806 8.17447C10.3917 8.20003 10.5077 8.19382 10.6154 8.15655L13.9456 7.00747C14.4053 7.91221 14.6684 8.92826 14.6684 10.0118C14.6684 11.6412 14.0879 13.1307 13.1231 14.2887L8.59484 9.76036V3.36252ZM1.33736 10.6192H7.73599L12.2643 15.1475C11.1063 16.1123 9.61679 16.6928 7.98748 16.6928C4.4957 16.6928 1.64355 14.0296 1.33736 10.6192Z" fill="#5A5A5A"/>
</svg>
