<svg width="18" height="16" viewBox="0 0 18 16" fill="none" xmlns="http://www.w3.org/2000/svg">
<path d="M0.796188 0.390689C0.710793 0.389482 0.62601 0.405258 0.546765 0.437102C0.467521 0.468946 0.395395 0.516222 0.33458 0.576183C0.273766 0.636143 0.225474 0.707593 0.192513 0.786379C0.159552 0.865166 0.142578 0.949718 0.142578 1.03512C0.142578 1.12052 0.159552 1.20508 0.192513 1.28386C0.225474 1.36265 0.273766 1.4341 0.33458 1.49406C0.395395 1.55402 0.467521 1.6013 0.546765 1.63314C0.62601 1.66498 0.710793 1.68076 0.796188 1.67955H1.011V7.26463H0.796188C0.710793 7.26342 0.62601 7.2792 0.546765 7.31104C0.467521 7.34288 0.395395 7.39016 0.33458 7.45012C0.273766 7.51008 0.225474 7.58153 0.192513 7.66032C0.159552 7.7391 0.142578 7.82366 0.142578 7.90906C0.142578 7.99446 0.159552 8.07901 0.192513 8.1578C0.225474 8.23659 0.273766 8.30804 0.33458 8.368C0.395395 8.42796 0.467521 8.47523 0.546765 8.50708C0.62601 8.53892 0.710793 8.5547 0.796188 8.55349H1.011V14.1386H0.796188C0.710793 14.1374 0.62601 14.1531 0.546765 14.185C0.467521 14.2168 0.395395 14.2641 0.33458 14.3241C0.273766 14.384 0.225474 14.4555 0.192513 14.5343C0.159552 14.613 0.142578 14.6976 0.142578 14.783C0.142578 14.8684 0.159552 14.953 0.192513 15.0317C0.225474 15.1105 0.273766 15.182 0.33458 15.2419C0.395395 15.3019 0.467521 15.3492 0.546765 15.381C0.62601 15.4129 0.710793 15.4286 0.796188 15.4274H4.23316C4.31855 15.4286 4.40334 15.4129 4.48258 15.381C4.56182 15.3492 4.63395 15.3019 4.69476 15.2419C4.75558 15.182 4.80387 15.1105 4.83683 15.0317C4.86979 14.953 4.88677 14.8684 4.88677 14.783C4.88677 14.6976 4.86979 14.613 4.83683 14.5343C4.80387 14.4555 4.75558 14.384 4.69476 14.3241C4.63395 14.2641 4.56182 14.2168 4.48258 14.185C4.40334 14.1531 4.31855 14.1374 4.23316 14.1386H2.29986V8.01479C2.31123 7.9456 2.31123 7.87503 2.29986 7.80585V1.67955H11.3219V6.11338C11.5324 6.02316 11.7602 5.97576 12.0007 5.97576H12.6108V1.67955H12.8256C12.911 1.68076 12.9958 1.66498 13.075 1.63314C13.1542 1.6013 13.2264 1.55402 13.2872 1.49406C13.348 1.4341 13.3963 1.36265 13.4293 1.28386C13.4622 1.20508 13.4792 1.12052 13.4792 1.03512C13.4792 0.949718 13.4622 0.865166 13.4293 0.786379C13.3963 0.707593 13.348 0.636143 13.2872 0.576183C13.2264 0.516222 13.1542 0.468946 13.075 0.437102C12.9958 0.405258 12.911 0.389482 12.8256 0.390689H0.796188ZM6.81088 5.58894C6.60821 5.58894 6.40606 5.68333 6.27889 5.87171C5.70664 6.72022 4.87759 8.06931 4.87759 8.7683C4.87759 9.83634 5.74285 10.7016 6.81088 10.7016C7.87892 10.7016 8.74418 9.83634 8.74418 8.7683C8.74418 8.06931 7.91554 6.72022 7.34371 5.87171C7.21655 5.68333 7.01356 5.58894 6.81088 5.58894ZM12.0007 7.26463C11.8035 7.26463 11.6322 7.39902 11.5845 7.5902L10.9401 10.1679C10.8722 10.4394 11.0766 10.7016 11.3563 10.7016H15.1541C15.4338 10.7016 15.6382 10.4394 15.5703 10.1679L14.9259 7.5902C14.8782 7.39902 14.7069 7.26463 14.5097 7.26463H12.0007ZM8.99339 11.9905C8.7962 11.9905 8.62488 12.1249 8.5772 12.316L7.93277 14.8938C7.86488 15.1653 8.06928 15.4274 8.34896 15.4274H12.1467C12.4264 15.4274 12.6308 15.1653 12.5629 14.8938L11.9185 12.316C11.8708 12.1248 11.6995 11.9905 11.5023 11.9905H8.99339ZM15.0081 11.9905C14.8109 11.9905 14.6396 12.1248 14.5919 12.316L13.9475 14.8938C13.8796 15.1653 14.084 15.4274 14.3637 15.4274H18.1614C18.4411 15.4274 18.6455 15.1653 18.5776 14.8938L17.9332 12.316C17.8855 12.1249 17.7142 11.9905 17.517 11.9905H15.0081Z" fill="#5A5A5A"/>
</svg>
