<svg width="18" height="17" viewBox="0 0 18 17" fill="none" xmlns="http://www.w3.org/2000/svg">
<path d="M9.00012 0.697754C8.34138 0.697754 7.68264 1.01898 7.32654 1.66201L0.766309 13.5136C0.0744468 14.7637 1.01116 16.3551 2.43989 16.3551H15.5612C16.9899 16.3551 17.9266 14.7637 17.2348 13.5136L10.6737 1.66201C10.3176 1.01898 9.65886 0.697754 9.00012 0.697754ZM3.69632 1.09173C3.58064 1.09204 3.46725 1.12391 3.36834 1.1839C3.26944 1.24389 3.18878 1.32972 3.13505 1.43216C3.08132 1.5346 3.05656 1.64975 3.06343 1.76522C3.0703 1.88069 3.10855 1.9921 3.17405 2.08744L4.0216 3.35876C4.06726 3.42965 4.12658 3.49074 4.19609 3.53848C4.26559 3.58622 4.3439 3.61966 4.42646 3.63684C4.50901 3.65403 4.59416 3.65462 4.67694 3.63858C4.75972 3.62254 4.83849 3.59019 4.90865 3.54342C4.97881 3.49664 5.03897 3.43638 5.08561 3.36613C5.13226 3.29588 5.16446 3.21706 5.18035 3.13425C5.19624 3.05143 5.1955 2.96629 5.17816 2.88376C5.16083 2.80124 5.12725 2.72299 5.07938 2.65357L4.23183 1.38225C4.17403 1.29286 4.0947 1.21942 4.00114 1.16866C3.90757 1.1179 3.80276 1.09145 3.69632 1.09173ZM14.2849 1.09173C14.1817 1.09458 14.0807 1.12252 13.9907 1.17313C13.9007 1.22375 13.8244 1.29553 13.7684 1.38225L12.9209 2.65357C12.873 2.72299 12.8394 2.80124 12.8221 2.88376C12.8047 2.96629 12.804 3.05143 12.8199 3.13425C12.8358 3.21706 12.868 3.29588 12.9146 3.36613C12.9613 3.43638 13.0214 3.49664 13.0916 3.54342C13.1618 3.59019 13.2405 3.62254 13.3233 3.63858C13.4061 3.65462 13.4912 3.65403 13.5738 3.63684C13.6563 3.61966 13.7347 3.58622 13.8042 3.53848C13.8737 3.49074 13.933 3.42965 13.9786 3.35876L14.8262 2.08744C14.8927 1.99076 14.9311 1.87757 14.9372 1.76041C14.9434 1.64324 14.9169 1.52666 14.8609 1.42358C14.8049 1.3205 14.7214 1.23494 14.6197 1.17637C14.5181 1.1178 14.4022 1.08851 14.2849 1.09173ZM9.00012 1.92521C9.21563 1.92521 9.4309 2.04235 9.56129 2.27781L16.1224 14.1294C16.3738 14.5838 16.0793 15.0838 15.5612 15.0838H2.43989C1.9218 15.0838 1.62726 14.5838 1.87872 14.1294L8.43895 2.27781C8.56934 2.04235 8.78461 1.92521 9.00012 1.92521ZM1.80919 3.63769C1.66647 3.63292 1.5263 3.67634 1.41127 3.76095C1.29623 3.84556 1.21304 3.96644 1.17508 4.1041C1.13713 4.24176 1.14663 4.3882 1.20205 4.5198C1.25748 4.65141 1.3556 4.76052 1.4806 4.82956L2.96381 5.67711C3.11023 5.76074 3.28387 5.78279 3.44655 5.7384C3.52709 5.71642 3.60252 5.67878 3.66853 5.62765C3.73453 5.57652 3.78982 5.51289 3.83123 5.44039C3.87264 5.36789 3.89937 5.28795 3.90988 5.20512C3.9204 5.12229 3.9145 5.0382 3.89252 4.95766C3.87054 4.87711 3.8329 4.80168 3.78177 4.73568C3.73064 4.66968 3.66701 4.61439 3.59451 4.57298L2.1113 3.72543C2.01954 3.67133 1.91565 3.64117 1.80919 3.63769ZM16.2357 3.63769C16.1141 3.63314 15.9938 3.66359 15.8889 3.72543L14.4057 4.57298C14.2593 4.65661 14.1521 4.79499 14.1077 4.95766C14.0633 5.12033 14.0854 5.29397 14.169 5.44039C14.2527 5.58681 14.391 5.694 14.5537 5.7384C14.7164 5.78279 14.89 5.76074 15.0364 5.67711L16.5196 4.82956C16.6413 4.76239 16.7377 4.65719 16.7939 4.53006C16.8501 4.40294 16.8631 4.2609 16.8309 4.12568C16.7986 3.99047 16.723 3.86954 16.6155 3.7814C16.5081 3.69327 16.3746 3.64279 16.2357 3.63769ZM8.99019 5.32783C8.82175 5.33046 8.66123 5.39984 8.54391 5.52073C8.42659 5.64163 8.36204 5.80415 8.36446 5.97259V10.2103C8.36327 10.2946 8.37883 10.3782 8.41024 10.4564C8.44165 10.5345 8.48829 10.6057 8.54743 10.6657C8.60658 10.7257 8.67705 10.7733 8.75477 10.8058C8.83248 10.8383 8.91588 10.8551 9.00012 10.8551C9.08436 10.8551 9.16777 10.8383 9.24548 10.8058C9.32319 10.7733 9.39367 10.7257 9.45282 10.6657C9.51196 10.6057 9.55859 10.5345 9.59 10.4564C9.62141 10.3782 9.63698 10.2946 9.63579 10.2103V5.97259C9.63701 5.88751 9.62113 5.80305 9.58911 5.72422C9.55709 5.64539 9.50957 5.57379 9.44936 5.51366C9.38916 5.45353 9.31749 5.4061 9.23862 5.37418C9.15975 5.34226 9.07527 5.3265 8.99019 5.32783ZM0.736513 6.60825C0.65228 6.60706 0.56865 6.62263 0.490484 6.65404C0.412318 6.68545 0.341174 6.73208 0.281186 6.79122C0.221199 6.85037 0.173565 6.92085 0.141052 6.99856C0.10854 7.07627 0.0917969 7.15968 0.0917969 7.24392C0.0917969 7.32816 0.10854 7.41156 0.141052 7.48927C0.173565 7.56699 0.221199 7.63747 0.281186 7.69661C0.341174 7.75575 0.412318 7.80239 0.490484 7.8338C0.56865 7.86521 0.65228 7.88077 0.736513 7.87958H2.43161C2.51584 7.88077 2.59947 7.86521 2.67764 7.8338C2.75581 7.80239 2.82695 7.75575 2.88694 7.69661C2.94693 7.63747 2.99456 7.56699 3.02707 7.48927C3.05958 7.41156 3.07633 7.32816 3.07633 7.24392C3.07633 7.15968 3.05958 7.07627 3.02707 6.99856C2.99456 6.92085 2.94693 6.85037 2.88694 6.79122C2.82695 6.73208 2.75581 6.68545 2.67764 6.65404C2.59947 6.62263 2.51584 6.60706 2.43161 6.60825H0.736513ZM15.5686 6.60825C15.4844 6.60706 15.4008 6.62263 15.3226 6.65404C15.2444 6.68545 15.1733 6.73208 15.1133 6.79122C15.0533 6.85037 15.0057 6.92085 14.9732 6.99856C14.9407 7.07627 14.9239 7.15968 14.9239 7.24392C14.9239 7.32816 14.9407 7.41156 14.9732 7.48927C15.0057 7.56699 15.0533 7.63747 15.1133 7.69661C15.1733 7.75575 15.2444 7.80239 15.3226 7.8338C15.4008 7.86521 15.4844 7.88077 15.5686 7.87958H17.2637C17.348 7.88077 17.4316 7.86521 17.5098 7.8338C17.5879 7.80239 17.6591 7.75575 17.7191 7.69661C17.779 7.63747 17.8267 7.56699 17.8592 7.48927C17.8917 7.41156 17.9084 7.32816 17.9084 7.24392C17.9084 7.15968 17.8917 7.07627 17.8592 6.99856C17.8267 6.92085 17.779 6.85037 17.7191 6.79122C17.6591 6.73208 17.5879 6.68545 17.5098 6.65404C17.4316 6.62263 17.348 6.60706 17.2637 6.60825H15.5686ZM9.00012 12.1173C8.77534 12.1173 8.55976 12.2066 8.40082 12.3656C8.24187 12.5245 8.15257 12.7401 8.15257 12.9649C8.15257 13.1897 8.24187 13.4052 8.40082 13.5642C8.55976 13.7231 8.77534 13.8124 9.00012 13.8124C9.22491 13.8124 9.44048 13.7231 9.59943 13.5642C9.75838 13.4052 9.84767 13.1897 9.84767 12.9649C9.84767 12.7401 9.75838 12.5245 9.59943 12.3656C9.44048 12.2066 9.22491 12.1173 9.00012 12.1173Z" fill="#5A5A5A"/>
</svg>
