<svg width="23" height="23" viewBox="0 0 23 23" fill="none" xmlns="http://www.w3.org/2000/svg">
<path fill-rule="evenodd" clip-rule="evenodd" d="M2.67644 6.74913C3.48807 5.78419 4.87958 5.3125 6.91737 5.3125H16.084C18.1218 5.3125 19.5133 5.78419 20.325 6.74913C21.1287 7.70469 21.2052 8.96006 21.0763 10.1306L20.3885 17.4674C20.2875 18.4098 20.051 19.443 19.2095 20.2117C18.3743 20.9748 17.0803 21.3542 15.1674 21.3542H7.83403C5.92109 21.3542 4.6271 20.9748 3.79189 20.2117C2.95045 19.443 2.71392 18.4098 2.61295 17.4674L2.61198 17.4583L1.92506 10.1306C1.79624 8.96008 1.87269 7.7047 2.67644 6.74913ZM3.72871 7.63421C3.29629 8.1483 3.17457 8.92076 3.29236 9.98522L3.29363 9.99665L3.9806 17.3254C4.07231 18.1773 4.26216 18.779 4.71931 19.1966C5.18347 19.6206 6.06198 19.9792 7.83403 19.9792H15.1674C16.9394 19.9792 17.8179 19.6206 18.2821 19.1966C18.7392 18.779 18.9291 18.1773 19.0208 17.3254L19.7089 9.98521C19.8267 8.92075 19.7051 8.1483 19.2727 7.63421C18.8468 7.12789 17.9604 6.6875 16.084 6.6875H6.91737C5.04098 6.6875 4.15458 7.12789 3.72871 7.63421Z" fill="white"/>
<path fill-rule="evenodd" clip-rule="evenodd" d="M8.56153 4.21252C8.52259 4.51079 8.52149 4.84976 8.52149 5.26634V5.99967C8.52149 6.37937 8.21368 6.68717 7.83399 6.68717C7.45429 6.68717 7.14649 6.37937 7.14649 5.99967L7.14649 5.24252C7.14646 4.85428 7.14644 4.43024 7.19811 4.03451C7.25164 3.62449 7.36635 3.18918 7.63509 2.80035C8.20043 1.98237 9.23604 1.64551 10.7673 1.64551H12.234C13.7653 1.64551 14.8009 1.98237 15.3662 2.80035C15.635 3.18918 15.7497 3.62449 15.8032 4.03451C15.8549 4.43024 15.8548 4.85429 15.8548 5.24252L15.8548 5.99967C15.8548 6.37937 15.547 6.68717 15.1673 6.68717C14.7876 6.68717 14.4798 6.37937 14.4798 5.99967V5.26634C14.4798 4.84976 14.4787 4.51079 14.4398 4.21252C14.4016 3.92044 14.333 3.72381 14.2351 3.58212C14.0671 3.33906 13.636 3.02051 12.234 3.02051H10.7673C9.36527 3.02051 8.93421 3.33906 8.76622 3.58212C8.66829 3.72381 8.59967 3.92044 8.56153 4.21252Z" fill="white"/>
<path fill-rule="evenodd" clip-rule="evenodd" d="M10.3562 12.1882C10.3555 12.2537 10.3555 12.3283 10.3555 12.4167V13.3608C10.3555 13.6189 10.3577 13.8087 10.3801 13.9698C10.4017 14.1246 10.4359 14.2 10.4649 14.2409C10.4973 14.2865 10.6585 14.4792 11.5013 14.4792C12.3479 14.4792 12.5072 14.2847 12.5389 14.2395C12.5681 14.1978 12.6022 14.1213 12.6234 13.9646C12.6455 13.8017 12.6471 13.611 12.6471 13.3517V12.4167C12.6471 12.3283 12.6471 12.2537 12.6464 12.1882C12.581 12.1875 12.5064 12.1875 12.418 12.1875H10.5846C10.4962 12.1875 10.4216 12.1875 10.3562 12.1882ZM10.5545 10.8125C10.5646 10.8125 10.5746 10.8125 10.5846 10.8125H12.418C12.428 10.8125 12.438 10.8125 12.4481 10.8125C12.6508 10.8125 12.8562 10.8124 13.0238 10.831C13.1947 10.85 13.4785 10.9008 13.7062 11.1285C13.9339 11.3561 13.9846 11.6399 14.0036 11.8108C14.0222 11.9784 14.0222 12.1839 14.0221 12.3866C14.0221 12.3966 14.0221 12.4066 14.0221 12.4167V13.362C14.0222 13.6 14.0222 13.8817 13.986 14.149C13.9485 14.4263 13.8663 14.741 13.6652 15.0283C13.2362 15.6407 12.4789 15.8542 11.5013 15.8542C10.5291 15.8542 9.77369 15.6435 9.34312 15.036C9.14067 14.7504 9.05687 14.4367 9.01826 14.1593C8.98052 13.8881 8.98048 13.6024 8.98048 13.3608V12.4167C8.98048 12.4066 8.98048 12.3966 8.98047 12.3866C8.98043 12.1839 8.98038 11.9784 8.99901 11.8108C9.01799 11.6399 9.06875 11.3561 9.29643 11.1285C9.5241 10.9008 9.80791 10.85 9.97878 10.831C10.1464 10.8124 10.3518 10.8125 10.5545 10.8125Z" fill="white"/>
<path fill-rule="evenodd" clip-rule="evenodd" d="M20.9026 10.1787C21.1259 10.4858 21.058 10.9157 20.7509 11.1391C18.5361 12.7498 16.0057 13.7079 13.42 14.0335C13.0432 14.0809 12.6994 13.814 12.6519 13.4373C12.6045 13.0606 12.8714 12.7167 13.2482 12.6693C15.6124 12.3716 17.922 11.4963 19.9422 10.0271C20.2493 9.80372 20.6792 9.87161 20.9026 10.1787Z" fill="white"/>
<path fill-rule="evenodd" clip-rule="evenodd" d="M2.33507 10.4418C2.54953 10.1285 2.97739 10.0483 3.29072 10.2628C5.26054 11.611 7.48184 12.4236 9.74391 12.6769C10.1212 12.7192 10.3929 13.0593 10.3506 13.4366C10.3084 13.814 9.96825 14.0856 9.59091 14.0434C7.10464 13.765 4.66928 12.8726 2.5141 11.3975C2.20077 11.183 2.12061 10.7552 2.33507 10.4418Z" fill="white"/>
</svg>
