<svg width="14" height="13" viewBox="0 0 14 13" fill="none" xmlns="http://www.w3.org/2000/svg">
<path d="M5.68528 0.0543873C6.61727 0.0533837 7.53098 0.312883 8.32331 0.803601C9.11565 1.29432 9.75506 1.99672 10.1694 2.83154C10.5837 3.66636 10.7565 4.60037 10.6682 5.52816C10.5799 6.45596 10.234 7.3406 9.6696 8.08226L12.8349 11.2423C12.9546 11.3622 13.0242 11.5231 13.0295 11.6924C13.0348 11.8617 12.9756 12.0266 12.8637 12.1538C12.7518 12.281 12.5957 12.3608 12.4271 12.377C12.2585 12.3932 12.09 12.3447 11.9559 12.2412L11.8932 12.186L8.72658 9.02724C8.09575 9.50929 7.35919 9.83419 6.57786 9.97505C5.79653 10.1159 4.99288 10.0687 4.23342 9.8373C3.47396 9.6059 2.78052 9.19697 2.21049 8.64436C1.64045 8.09174 1.2102 7.41133 0.955344 6.65942C0.700487 5.90751 0.628348 5.10571 0.744897 4.32038C0.861446 3.53506 1.16333 2.78877 1.62557 2.14328C2.08782 1.49779 2.69712 0.971657 3.40308 0.608411C4.10904 0.245165 4.89135 0.0552523 5.68528 0.0543873ZM5.68666 1.38772C4.7142 1.38873 3.78197 1.776 3.09505 2.46435C2.40813 3.15269 2.02279 4.08573 2.0238 5.05819C2.02481 6.03065 2.41208 6.96288 3.10043 7.6498C3.78877 8.33672 4.72181 8.72206 5.69426 8.72105C6.66673 8.72004 7.59896 8.33277 8.28588 7.64442C8.9728 6.95607 9.35814 6.02304 9.35713 5.05058C9.35612 4.07812 8.96885 3.14589 8.2805 2.45897C7.59215 1.77205 6.65912 1.38671 5.68666 1.38772Z" fill="#404040"/>
</svg>
