<svg width="17" height="17" viewBox="0 0 17 17" fill="none" xmlns="http://www.w3.org/2000/svg">
<g clip-path="url(#clip0_12_9047)">
<path fill-rule="evenodd" clip-rule="evenodd" d="M12.8288 2.20717C12.1011 2.20717 11.5112 2.79709 11.5112 3.52479C11.5112 4.25249 12.1011 4.84241 12.8288 4.84241C13.5565 4.84241 14.1465 4.25249 14.1465 3.52479C14.1465 2.79709 13.5565 2.20717 12.8288 2.20717ZM10.1936 3.52479C10.1936 2.06939 11.3734 0.889557 12.8288 0.889557C14.2842 0.889557 15.4641 2.06939 15.4641 3.52479C15.4641 4.98019 14.2842 6.16002 12.8288 6.16002C11.3734 6.16002 10.1936 4.98019 10.1936 3.52479Z" fill="#333333"/>
<path fill-rule="evenodd" clip-rule="evenodd" d="M4.92308 6.81884C4.19538 6.81884 3.60546 7.40875 3.60546 8.13645C3.60546 8.86415 4.19538 9.45407 4.92308 9.45407C5.65077 9.45407 6.24069 8.86415 6.24069 8.13645C6.24069 7.40875 5.65077 6.81884 4.92308 6.81884ZM2.28784 8.13645C2.28784 6.68105 3.46768 5.50122 4.92308 5.50122C6.37847 5.50122 7.55831 6.68105 7.55831 8.13645C7.55831 9.59185 6.37847 10.7717 4.92308 10.7717C3.46768 10.7717 2.28784 9.59185 2.28784 8.13645Z" fill="#333333"/>
<path fill-rule="evenodd" clip-rule="evenodd" d="M12.8288 11.4305C12.1011 11.4305 11.5112 12.0204 11.5112 12.7481C11.5112 13.4758 12.1011 14.0657 12.8288 14.0657C13.5565 14.0657 14.1465 13.4758 14.1465 12.7481C14.1465 12.0204 13.5565 11.4305 12.8288 11.4305ZM10.1936 12.7481C10.1936 11.2927 11.3734 10.1129 12.8288 10.1129C14.2842 10.1129 15.4641 11.2927 15.4641 12.7481C15.4641 14.2035 14.2842 15.3833 12.8288 15.3833C11.3734 15.3833 10.1936 14.2035 10.1936 12.7481Z" fill="#333333"/>
<path fill-rule="evenodd" clip-rule="evenodd" d="M6.06016 8.79957C6.24335 8.4852 6.6467 8.37886 6.96107 8.56205L11.4607 11.1841C11.7751 11.3673 11.8814 11.7707 11.6983 12.085C11.5151 12.3994 11.1117 12.5057 10.7973 12.3225L6.29768 9.70048C5.98331 9.51729 5.87697 9.11394 6.06016 8.79957Z" fill="#333333"/>
<path fill-rule="evenodd" clip-rule="evenodd" d="M11.6915 4.18754C11.8748 4.5018 11.7688 4.90522 11.4545 5.08861L6.96143 7.71066C6.64718 7.89405 6.24376 7.78797 6.06037 7.47372C5.87698 7.15947 5.98306 6.75605 6.29732 6.57266L10.7904 3.9506C11.1046 3.76721 11.5081 3.87329 11.6915 4.18754Z" fill="#333333"/>
</g>
<defs>
<clipPath id="clip0_12_9047">
<rect width="15.8114" height="15.8114" fill="white" transform="translate(0.970215 0.230743)"/>
</clipPath>
</defs>
</svg>
