<svg width="159" height="26" viewBox="0 0 159 26" fill="none" xmlns="http://www.w3.org/2000/svg">
<g clip-path="url(#clip0_480_44377)">
<path d="M14.1811 0V5.51799C17.7494 6.07914 20.5664 9.16547 20.5664 12.9065C20.5664 17.0216 17.186 20.3885 13.0543 20.3885C9.11042 20.3885 5.91776 17.3957 5.54216 13.5612H0.00195312C0.37756 20.482 6.01166 26 13.0543 26C20.2847 26 26.1066 20.2014 26.1066 13C26.1066 6.17266 20.8481 0.654676 14.1811 0Z" fill="#004F71"/>
<path d="M12.6787 0H0.00195312V5.42446H12.6787V0Z" fill="#004F71"/>
<path d="M9.76773 6.82715H0.00195312V12.3451H9.76773V6.82715Z" fill="#004F71"/>
<path d="M40.4717 10.755C40.2839 9.63268 37.6547 9.63268 37.7486 10.755C37.7486 11.1291 38.0303 11.2226 38.4059 11.5032C38.5937 11.5967 39.0632 11.7838 39.3449 11.8773L40.6595 12.2514C41.6924 12.532 42.3497 12.9061 43.2888 13.4672C44.2278 14.0284 44.6034 15.1507 44.6034 16.46C44.6034 17.7694 44.1339 18.8917 43.1949 19.7334C42.2558 20.5751 40.9412 20.9492 39.4388 20.9492C38.0303 20.9492 36.8095 20.5751 35.7766 19.9205C34.7437 19.2658 34.0864 18.3305 33.8047 17.2082L37.4669 16.46C37.6547 17.1147 38.4998 17.6758 39.5327 17.6758C40.3778 17.6758 41.129 17.3017 41.129 16.8341C41.129 16.5535 40.8473 16.3665 40.4717 16.0859C40.0022 15.8989 39.3449 15.6183 38.6876 15.4312C37.6547 15.0571 37.0912 14.8701 36.2461 14.4025C35.0254 13.6543 34.3681 12.719 34.2742 11.0356C34.2742 9.72621 34.7437 8.69743 35.5888 7.94923C36.4339 7.20102 37.6547 6.7334 39.0632 6.7334C40.2839 6.7334 41.4107 7.01397 42.3497 7.66865C43.2888 8.32333 43.8522 9.07153 44.1339 10.1003L40.4717 10.755Z" fill="black"/>
<path d="M45.2617 15.526C45.2617 14.0296 45.8251 12.7203 46.858 11.6915C47.891 10.6627 49.2056 10.1016 50.8019 10.1016C52.3983 10.1016 53.7129 10.5692 54.7458 11.6915C55.7787 12.7203 56.3421 13.9361 56.3421 15.526C56.3421 17.116 55.7787 18.3318 54.7458 19.3606C53.7129 20.3893 52.3983 20.857 50.8019 20.857C49.2056 20.857 47.891 20.3893 46.858 19.3606C45.8251 18.3318 45.2617 17.0224 45.2617 15.526ZM52.7739 15.526C52.7739 14.4037 51.9287 13.562 50.8019 13.562C49.769 13.562 48.9239 14.4037 48.9239 15.526C48.9239 16.6483 49.769 17.4901 50.8019 17.4901C51.9287 17.4901 52.7739 16.6483 52.7739 15.526Z" fill="black"/>
<path d="M64.4161 14.8708C64.1344 14.1226 63.4771 13.5615 62.5381 13.5615C61.4113 13.5615 60.6601 14.4032 60.6601 15.5255C60.6601 16.6478 61.5052 17.4895 62.5381 17.4895C63.3832 17.4895 64.0405 16.9284 64.4161 16.1802L67.8905 17.2089C67.5149 18.3313 66.8576 19.173 65.9186 19.9212C64.9795 20.5759 63.8527 20.95 62.632 20.95C61.0357 20.95 59.721 20.4823 58.6881 19.4536C57.6552 18.4248 57.0918 17.1154 57.0918 15.619C57.0918 14.1226 57.6552 12.8133 58.6881 11.7845C59.721 10.7557 61.0357 10.2881 62.632 10.2881C63.8527 10.2881 64.9795 10.6622 65.9186 11.3169C66.8576 11.9715 67.5149 12.9068 67.8905 13.9356L64.4161 14.8708Z" fill="black"/>
<path d="M72.491 7.85638C72.491 9.07221 71.6459 9.91394 70.4252 9.91394C69.2984 9.91394 68.3594 9.07221 68.3594 7.85638C68.3594 6.64055 69.2984 5.79883 70.4252 5.79883C71.552 5.79883 72.491 6.64055 72.491 7.85638ZM68.6411 20.6693V10.4751H72.1154V20.6693H68.6411Z" fill="black"/>
<path d="M80.2871 11.0364V10.4753H83.7614V20.6695H80.2871V20.1084C79.5359 20.6695 78.6907 20.9501 77.7517 20.9501C76.4371 20.9501 75.3103 20.4825 74.3713 19.4537C73.5261 18.4249 73.0566 17.1156 73.0566 15.6192C73.0566 14.1228 73.5261 12.8134 74.3713 11.7846C75.3103 10.7559 76.4371 10.2882 77.7517 10.2882C78.6907 10.1947 79.5359 10.4753 80.2871 11.0364ZM78.5029 13.5616C77.47 13.5616 76.7188 14.4033 76.7188 15.5256C76.7188 16.6479 77.47 17.4897 78.5029 17.4897C79.5359 17.4897 80.2871 16.6479 80.2871 15.5256C80.2871 14.4033 79.442 13.5616 78.5029 13.5616Z" fill="black"/>
<path d="M84.9805 20.6696V5.89258H88.4548V20.576H84.9805V20.6696Z" fill="black"/>
<path d="M91.3672 6.9209H97.6586C98.9732 6.9209 100.1 7.295 100.945 8.13673C101.884 8.97845 102.26 10.0072 102.26 11.2231C102.26 12.1583 101.978 12.9065 101.509 13.6547C101.039 14.4029 100.382 14.8705 99.5366 15.2446L102.823 20.6691H100.382L97.283 15.6187H93.6208V20.6691H91.3672V6.9209ZM97.6586 8.97845H93.5269V13.5612H97.6586C98.3159 13.5612 98.8793 13.3741 99.3488 12.9065C99.8183 12.4389 100.006 11.8777 100.006 11.2231C100.006 10.5684 99.8183 10.0072 99.3488 9.5396C98.8793 9.1655 98.3159 8.97845 97.6586 8.97845Z" fill="black"/>
<path d="M114.371 16.2735H105.826C106.014 17.1152 106.389 17.7699 106.953 18.2375C107.516 18.7051 108.361 18.9857 109.206 18.9857C110.333 18.9857 111.272 18.5181 111.93 17.6764L113.901 18.331C113.432 19.1728 112.775 19.7339 111.93 20.2015C111.084 20.6692 110.145 20.8562 109.112 20.8562C107.516 20.8562 106.202 20.3886 105.169 19.3598C104.136 18.331 103.572 17.0217 103.572 15.5253C103.572 14.0289 104.042 12.7195 105.075 11.6907C106.108 10.662 107.422 10.1943 108.925 10.1943C110.427 10.1943 111.742 10.662 112.681 11.6907C113.714 12.7195 114.183 14.0289 114.183 15.5253C114.465 15.6188 114.371 15.8059 114.371 16.2735ZM105.92 14.6835H112.305C112.117 13.9353 111.742 13.2807 111.084 12.813C110.521 12.3454 109.77 12.0648 109.019 12.0648C108.267 12.0648 107.61 12.3454 107.047 12.813C106.483 13.2807 106.108 13.9353 105.92 14.6835Z" fill="black"/>
<path d="M118.316 25.0651H116.25V10.4751H118.316V11.5974C119.255 10.6622 120.382 10.2881 121.696 10.2881C123.105 10.2881 124.326 10.7557 125.265 11.7845C126.204 12.8133 126.673 14.0291 126.673 15.619C126.673 17.209 126.204 18.4248 125.265 19.4536C124.326 20.4823 123.105 20.95 121.696 20.95C120.382 20.95 119.255 20.4823 118.316 19.6406V25.0651ZM121.508 12.2521C120.663 12.2521 119.912 12.5327 119.255 13.1874C118.691 13.842 118.316 14.5902 118.316 15.5255C118.316 16.4607 118.598 17.3025 119.255 17.8636C119.818 18.5183 120.569 18.7989 121.508 18.7989C122.354 18.7989 123.105 18.5183 123.762 17.8636C124.326 17.209 124.701 16.4607 124.701 15.5255C124.701 14.5902 124.419 13.7485 123.762 13.1874C123.105 12.5327 122.354 12.2521 121.508 12.2521Z" fill="black"/>
<path d="M138.881 16.2735H130.336C130.523 17.1152 130.899 17.7699 131.463 18.2375C132.026 18.7051 132.871 18.9857 133.716 18.9857C134.843 18.9857 135.782 18.5181 136.439 17.6764L138.411 18.331C137.942 19.1728 137.284 19.7339 136.439 20.2015C135.594 20.6692 134.655 20.8562 133.622 20.8562C132.026 20.8562 130.711 20.3886 129.678 19.3598C128.645 18.331 128.082 17.0217 128.082 15.5253C128.082 14.0289 128.552 12.7195 129.584 11.6907C130.617 10.662 131.932 10.1943 133.434 10.1943C134.937 10.1943 136.252 10.662 137.191 11.6907C138.223 12.7195 138.693 14.0289 138.693 15.5253C138.975 15.6188 138.975 15.8059 138.881 16.2735ZM130.43 14.6835H136.815C136.627 13.9353 136.252 13.2807 135.594 12.813C135.031 12.3454 134.28 12.0648 133.528 12.0648C132.777 12.0648 132.12 12.3454 131.556 12.813C130.993 13.2807 130.617 13.9353 130.43 14.6835Z" fill="black"/>
<path d="M145.36 10.1943C146.674 10.1943 147.801 10.662 148.74 11.5037V10.3814H150.806V20.5756H148.74V19.4533C147.801 20.3886 146.674 20.7627 145.36 20.7627C143.951 20.7627 142.73 20.295 141.791 19.2663C140.852 18.2375 140.383 17.0217 140.383 15.4317C140.383 13.8418 140.852 12.626 141.791 11.5972C142.73 10.662 143.951 10.1943 145.36 10.1943ZM145.547 12.2519C144.702 12.2519 143.951 12.5325 143.294 13.1871C142.73 13.8418 142.355 14.59 142.355 15.5253C142.355 16.4605 142.636 17.3022 143.294 17.8634C143.951 18.5181 144.608 18.7986 145.547 18.7986C146.486 18.7986 147.238 18.5181 147.801 17.8634C148.364 17.2087 148.74 16.4605 148.74 15.5253C148.74 14.59 148.458 13.7483 147.801 13.1871C147.238 12.5325 146.486 12.2519 145.547 12.2519Z" fill="black"/>
<path d="M152.309 12.2515V10.4745H153.905V8.41699H155.971V10.4745H158.694V12.2515H155.877V17.3019C155.877 17.676 155.971 18.0501 156.252 18.3307C156.534 18.6112 156.816 18.7048 157.285 18.7048H158.6V20.6688H157.098C156.159 20.6688 155.407 20.3882 154.75 19.8271C154.093 19.1724 153.811 18.4242 153.811 17.5825V12.2515H152.309Z" fill="black"/>
</g>
<defs>
<clipPath id="clip0_480_44377">
<rect width="158.6" height="26" fill="white"/>
</clipPath>
</defs>
</svg>
