<svg width="13" height="12" viewBox="0 0 13 12" fill="none" xmlns="http://www.w3.org/2000/svg">
<path d="M6.45444 0C6.31141 0.000235163 6.17124 0.0401689 6.04955 0.115356C5.92787 0.190543 5.82946 0.298037 5.76525 0.425856L4.36443 3.25103L1.2305 3.70322C1.0889 3.72306 0.955704 3.78226 0.84609 3.87407C0.736476 3.96588 0.654827 4.08662 0.610453 4.22254C0.56608 4.35847 0.56077 4.50411 0.595098 4.64291C0.629426 4.78171 0.702024 4.9081 0.80464 5.00767L3.07229 7.20583C2.97535 7.76616 2.69854 9.3715 2.53717 10.3095C2.51306 10.4503 2.52892 10.5951 2.58289 10.7274C2.63687 10.8598 2.72682 10.9743 2.84257 11.0581C2.95902 11.1414 3.09632 11.1908 3.23919 11.2007C3.38205 11.2106 3.52484 11.1806 3.65167 11.1141L6.45332 9.64944L9.25496 11.1141C9.38179 11.1806 9.52462 11.2106 9.66748 11.2007C9.81034 11.1908 9.94764 11.1414 10.0641 11.0581C10.1798 10.9743 10.2696 10.8599 10.3236 10.7277C10.3776 10.5955 10.3935 10.4508 10.3695 10.3101L9.83434 7.20583L12.102 5.00767C12.2044 4.90811 12.2769 4.78186 12.3113 4.64322C12.3457 4.50458 12.3405 4.35906 12.2965 4.22319C12.2518 4.08735 12.17 3.96669 12.0604 3.87482C11.9508 3.78294 11.8177 3.72351 11.6761 3.70322L8.54224 3.25103C8.28841 2.73889 7.56334 1.27924 7.14142 0.425856C7.07721 0.298037 6.97876 0.190543 6.85708 0.115356C6.73539 0.0401689 6.59523 0.000235163 6.45219 0H6.45444ZM6.45444 0.925104L7.80876 3.6539C7.86428 3.76522 7.94592 3.86144 8.04672 3.93433C8.14752 4.00722 8.26448 4.05462 8.38759 4.07248L11.4133 4.5101L9.2236 6.6343C9.13396 6.72035 9.06666 6.82699 9.0276 6.94495C8.98854 7.06291 8.97889 7.18863 8.99946 7.31118C9.08911 7.8306 9.3508 9.34684 9.51666 10.3095L6.80858 8.8941C6.69804 8.83677 6.57534 8.80686 6.45082 8.80686C6.32629 8.80686 6.20357 8.83677 6.09302 8.8941L3.38495 10.3095C3.55304 9.34684 3.8125 7.8306 3.90215 7.31118C3.92272 7.18863 3.91306 7.06291 3.874 6.94495C3.83494 6.82699 3.76764 6.72035 3.678 6.6343L1.48826 4.5101L4.51402 4.07248C4.63714 4.05466 4.75412 4.00727 4.85492 3.93438C4.95573 3.86148 5.03736 3.76525 5.09285 3.6539L6.44716 0.925104H6.45444Z" fill="#EFA510"/>
</svg>
