<svg width="13" height="13" viewBox="0 0 13 13" fill="none" xmlns="http://www.w3.org/2000/svg">
<path d="M6.45444 0.95459C6.31141 0.954825 6.17124 0.994759 6.04955 1.06995C5.92787 1.14513 5.82946 1.25263 5.76525 1.38045L4.36443 4.20562C3.79569 4.28799 2.17913 4.52053 1.2305 4.65781C1.0889 4.67765 0.955704 4.73683 0.84609 4.82864C0.736476 4.92045 0.654827 5.04121 0.610453 5.17713C0.56608 5.31306 0.56077 5.45872 0.595098 5.59752C0.629426 5.73632 0.702024 5.86269 0.80464 5.96226L3.07229 8.16042C2.97535 8.72075 2.69854 10.3261 2.53717 11.2641C2.51306 11.4049 2.52892 11.5497 2.58289 11.682C2.63687 11.8143 2.72682 11.9289 2.84257 12.0127C2.95902 12.096 3.09632 12.1454 3.23919 12.1553C3.38205 12.1652 3.52484 12.1352 3.65167 12.0687L6.45332 10.604L9.25496 12.0687C9.38179 12.1352 9.52462 12.1652 9.66748 12.1553C9.81034 12.1454 9.94764 12.096 10.0641 12.0127C10.1797 11.929 10.2695 11.8146 10.3235 11.6825C10.3774 11.5504 10.3934 11.4059 10.3695 11.2652L9.83434 8.16042L12.102 5.96226C12.2044 5.8627 12.2769 5.73644 12.3113 5.59779C12.3457 5.45915 12.3405 5.31365 12.2965 5.17778C12.2518 5.04194 12.17 4.92127 12.0604 4.82939C11.9508 4.73752 11.8177 4.6781 11.6761 4.65781C10.7292 4.52053 9.11097 4.28743 8.54224 4.20562C8.28841 3.69348 7.56334 2.23383 7.14142 1.38045C7.07721 1.25263 6.97876 1.14513 6.85708 1.06995C6.73539 0.994759 6.59523 0.954825 6.45219 0.95459H6.45444Z" fill="#EFA510"/>
</svg>
