<svg width="18" height="18" viewBox="0 0 18 18" fill="none" xmlns="http://www.w3.org/2000/svg">
<path fill-rule="evenodd" clip-rule="evenodd" d="M6.88586 4.43184C6.88586 4.02756 7.2136 3.69983 7.61787 3.69983H15.67C16.0743 3.69983 16.402 4.02756 16.402 4.43184C16.402 4.83612 16.0743 5.16385 15.67 5.16385H7.61787C7.2136 5.16385 6.88586 4.83612 6.88586 4.43184Z" fill="#333333"/>
<path fill-rule="evenodd" clip-rule="evenodd" d="M6.88586 8.82393C6.88586 8.41965 7.2136 8.09192 7.61787 8.09192H15.67C16.0743 8.09192 16.402 8.41965 16.402 8.82393C16.402 9.22821 16.0743 9.55594 15.67 9.55594H7.61787C7.2136 9.55594 6.88586 9.22821 6.88586 8.82393Z" fill="#333333"/>
<path fill-rule="evenodd" clip-rule="evenodd" d="M6.88586 13.216C6.88586 12.8117 7.2136 12.4839 7.61787 12.4839H15.67C16.0743 12.4839 16.402 12.8117 16.402 13.216C16.402 13.6202 16.0743 13.948 15.67 13.948H7.61787C7.2136 13.948 6.88586 13.6202 6.88586 13.216Z" fill="#333333"/>
<path fill-rule="evenodd" clip-rule="evenodd" d="M4.17227 3.18224C4.45814 2.89637 4.92162 2.89637 5.20749 3.18224C5.49335 3.4681 5.49335 3.93159 5.20749 4.21745L3.74347 5.68147C3.4576 5.96734 2.99412 5.96734 2.70825 5.68147L1.97624 4.94946C1.69037 4.66359 1.69037 4.20011 1.97624 3.91424C2.26211 3.62838 2.72559 3.62838 3.01146 3.91424L3.22586 4.12864L4.17227 3.18224Z" fill="#333333"/>
<path fill-rule="evenodd" clip-rule="evenodd" d="M4.17227 7.57426C4.45814 7.2884 4.92162 7.2884 5.20749 7.57426C5.49335 7.86013 5.49335 8.32361 5.20749 8.60948L3.74347 10.0735C3.4576 10.3594 2.99412 10.3594 2.70825 10.0735L1.97624 9.34149C1.69037 9.05562 1.69037 8.59214 1.97624 8.30627C2.26211 8.02041 2.72559 8.02041 3.01146 8.30627L3.22586 8.52067L4.17227 7.57426Z" fill="#333333"/>
<path fill-rule="evenodd" clip-rule="evenodd" d="M4.17227 11.9664C4.45814 11.6805 4.92162 11.6805 5.20749 11.9664C5.49335 12.2522 5.49335 12.7157 5.20749 13.0016L3.74347 14.4656C3.4576 14.7515 2.99412 14.7515 2.70825 14.4656L1.97624 13.7336C1.69037 13.4477 1.69037 12.9842 1.97624 12.6984C2.26211 12.4125 2.72559 12.4125 3.01146 12.6984L3.22586 12.9128L4.17227 11.9664Z" fill="#333333"/>
</svg>
