<svg width="64" height="65" viewBox="0 0 64 65" fill="none" xmlns="http://www.w3.org/2000/svg">
<path d="M33 3.05859C30.243 3.05859 28 5.30159 28 8.05859C28 10.473 29.7209 12.4922 32 12.957V16.1094C27.0687 16.368 22.6298 18.4976 19.3945 21.8223L13.3281 16.5137C13.7431 15.7852 14 14.9553 14 14.0586C14 11.3016 11.757 9.05859 9 9.05859C6.243 9.05859 4 11.3016 4 14.0586C4 16.8156 6.243 19.0586 9 19.0586C10.1359 19.0586 11.1712 18.6621 12.0117 18.0215L18.082 23.332C15.5346 26.5655 14 30.632 14 35.0586C14 39.7633 15.7278 44.0649 18.5703 47.3867L12.8867 51.9902C12.0696 51.4085 11.0772 51.0586 10 51.0586C7.243 51.0586 5 53.3016 5 56.0586C5 58.8156 7.243 61.0586 10 61.0586C12.757 61.0586 15 58.8156 15 56.0586C15 55.1033 14.7167 54.2189 14.25 53.459L19.957 48.8379C23.3637 52.0642 27.9485 54.0586 33 54.0586C37.7146 54.0586 42.023 52.3219 45.3477 49.4688L48.9062 53.2051C48.3392 54.0158 48 54.9964 48 56.0586C48 58.8156 50.243 61.0586 53 61.0586C55.757 61.0586 58 58.8156 58 56.0586C58 53.3016 55.757 51.0586 53 51.0586C52.0279 51.0586 51.1279 51.3501 50.3594 51.832L46.793 48.0879C50.0115 44.6826 52 40.1031 52 35.0586C52 30.1793 50.1352 25.7393 47.1016 22.3711L52.2461 17.2246C53.0369 17.7492 53.982 18.0586 55 18.0586C57.757 18.0586 60 15.8156 60 13.0586C60 10.3016 57.757 8.05859 55 8.05859C52.243 8.05859 50 10.3016 50 13.0586C50 14.0756 50.3084 15.0202 50.832 15.8105L45.6875 20.957C42.5524 18.1333 38.4841 16.3445 34 16.1094V12.957C36.2791 12.4922 38 10.473 38 8.05859C38 5.30159 35.757 3.05859 33 3.05859ZM33 5.05859C34.654 5.05859 36 6.40459 36 8.05859C36 9.71259 34.654 11.0586 33 11.0586C31.346 11.0586 30 9.71259 30 8.05859C30 6.40459 31.346 5.05859 33 5.05859ZM55 10.0586C56.654 10.0586 58 11.4046 58 13.0586C58 14.7126 56.654 16.0586 55 16.0586C53.346 16.0586 52 14.7126 52 13.0586C52 11.4046 53.346 10.0586 55 10.0586ZM9 11.0586C10.654 11.0586 12 12.4046 12 14.0586C12 15.7126 10.654 17.0586 9 17.0586C7.346 17.0586 6 15.7126 6 14.0586C6 12.4046 7.346 11.0586 9 11.0586ZM33 18.0586C42.374 18.0586 50 25.6846 50 35.0586C50 44.4326 42.374 52.0586 33 52.0586C23.626 52.0586 16 44.4326 16 35.0586C16 25.6846 23.626 18.0586 33 18.0586ZM33 21.0586C28.875 21.0586 26 25.2746 26 29.0586C26 30.8549 26.4159 32.7275 27.1562 34.3613L24.4863 36.1973C22.5893 37.1883 21 39.8516 21 42.0586V43.0586C21 44.1426 21.916 45.0586 23 45.0586H43C44.084 45.0586 45 44.1426 45 43.0586V42.0586C45 39.8566 43.4116 37.1952 41.5156 36.2012L38.8496 34.3477C39.5861 32.717 40 30.85 40 29.0586C40 25.2746 37.125 21.0586 33 21.0586ZM33 23.0586C35.947 23.0586 38 26.2206 38 29.0586C38 32.7586 35.816 37.0586 33 37.0586C30.184 37.0586 28 32.7586 28 29.0586C28 26.2206 30.053 23.0586 33 23.0586ZM37.8594 36.0957L40.4297 37.8809L40.5508 37.9531C41.8098 38.5841 43 40.5796 43 42.0586V43.0586H23V42.0586C23 40.5776 24.1893 38.5821 25.4473 37.9531L28.1465 36.1055C29.3677 37.8618 31.04 39.0586 33 39.0586C34.9634 39.0586 36.6376 37.8571 37.8594 36.0957ZM10 53.0586C11.654 53.0586 13 54.4046 13 56.0586C13 57.7126 11.654 59.0586 10 59.0586C8.346 59.0586 7 57.7126 7 56.0586C7 54.4046 8.346 53.0586 10 53.0586ZM53 53.0586C54.654 53.0586 56 54.4046 56 56.0586C56 57.7126 54.654 59.0586 53 59.0586C51.346 59.0586 50 57.7126 50 56.0586C50 54.4046 51.346 53.0586 53 53.0586Z" fill="#252525"/>
</svg>
