<svg width="41" height="49" viewBox="0 0 41 49" fill="none" xmlns="http://www.w3.org/2000/svg">
<g opacity="0.3">
<path opacity="0.3" d="M28.4326 10.6156C27.3392 10.6145 26.2909 10.1797 25.5178 9.40652C24.7447 8.63335 24.3099 7.58501 24.3088 6.49158V0.767578H5.88374C4.45588 0.767578 3.08649 1.33481 2.07685 2.34451C1.0672 3.3542 0.5 4.72366 0.5 6.15159V38.5936C0.5 40.0215 1.0672 41.3909 2.07685 42.4006C3.08649 43.4103 4.45588 43.9776 5.88374 43.9776H28.0026C28.7095 43.9776 29.4095 43.8383 30.0626 43.5677C30.7157 43.2971 31.309 42.9005 31.8088 42.4005C32.3085 41.9005 32.7049 41.307 32.9753 40.6538C33.2456 40.0006 33.3846 39.3005 33.3843 38.5936V10.6176L28.4326 10.6156Z" fill="#FF9908"/>
</g>
<path d="M33.3846 10.6151H28.4329C27.3395 10.614 26.2912 10.1792 25.5181 9.40609C24.745 8.63295 24.3101 7.58466 24.3091 6.49129V0.767578L33.3846 10.6151Z" fill="#FF9908"/>
<path d="M37.2882 34.8877H12.2814C10.5076 34.8877 9.06958 36.3258 9.06958 38.0997V45.5557C9.06958 47.3296 10.5076 48.7677 12.2814 48.7677H37.2882C39.062 48.7677 40.5 47.3296 40.5 45.5557V38.0997C40.5 36.3258 39.062 34.8877 37.2882 34.8877Z" fill="#FF9908"/>
<path d="M16.4993 43.4414V44.8973H14.9934V43.4414H16.4993Z" fill="white"/>
<path d="M21.3347 44.0797C21.1627 44.3564 20.9149 44.5778 20.6207 44.7177C20.2628 44.886 19.8702 44.9676 19.4748 44.9556C18.8804 44.9799 18.2947 44.807 17.8089 44.4637C17.5935 44.3028 17.4174 44.0953 17.2938 43.8566C17.1701 43.618 17.1021 43.3544 17.0949 43.0857H18.6428C18.6539 43.2883 18.7402 43.4795 18.8848 43.6217C19.0288 43.756 19.22 43.8279 19.4168 43.8217C19.5783 43.8309 19.737 43.7763 19.8588 43.6697C19.9121 43.618 19.9541 43.5557 19.982 43.4868C20.0099 43.4179 20.0231 43.344 20.0208 43.2697C20.0229 43.1989 20.0107 43.1284 19.9849 43.0624C19.9592 42.9965 19.9203 42.9364 19.8708 42.8857C19.7653 42.7786 19.6395 42.6936 19.5008 42.6358C19.3528 42.5704 19.1488 42.4924 18.8888 42.4018C18.5701 42.2967 18.2587 42.1704 17.9569 42.0238C17.7087 41.8952 17.4958 41.7078 17.3369 41.4778C17.1524 41.2002 17.0613 40.8709 17.0769 40.5379C17.0685 40.2084 17.1636 39.8845 17.3489 39.6119C17.5382 39.3445 17.7997 39.1364 18.1029 39.0119C18.452 38.8707 18.8263 38.8027 19.2028 38.812C19.7752 38.78 20.3409 38.9483 20.8027 39.2879C20.9954 39.4445 21.154 39.6388 21.2689 39.8589C21.3838 40.079 21.4524 40.3203 21.4707 40.5679H19.8968C19.8787 40.3907 19.802 40.2246 19.6788 40.0959C19.6161 40.0363 19.5419 39.9902 19.4607 39.9603C19.3796 39.9303 19.2932 39.9173 19.2068 39.9219C19.0573 39.9143 18.9104 39.9628 18.7948 40.0579C18.7405 40.1087 18.6981 40.1709 18.6708 40.2401C18.6435 40.3093 18.6319 40.3837 18.6368 40.4579C18.6355 40.5243 18.6474 40.5903 18.6717 40.6521C18.6961 40.7139 18.7325 40.7702 18.7788 40.8179C18.8784 40.9222 18.9981 41.0053 19.1308 41.0618C19.2728 41.1238 19.4768 41.2038 19.7428 41.2998C20.067 41.4037 20.3826 41.5327 20.6867 41.6858C20.9375 41.8198 21.1533 42.011 21.3167 42.2438C21.5029 42.5253 21.5953 42.8585 21.5807 43.1957C21.5838 43.5077 21.4985 43.8142 21.3347 44.0797Z" fill="white"/>
<path d="M23.5088 38.8833L24.9788 43.4071L26.4507 38.8833H28.0086L25.9147 44.897H24.0348L21.9509 38.8833H23.5088Z" fill="white"/>
<path d="M33.2468 39.3678C33.7316 39.7317 34.0581 40.268 34.1587 40.8657H32.6188C32.5183 40.6511 32.3552 40.4719 32.1509 40.3518C31.9218 40.2157 31.6593 40.1464 31.3929 40.1518C31.1858 40.1433 30.9794 40.1805 30.7883 40.2607C30.5972 40.3409 30.426 40.4621 30.2869 40.6157C29.9944 40.9659 29.8457 41.4141 29.871 41.8697C29.871 42.4417 30.017 42.881 30.3089 43.1876C30.4731 43.3468 30.6688 43.47 30.8833 43.5492C31.0979 43.6284 31.3266 43.6619 31.5549 43.6476C31.8812 43.6535 32.2006 43.5531 32.4648 43.3616C32.7347 43.1601 32.9296 42.8744 33.0188 42.5497H31.1809V41.5037H34.2347V42.9416C34.1173 43.2993 33.9327 43.6312 33.6908 43.9196C33.4277 44.2295 33.101 44.4791 32.7328 44.6516C32.3163 44.844 31.8617 44.9397 31.4029 44.9315C30.8449 44.9462 30.2929 44.813 29.803 44.5456C29.3548 44.2935 28.9899 43.9161 28.753 43.4596C28.4986 42.9654 28.3714 42.4155 28.3831 41.8597C28.3731 41.3073 28.5002 40.761 28.753 40.2698C28.9895 39.8143 29.3527 39.4372 29.799 39.1838C30.2816 38.918 30.8261 38.7848 31.3769 38.7978C32.0464 38.7737 32.7046 38.9744 33.2468 39.3678Z" fill="white"/>
<path d="M25.1048 26.3132H24.6068C24.6042 24.2949 23.8011 22.3601 22.3738 20.9332C20.9464 19.5062 19.0114 18.7037 16.9932 18.7016C14.9751 18.7037 13.0403 19.5063 11.6133 20.9333C10.1863 22.3603 9.38368 24.2951 9.38157 26.3132H8.88159C8.88424 24.1629 9.73975 22.1014 11.2605 20.5811C12.7812 19.0607 14.8428 18.2057 16.9932 18.2036C19.1435 18.2057 21.2052 19.0607 22.7259 20.5811C24.2466 22.1014 25.1021 24.1629 25.1048 26.3132Z" fill="#FF9908"/>
<path d="M28.5186 18.2036H5.46777V18.7016H28.5186V18.2036Z" fill="#FF9908"/>
<path d="M9.92742 25.5176H8.3335V27.1115H9.92742V25.5176Z" fill="#FF9908"/>
<path d="M25.6511 25.5176H24.0571V27.1115H25.6511V25.5176Z" fill="#FF9908"/>
<path d="M17.7892 17.6299H16.1953V19.2238H17.7892V17.6299Z" fill="#FF9908"/>
<path d="M5.44225 19.2258C5.88295 19.2258 6.24022 18.8685 6.24022 18.4278C6.24022 17.9871 5.88295 17.6299 5.44225 17.6299C5.00154 17.6299 4.64429 17.9871 4.64429 18.4278C4.64429 18.8685 5.00154 19.2258 5.44225 19.2258Z" fill="#FF9908"/>
<path d="M28.4427 19.2258C28.8834 19.2258 29.2407 18.8685 29.2407 18.4278C29.2407 17.9871 28.8834 17.6299 28.4427 17.6299C28.002 17.6299 27.6448 17.9871 27.6448 18.4278C27.6448 18.8685 28.002 19.2258 28.4427 19.2258Z" fill="#FF9908"/>
</svg>
