<svg width="18" height="19" viewBox="0 0 18 19" fill="none" xmlns="http://www.w3.org/2000/svg">
<path d="M9.72613 0.571332C9.69013 0.572271 9.65426 0.575827 9.61878 0.58197H2.31031C1.0885 0.58197 0.082089 1.58838 0.082089 2.8102V14.077C0.0689912 14.1568 0.0689912 14.2381 0.082089 14.3179V16.1795C0.082089 17.4014 1.0885 18.4078 2.31031 18.4078H15.6797C16.9015 18.4078 17.9079 17.4014 17.9079 16.1795V15.6844C17.9079 14.4626 16.9015 13.4562 15.6797 13.4562H15.4321V2.8102C15.4321 1.58838 14.4257 0.58197 13.2039 0.58197H9.85959C9.81551 0.574414 9.77084 0.570853 9.72613 0.571332ZM2.31031 2.06745H8.99499V13.4562H1.56757V2.8102C1.56757 2.39104 1.89116 2.06745 2.31031 2.06745ZM10.4805 2.06745H13.2039C13.623 2.06745 13.9466 2.39104 13.9466 2.8102V13.4562H10.4805V2.06745ZM3.7958 3.55294C3.69738 3.55155 3.59966 3.56973 3.50833 3.60643C3.41699 3.64313 3.33386 3.69762 3.26377 3.76673C3.19368 3.83584 3.13802 3.91819 3.10003 4.00899C3.06204 4.0998 3.04248 4.19725 3.04248 4.29568C3.04248 4.39411 3.06204 4.49156 3.10003 4.58237C3.13802 4.67317 3.19368 4.75552 3.26377 4.82463C3.33386 4.89374 3.41699 4.94823 3.50833 4.98493C3.59966 5.02163 3.69738 5.03981 3.7958 5.03842H6.76677C6.86519 5.03981 6.9629 5.02163 7.05424 4.98493C7.14557 4.94823 7.2287 4.89374 7.29879 4.82463C7.36889 4.75552 7.42454 4.67317 7.46253 4.58237C7.50052 4.49156 7.52009 4.39411 7.52009 4.29568C7.52009 4.19725 7.50052 4.0998 7.46253 4.00899C7.42454 3.91819 7.36889 3.83584 7.29879 3.76673C7.2287 3.69762 7.14557 3.64313 7.05424 3.60643C6.9629 3.56973 6.86519 3.55155 6.76677 3.55294H3.7958ZM3.7958 6.5239C3.69738 6.52251 3.59966 6.5407 3.50833 6.5774C3.41699 6.6141 3.33386 6.66859 3.26377 6.7377C3.19368 6.8068 3.13802 6.88915 3.10003 6.97996C3.06204 7.07076 3.04248 7.16821 3.04248 7.26665C3.04248 7.36508 3.06204 7.46253 3.10003 7.55334C3.13802 7.64414 3.19368 7.72649 3.26377 7.7956C3.33386 7.86471 3.41699 7.91919 3.50833 7.9559C3.59966 7.9926 3.69738 8.01078 3.7958 8.00939H6.76677C6.86519 8.01078 6.9629 7.9926 7.05424 7.9559C7.14557 7.91919 7.2287 7.86471 7.29879 7.7956C7.36889 7.72649 7.42454 7.64414 7.46253 7.55334C7.50052 7.46253 7.52009 7.36508 7.52009 7.26665C7.52009 7.16821 7.50052 7.07076 7.46253 6.97996C7.42454 6.88915 7.36889 6.8068 7.29879 6.7377C7.2287 6.66859 7.14557 6.6141 7.05424 6.5774C6.9629 6.5407 6.86519 6.52251 6.76677 6.5239H3.7958ZM12.2135 10.9804C12.0166 10.9804 11.8276 11.0586 11.6883 11.1979C11.5491 11.3372 11.4708 11.5261 11.4708 11.7231C11.4708 11.9201 11.5491 12.109 11.6883 12.2483C11.8276 12.3876 12.0166 12.4658 12.2135 12.4658C12.4105 12.4658 12.5994 12.3876 12.7387 12.2483C12.878 12.109 12.9563 11.9201 12.9563 11.7231C12.9563 11.5261 12.878 11.3372 12.7387 11.1979C12.5994 11.0586 12.4105 10.9804 12.2135 10.9804ZM1.56757 14.9416H9.61588C9.69561 14.9547 9.77695 14.9547 9.85669 14.9416H14.5675C14.6472 14.9547 14.7286 14.9547 14.8083 14.9416H15.6797C16.0988 14.9416 16.4224 15.2652 16.4224 15.6844V16.1795C16.4224 16.5987 16.0988 16.9223 15.6797 16.9223H2.31031C1.89116 16.9223 1.56757 16.5987 1.56757 16.1795V14.9416Z" fill="#5A5A5A"/>
</svg>
