<svg width="41" height="49" viewBox="0 0 41 49" fill="none" xmlns="http://www.w3.org/2000/svg">
<g opacity="0.3">
<path opacity="0.3" d="M28.434 10.6156C27.3406 10.6145 26.2922 10.1797 25.519 9.40652C24.7459 8.63335 24.3111 7.58501 24.31 6.49158V0.767578H5.88198C5.17504 0.767578 4.47503 0.906846 3.82192 1.17744C3.16882 1.44804 2.57543 1.84465 2.07564 2.34463C1.57584 2.84461 1.17944 3.43815 0.909082 4.09136C0.638729 4.74456 0.499738 5.44464 0.5 6.15159V38.5936C0.499738 39.3005 0.638729 40.0006 0.909082 40.6538C1.17944 41.307 1.57584 41.9005 2.07564 42.4005C2.57543 42.9005 3.16882 43.2971 3.82192 43.5677C4.47503 43.8383 5.17504 43.9776 5.88198 43.9776H28.002C29.4299 43.9776 30.7994 43.4103 31.8091 42.4006C32.8188 41.3909 33.386 40.0215 33.386 38.5936V10.6176L28.434 10.6156Z" fill="#A140FF"/>
</g>
<path d="M33.3858 10.6156H28.4338C27.3404 10.6145 26.292 10.1797 25.5188 9.40652C24.7457 8.63335 24.3109 7.585 24.3098 6.49158V0.767578L33.3858 10.6156Z" fill="#A140FF"/>
<path d="M37.2878 34.8877H12.2798C10.5059 34.8877 9.06787 36.3258 9.06787 38.0997V45.5557C9.06787 47.3296 10.5059 48.7677 12.2798 48.7677H37.2878C39.0618 48.7677 40.4999 47.3296 40.4999 45.5557V38.0997C40.4999 36.3258 39.0618 34.8877 37.2878 34.8877Z" fill="#A140FF"/>
<path d="M17.2257 43.4414V44.8974H15.7197V43.4414H17.2257Z" fill="white"/>
<path d="M22.2997 38.8833V40.0393H20.6677V44.8973H19.2037V40.0393H17.5876V38.8833H22.2997Z" fill="white"/>
<path d="M24.3718 38.8833V44.8973H22.9158V38.8833H24.3718Z" fill="white"/>
<path d="M29.2994 38.8833V40.0393H26.8334V41.3573H28.7394V42.4633H26.8334V44.8973H25.3794V38.8833H29.2994Z" fill="white"/>
<path d="M33.9659 38.8833V40.0393H31.4999V41.3573H33.4059V42.4633H31.4999V44.8973H30.0459V38.8833H33.9659Z" fill="white"/>
<path d="M21.3617 30.0494H12.5256C11.6608 30.0484 10.8318 29.7043 10.2203 29.0928C9.60875 28.4813 9.26473 27.6522 9.26367 26.7874V17.9534C9.26473 17.0886 9.60875 16.2595 10.2203 15.648C10.8318 15.0365 11.6608 14.6925 12.5256 14.6914H21.3617C22.226 14.693 23.0543 15.0373 23.6651 15.6488C24.2759 16.2603 24.6192 17.0891 24.6197 17.9534V26.7874C24.6192 27.6517 24.2759 28.4805 23.6651 29.092C23.0543 29.7035 22.226 30.0478 21.3617 30.0494ZM12.5256 16.1334C12.0431 16.1339 11.5805 16.3259 11.2393 16.6671C10.8981 17.0083 10.7062 17.4709 10.7057 17.9534V26.7874C10.7062 27.2699 10.8981 27.7326 11.2393 28.0738C11.5805 28.415 12.0431 28.6069 12.5256 28.6074H21.3617C21.8439 28.6063 22.306 28.4142 22.6467 28.073C22.9875 27.7319 23.1791 27.2696 23.1796 26.7874V17.9534C23.1791 17.4712 22.9875 17.0089 22.6467 16.6678C22.306 16.3266 21.8439 16.1345 21.3617 16.1334H12.5256Z" fill="#A140FF"/>
<path d="M23.8996 25.1079V26.7879C23.8996 27.4612 23.6323 28.1069 23.1563 28.5832C22.6804 29.0595 22.0349 29.3274 21.3616 29.3279H12.5256C11.8519 29.3279 11.2059 29.0603 10.7295 28.5839C10.2532 28.1076 9.9856 27.4615 9.9856 26.7879V23.9679C11.3996 23.6639 13.5536 23.5679 16.1696 24.6119L17.7876 23.0679L18.8916 25.8679C18.8916 25.8679 19.1876 24.8379 20.1436 24.9839C21.0996 25.1299 22.6476 25.6479 23.3096 25.2059C23.488 25.103 23.6976 25.0682 23.8996 25.1079Z" fill="#A140FF"/>
<path d="M20.808 19.7579C21.3503 19.7579 21.7899 19.3183 21.7899 18.776C21.7899 18.2336 21.3503 17.7939 20.808 17.7939C20.2656 17.7939 19.8259 18.2336 19.8259 18.776C19.8259 19.3183 20.2656 19.7579 20.808 19.7579Z" fill="#A140FF"/>
</svg>
