<svg width="18" height="18" viewBox="0 0 18 18" fill="none" xmlns="http://www.w3.org/2000/svg">
<path d="M8.99996 0.0917969C6.08886 0.0917969 3.49972 1.49445 1.87348 3.66025V2.09612C1.87477 2.0067 1.85808 1.91793 1.82443 1.83507C1.79077 1.75221 1.74082 1.67696 1.67754 1.61376C1.61427 1.55056 1.53895 1.50071 1.45605 1.46716C1.37315 1.43361 1.28436 1.41704 1.19494 1.41844C1.0179 1.42121 0.84919 1.49413 0.725878 1.6212C0.602565 1.74826 0.534729 1.91907 0.537268 2.09612V5.21395C0.537286 5.39114 0.607682 5.56106 0.732972 5.68636C0.858263 5.81165 1.02819 5.88204 1.20538 5.88206H4.32321C4.41174 5.88331 4.49964 5.86695 4.5818 5.83394C4.66395 5.80093 4.73873 5.75191 4.80178 5.68975C4.86482 5.62759 4.91489 5.55351 4.94906 5.47183C4.98323 5.39015 5.00083 5.30249 5.00083 5.21395C5.00083 5.12541 4.98323 5.03775 4.94906 4.95607C4.91489 4.87439 4.86482 4.80032 4.80178 4.73815C4.73873 4.67599 4.66395 4.62698 4.5818 4.59396C4.49964 4.56095 4.41174 4.54459 4.32321 4.54584H2.87564C4.25153 2.65653 6.4786 1.42801 8.99996 1.42801C13.1896 1.42801 16.5718 4.81029 16.5718 8.99989C16.5718 13.1895 13.1896 16.5718 8.99996 16.5718C4.81035 16.5718 1.42808 13.1895 1.42808 8.99989C1.42933 8.91136 1.41297 8.82346 1.37996 8.74131C1.34695 8.65915 1.29793 8.58437 1.23577 8.52133C1.17361 8.45828 1.09953 8.40821 1.01785 8.37404C0.93617 8.33987 0.848512 8.32227 0.759971 8.32227C0.67143 8.32227 0.583772 8.33987 0.502091 8.37404C0.42041 8.40821 0.346335 8.45828 0.284172 8.52133C0.222008 8.58437 0.172995 8.65915 0.139981 8.74131C0.106968 8.82346 0.0906116 8.91136 0.0918637 8.99989C0.0918637 13.9117 4.08817 17.908 8.99996 17.908C13.9118 17.908 17.9081 13.9117 17.9081 8.99989C17.9081 4.0881 13.9118 0.0917969 8.99996 0.0917969ZM8.76682 4.09087C8.58978 4.09364 8.42107 4.16656 8.29776 4.29362C8.17445 4.42069 8.10661 4.5915 8.10915 4.76855V10.1134C8.10917 10.2906 8.17956 10.4605 8.30485 10.5858C8.43014 10.7111 8.60007 10.7815 8.77726 10.7815H12.3405C12.429 10.7828 12.5169 10.7664 12.5991 10.7334C12.6812 10.7004 12.756 10.6514 12.8191 10.5892C12.8821 10.527 12.9322 10.453 12.9663 10.3713C13.0005 10.2896 13.0181 10.2019 13.0181 10.1134C13.0181 10.0249 13.0005 9.9372 12.9663 9.85552C12.9322 9.77384 12.8821 9.69977 12.8191 9.63761C12.756 9.57544 12.6812 9.52643 12.5991 9.49341C12.5169 9.4604 12.429 9.44405 12.3405 9.4453H9.44536V4.76855C9.44665 4.67912 9.42997 4.59036 9.39631 4.5075C9.36265 4.42464 9.3127 4.34939 9.24943 4.28619C9.18615 4.22299 9.11083 4.17314 9.02793 4.13959C8.94503 4.10604 8.85624 4.08947 8.76682 4.09087Z" fill="#5A5A5A"/>
</svg>
