<svg width="24" height="24" viewBox="0 0 24 24" fill="none" xmlns="http://www.w3.org/2000/svg">
<path opacity="0.4" d="M21.8564 11.8212C21.8564 17.3452 17.3794 21.8212 11.8564 21.8212C6.33345 21.8212 1.85645 17.3452 1.85645 11.8212C1.85645 6.29917 6.33345 1.82117 11.8564 1.82117C17.3794 1.82117 21.8564 6.29917 21.8564 11.8212Z" fill="#56555C"/>
<path d="M15.4299 15.6356C15.2989 15.6356 15.1669 15.6016 15.0459 15.5306L11.1199 13.1886C10.8939 13.0526 10.7549 12.8076 10.7549 12.5436V7.49664C10.7549 7.08264 11.0909 6.74664 11.5049 6.74664C11.9189 6.74664 12.2549 7.08264 12.2549 7.49664V12.1176L15.8149 14.2406C16.1699 14.4536 16.2869 14.9136 16.0749 15.2696C15.9339 15.5046 15.6849 15.6356 15.4299 15.6356Z" fill="#56555C"/>
</svg>
