<svg width="41" height="49" viewBox="0 0 41 49" fill="none" xmlns="http://www.w3.org/2000/svg">
<g opacity="0.3">
<path opacity="0.3" d="M28.434 10.6172C27.3404 10.6161 26.2918 10.1814 25.5183 9.40828C24.7448 8.6352 24.3095 7.58688 24.308 6.49332V0.767578H5.88198C4.45459 0.767578 3.08564 1.3346 2.07632 2.34388C1.067 3.35316 0.5 4.722 0.5 6.14934V38.592C0.5 40.0193 1.067 41.3882 2.07632 42.3975C3.08564 43.4068 4.45459 43.9738 5.88198 43.9738H28.002C29.4294 43.9738 30.7983 43.4068 31.8076 42.3975C32.8169 41.3882 33.384 40.0193 33.384 38.592V10.6172H28.434Z" fill="#0072FF"/>
</g>
<path d="M33.3836 10.6181H28.4336C27.34 10.617 26.2915 10.1822 25.518 9.40913C24.7445 8.63602 24.3092 7.58765 24.3076 6.49404V0.768066L33.3836 10.6181Z" fill="#0072FF"/>
<path d="M26.6194 17.5136H5.96943C5.77121 17.5131 5.58128 17.4341 5.44111 17.2939C5.30095 17.1538 5.22196 16.9638 5.22144 16.7656C5.22143 16.5671 5.30016 16.3766 5.44038 16.236C5.5806 16.0954 5.77087 16.0162 5.96943 16.0156H26.6194C26.818 16.0162 27.0083 16.0954 27.1485 16.236C27.2887 16.3766 27.3674 16.5671 27.3674 16.7656C27.3669 16.9638 27.2879 17.1538 27.1478 17.2939C27.0076 17.4341 26.8177 17.5131 26.6194 17.5136Z" fill="#0072FF"/>
<path d="M26.6194 21.9868H5.96943C5.77121 21.9862 5.58128 21.9073 5.44111 21.7671C5.30095 21.6269 5.22196 21.437 5.22144 21.2388C5.22143 21.0402 5.30016 20.8497 5.44038 20.7091C5.5806 20.5685 5.77087 20.4893 5.96943 20.4888H26.6194C26.818 20.4893 27.0083 20.5685 27.1485 20.7091C27.2887 20.8497 27.3674 21.0402 27.3674 21.2388C27.3669 21.437 27.2879 21.6269 27.1478 21.7671C27.0076 21.9073 26.8177 21.9862 26.6194 21.9868Z" fill="#0072FF"/>
<path d="M26.6194 26.4614H5.96943C5.77087 26.4608 5.5806 26.3816 5.44038 26.241C5.30016 26.1004 5.22143 25.9099 5.22144 25.7114C5.22196 25.5132 5.30095 25.3232 5.44111 25.1831C5.58128 25.0429 5.77121 24.9639 5.96943 24.9634H26.6194C26.8177 24.9639 27.0076 25.0429 27.1478 25.1831C27.2879 25.3232 27.3669 25.5132 27.3674 25.7114C27.3674 25.9099 27.2887 26.1004 27.1485 26.241C27.0083 26.3816 26.818 26.4608 26.6194 26.4614Z" fill="#0072FF"/>
<path d="M26.6194 30.9331H5.96943C5.77105 30.9331 5.5808 30.8542 5.44053 30.714C5.30025 30.5737 5.22144 30.3834 5.22144 30.1851C5.22143 29.9865 5.30016 29.796 5.44038 29.6554C5.5806 29.5148 5.77087 29.4356 5.96943 29.4351H26.6194C26.818 29.4356 27.0083 29.5148 27.1485 29.6554C27.2887 29.796 27.3674 29.9865 27.3674 30.1851C27.3674 30.3834 27.2886 30.5737 27.1483 30.714C27.0081 30.8542 26.8178 30.9331 26.6194 30.9331Z" fill="#0072FF"/>
<path d="M37.2879 34.8882H12.2799C10.5059 34.8882 9.06787 36.3262 9.06787 38.1V45.5557C9.06787 47.3296 10.5059 48.7676 12.2799 48.7676H37.2879C39.0618 48.7676 40.4999 47.3296 40.4999 45.5557V38.1C40.4999 36.3262 39.0618 34.8882 37.2879 34.8882Z" fill="#0072FF"/>
<path d="M17.612 43.4424V44.8964H16.106V43.4424H17.612Z" fill="white"/>
<path d="M22.6901 38.8818V40.0398H21.0561V44.8958H19.5941V40.0398H17.9761V38.8818H22.6901Z" fill="white"/>
<path d="M26.9517 44.8958L25.6837 43.0238L24.5937 44.8958H22.9277L24.8497 41.7998L22.8677 38.8818H24.5937L25.8277 40.6938L26.8917 38.8818H28.5497L26.6537 41.9098L28.6777 44.8958H26.9517Z" fill="white"/>
<path d="M33.5596 38.8818V40.0398H31.9276V44.8958H30.4636V40.0398H28.8477V38.8818H33.5596Z" fill="white"/>
</svg>
