<svg width="15" height="14" viewBox="0 0 15 14" fill="none" xmlns="http://www.w3.org/2000/svg">
<path fill-rule="evenodd" clip-rule="evenodd" d="M5.56012 3.49414C5.56012 3.25252 5.756 3.05664 5.99762 3.05664L11.0051 3.05664C11.1212 3.05664 11.2324 3.10273 11.3145 3.18478C11.3965 3.26683 11.4426 3.37811 11.4426 3.49414L11.4426 8.50164C11.4426 8.74326 11.2467 8.93913 11.0051 8.93914C10.7635 8.93914 10.5676 8.74326 10.5676 8.50164L10.5676 3.93164L5.99762 3.93164C5.756 3.93164 5.56012 3.73577 5.56012 3.49414Z" fill="#1A932E"/>
<path fill-rule="evenodd" clip-rule="evenodd" d="M3.68436 10.8152C3.5135 10.6444 3.5135 10.3674 3.68436 10.1965L10.6264 3.25448C10.7972 3.08362 11.0742 3.08363 11.2451 3.25448C11.416 3.42533 11.416 3.70234 11.2451 3.8732L4.30308 10.8152C4.13222 10.9861 3.85521 10.9861 3.68436 10.8152Z" fill="#1A932E"/>
</svg>
