<svg width="19" height="19" viewBox="0 0 19 19" fill="none" xmlns="http://www.w3.org/2000/svg">
<path d="M13.7074 15.0923H17.4574V13.5923C17.4574 12.3496 16.45 11.3423 15.2074 11.3423C14.4907 11.3423 13.8523 11.6774 13.4402 12.1995M13.7074 15.0923H6.2074M13.7074 15.0923V13.5923C13.7074 13.1001 13.6126 12.6301 13.4402 12.1995M6.2074 15.0923H2.4574V13.5923C2.4574 12.3496 3.46476 11.3423 4.7074 11.3423C5.4241 11.3423 6.06254 11.6774 6.47458 12.1995M6.2074 15.0923V13.5923C6.2074 13.1001 6.30222 12.6301 6.47458 12.1995M6.47458 12.1995C7.02752 10.8181 8.37851 9.84229 9.9574 9.84229C11.5363 9.84229 12.8873 10.8181 13.4402 12.1995M12.2074 5.34229C12.2074 6.58493 11.2 7.59229 9.9574 7.59229C8.71476 7.59229 7.7074 6.58493 7.7074 5.34229C7.7074 4.09964 8.71476 3.09229 9.9574 3.09229C11.2 3.09229 12.2074 4.09964 12.2074 5.34229ZM16.7074 7.59229C16.7074 8.42071 16.0358 9.09229 15.2074 9.09229C14.379 9.09229 13.7074 8.42071 13.7074 7.59229C13.7074 6.76386 14.379 6.09229 15.2074 6.09229C16.0358 6.09229 16.7074 6.76386 16.7074 7.59229ZM6.2074 7.59229C6.2074 8.42071 5.53582 9.09229 4.7074 9.09229C3.87897 9.09229 3.2074 8.42071 3.2074 7.59229C3.2074 6.76386 3.87897 6.09229 4.7074 6.09229C5.53582 6.09229 6.2074 6.76386 6.2074 7.59229Z" stroke="#26252B" stroke-linecap="round" stroke-linejoin="round"/>
</svg>
