<svg width="22" height="22" viewBox="0 0 22 22" fill="none" xmlns="http://www.w3.org/2000/svg">
<path d="M5.50065 1.83301C6.47311 1.83301 7.40574 2.21932 8.09338 2.90695C8.78101 3.59458 9.16732 4.52721 9.16732 5.49967V7.33301H12.834V5.49967C12.834 4.52721 13.2203 3.59458 13.9079 2.90695C14.5956 2.21932 15.5282 1.83301 16.5007 1.83301C17.4731 1.83301 18.4057 2.21932 19.0934 2.90695C19.781 3.59458 20.1673 4.52721 20.1673 5.49967C20.1673 6.47214 19.781 7.40477 19.0934 8.0924C18.4057 8.78003 17.4731 9.16634 16.5007 9.16634H14.6673V12.833H16.5007C17.4731 12.833 18.4057 13.2193 19.0934 13.9069C19.781 14.5946 20.1673 15.5272 20.1673 16.4997C20.1673 17.4721 19.781 18.4048 19.0934 19.0924C18.4057 19.78 17.4731 20.1663 16.5007 20.1663C15.5282 20.1663 14.5956 19.78 13.9079 19.0924C13.2203 18.4048 12.834 17.4721 12.834 16.4997V14.6663H9.16732V16.4997C9.16732 17.4721 8.78101 18.4048 8.09338 19.0924C7.40574 19.78 6.47311 20.1663 5.50065 20.1663C4.52819 20.1663 3.59556 19.78 2.90793 19.0924C2.22029 18.4048 1.83398 17.4721 1.83398 16.4997C1.83398 15.5272 2.22029 14.5946 2.90793 13.9069C3.59556 13.2193 4.52819 12.833 5.50065 12.833H7.33398V9.16634H5.50065C4.52819 9.16634 3.59556 8.78003 2.90793 8.0924C2.22029 7.40477 1.83398 6.47214 1.83398 5.49967C1.83398 4.52721 2.22029 3.59458 2.90793 2.90695C3.59556 2.21932 4.52819 1.83301 5.50065 1.83301ZM14.6673 16.4997C14.6673 16.9859 14.8605 17.4522 15.2043 17.796C15.5481 18.1399 16.0144 18.333 16.5007 18.333C16.9869 18.333 17.4532 18.1399 17.797 17.796C18.1408 17.4522 18.334 16.9859 18.334 16.4997C18.334 16.0134 18.1408 15.5471 17.797 15.2033C17.4532 14.8595 16.9869 14.6663 16.5007 14.6663H14.6673V16.4997ZM12.834 9.16634H9.16732V12.833H12.834V9.16634ZM5.50065 14.6663C5.01442 14.6663 4.54811 14.8595 4.20429 15.2033C3.86047 15.5471 3.66732 16.0134 3.66732 16.4997C3.66732 16.9859 3.86047 17.4522 4.20429 17.796C4.54811 18.1399 5.01442 18.333 5.50065 18.333C5.98688 18.333 6.4532 18.1399 6.79701 17.796C7.14083 17.4522 7.33398 16.9859 7.33398 16.4997V14.6663H5.50065ZM7.33398 5.49967C7.33398 5.01344 7.14083 4.54713 6.79701 4.20331C6.4532 3.8595 5.98688 3.66634 5.50065 3.66634C5.01442 3.66634 4.54811 3.8595 4.20429 4.20331C3.86047 4.54713 3.66732 5.01344 3.66732 5.49967C3.66732 5.9859 3.86047 6.45222 4.20429 6.79604C4.54811 7.13985 5.01442 7.33301 5.50065 7.33301H7.33398V5.49967ZM16.5007 7.33301C16.9869 7.33301 17.4532 7.13985 17.797 6.79604C18.1408 6.45222 18.334 5.9859 18.334 5.49967C18.334 5.01344 18.1408 4.54713 17.797 4.20331C17.4532 3.8595 16.9869 3.66634 16.5007 3.66634C16.0144 3.66634 15.5481 3.8595 15.2043 4.20331C14.8605 4.54713 14.6673 5.01344 14.6673 5.49967V7.33301H16.5007Z" fill="white"/>
<path d="M5.50065 1.83301C6.47311 1.83301 7.40574 2.21932 8.09338 2.90695C8.78101 3.59458 9.16732 4.52721 9.16732 5.49967V7.33301H12.834V5.49967C12.834 4.52721 13.2203 3.59458 13.9079 2.90695C14.5956 2.21932 15.5282 1.83301 16.5007 1.83301C17.4731 1.83301 18.4057 2.21932 19.0934 2.90695C19.781 3.59458 20.1673 4.52721 20.1673 5.49967C20.1673 6.47214 19.781 7.40477 19.0934 8.0924C18.4057 8.78003 17.4731 9.16634 16.5007 9.16634H14.6673V12.833H16.5007C17.4731 12.833 18.4057 13.2193 19.0934 13.9069C19.781 14.5946 20.1673 15.5272 20.1673 16.4997C20.1673 17.4721 19.781 18.4048 19.0934 19.0924C18.4057 19.78 17.4731 20.1663 16.5007 20.1663C15.5282 20.1663 14.5956 19.78 13.9079 19.0924C13.2203 18.4048 12.834 17.4721 12.834 16.4997V14.6663H9.16732V16.4997C9.16732 17.4721 8.78101 18.4048 8.09338 19.0924C7.40574 19.78 6.47311 20.1663 5.50065 20.1663C4.52819 20.1663 3.59556 19.78 2.90793 19.0924C2.22029 18.4048 1.83398 17.4721 1.83398 16.4997C1.83398 15.5272 2.22029 14.5946 2.90793 13.9069C3.59556 13.2193 4.52819 12.833 5.50065 12.833H7.33398V9.16634H5.50065C4.52819 9.16634 3.59556 8.78003 2.90793 8.0924C2.22029 7.40477 1.83398 6.47214 1.83398 5.49967C1.83398 4.52721 2.22029 3.59458 2.90793 2.90695C3.59556 2.21932 4.52819 1.83301 5.50065 1.83301ZM14.6673 16.4997C14.6673 16.9859 14.8605 17.4522 15.2043 17.796C15.5481 18.1399 16.0144 18.333 16.5007 18.333C16.9869 18.333 17.4532 18.1399 17.797 17.796C18.1408 17.4522 18.334 16.9859 18.334 16.4997C18.334 16.0134 18.1408 15.5471 17.797 15.2033C17.4532 14.8595 16.9869 14.6663 16.5007 14.6663H14.6673V16.4997ZM12.834 9.16634H9.16732V12.833H12.834V9.16634ZM5.50065 14.6663C5.01442 14.6663 4.54811 14.8595 4.20429 15.2033C3.86047 15.5471 3.66732 16.0134 3.66732 16.4997C3.66732 16.9859 3.86047 17.4522 4.20429 17.796C4.54811 18.1399 5.01442 18.333 5.50065 18.333C5.98688 18.333 6.4532 18.1399 6.79701 17.796C7.14083 17.4522 7.33398 16.9859 7.33398 16.4997V14.6663H5.50065ZM7.33398 5.49967C7.33398 5.01344 7.14083 4.54713 6.79701 4.20331C6.4532 3.8595 5.98688 3.66634 5.50065 3.66634C5.01442 3.66634 4.54811 3.8595 4.20429 4.20331C3.86047 4.54713 3.66732 5.01344 3.66732 5.49967C3.66732 5.9859 3.86047 6.45222 4.20429 6.79604C4.54811 7.13985 5.01442 7.33301 5.50065 7.33301H7.33398V5.49967ZM16.5007 7.33301C16.9869 7.33301 17.4532 7.13985 17.797 6.79604C18.1408 6.45222 18.334 5.9859 18.334 5.49967C18.334 5.01344 18.1408 4.54713 17.797 4.20331C17.4532 3.8595 16.9869 3.66634 16.5007 3.66634C16.0144 3.66634 15.5481 3.8595 15.2043 4.20331C14.8605 4.54713 14.6673 5.01344 14.6673 5.49967V7.33301H16.5007Z" stroke="white"/>
</svg>
