<svg width="23" height="22" viewBox="0 0 23 22" fill="none" xmlns="http://www.w3.org/2000/svg">
<path fill-rule="evenodd" clip-rule="evenodd" d="M11.4993 2.52051C9.34774 2.52051 7.60352 4.26473 7.60352 6.41634C7.60352 8.56795 9.34774 10.3122 11.4993 10.3122C13.651 10.3122 15.3952 8.56795 15.3952 6.41634C15.3952 4.26473 13.651 2.52051 11.4993 2.52051ZM6.22852 6.41634C6.22852 3.50534 8.58835 1.14551 11.4993 1.14551C14.4103 1.14551 16.7702 3.50534 16.7702 6.41634C16.7702 9.32734 14.4103 11.6872 11.4993 11.6872C8.58835 11.6872 6.22852 9.32734 6.22852 6.41634Z" fill="white"/>
<path fill-rule="evenodd" clip-rule="evenodd" d="M2.9375 20.1667C2.9375 16.1142 6.9132 13.0625 11.4992 13.0625C16.0851 13.0625 20.0608 16.1142 20.0608 20.1667C20.0608 20.5464 19.753 20.8542 19.3733 20.8542C18.9936 20.8542 18.6858 20.5464 18.6858 20.1667C18.6858 17.1241 15.6032 14.4375 11.4992 14.4375C7.39513 14.4375 4.3125 17.1241 4.3125 20.1667C4.3125 20.5464 4.0047 20.8542 3.625 20.8542C3.2453 20.8542 2.9375 20.5464 2.9375 20.1667Z" fill="white"/>
</svg>
