<svg width="41" height="49" viewBox="0 0 41 49" fill="none" xmlns="http://www.w3.org/2000/svg">
<g opacity="0.3">
<path opacity="0.3" d="M28.434 10.6177C27.3404 10.6161 26.292 10.1808 25.5189 9.40735C24.7458 8.6339 24.3111 7.58539 24.31 6.49183V0.768066H5.88199C4.4546 0.768066 3.08568 1.33506 2.07635 2.34434C1.06703 3.35362 0.5 4.72251 0.5 6.14985V38.5925C0.50212 40.0184 1.07008 41.3853 2.07917 42.3928C3.08827 43.4004 4.45598 43.9663 5.88199 43.9663H28.004C29.43 43.9663 30.7977 43.4004 31.8068 42.3928C32.8159 41.3853 33.3839 40.0184 33.386 38.5925V10.6177H28.434Z" fill="#FF3E4C"/>
</g>
<path d="M33.3858 10.6176H28.4338C27.3402 10.616 26.2919 10.1807 25.5187 9.40723C24.7456 8.63374 24.3109 7.58519 24.3098 6.49158V0.767578L33.3858 10.6176Z" fill="#FF3E4C"/>
<path d="M37.2879 34.8882H12.2799C10.5059 34.8882 9.06787 36.3262 9.06787 38.1V45.5557C9.06787 47.3296 10.5059 48.7676 12.2799 48.7676H37.2879C39.0618 48.7676 40.4999 47.3296 40.4999 45.5557V38.1C40.4999 36.3262 39.0618 34.8882 37.2879 34.8882Z" fill="#FF3E4C"/>
<path d="M18.9699 43.4424V44.8964H17.4639V43.4424H18.9699Z" fill="white"/>
<path d="M21.232 43.7219H23.886V44.8958H19.616V43.7898L22.228 40.0479H19.65V38.8818H23.87V39.9878L21.232 43.7219Z" fill="white"/>
<path d="M26.2339 38.8818V44.8958H24.7859V38.8818H26.2339Z" fill="white"/>
<path d="M28.6916 42.7858V44.8958H27.2375V38.8818H29.5855C30.2995 38.8818 30.8455 39.0578 31.2195 39.4138C31.4089 39.5994 31.5569 39.8229 31.6537 40.0697C31.7506 40.3165 31.7941 40.581 31.7815 40.8458C31.7878 41.1956 31.7008 41.5408 31.5295 41.8458C31.3549 42.1441 31.0961 42.3842 30.7855 42.5358C30.4107 42.7121 29.9996 42.7977 29.5855 42.7858H28.6916ZM30.3075 40.8458C30.3075 40.3192 30.0155 40.0525 29.4315 40.0458H28.6916V41.6098H29.4315C30.0155 41.6165 30.3075 41.3618 30.3075 40.8458Z" fill="white"/>
<path d="M16.9396 31.2703C16.267 31.2693 15.6222 31.0015 15.1468 30.5257C14.6714 30.0499 14.4041 29.4049 14.4036 28.7323V26.1943H19.4776V28.7323C19.477 29.4053 19.2095 30.0505 18.7336 30.5264C18.2578 31.0022 17.6125 31.2698 16.9396 31.2703ZM15.7016 27.4923V28.7323C15.7016 29.0608 15.8319 29.376 16.064 29.6084C16.2962 29.8409 16.611 29.9718 16.9396 29.9723C17.2683 29.9718 17.5834 29.841 17.8158 29.6086C18.0482 29.3761 18.179 29.061 18.1796 28.7323V27.4923H15.7016Z" fill="#FF3E4C"/>
<path d="M14.4018 26.1968H16.9458V23.6528H14.4018V26.1968Z" fill="#FF3E4C"/>
<path d="M16.9396 23.6548H19.4836V21.1108H16.9396V23.6548Z" fill="#FF3E4C"/>
<path d="M14.4018 21.1133H16.9458V18.5693H14.4018V21.1133Z" fill="#FF3E4C"/>
<path d="M16.9396 18.5713H19.4836V16.0273H16.9396V18.5713Z" fill="#FF3E4C"/>
</svg>
